<svg width="387" height="206" viewBox="0 0 387 206" fill="none" xmlns="http://www.w3.org/2000/svg">
<path d="M103.393 162.507V201.117H64.9271V162.507V162.007H64.4271H0.5V131.609L65.7462 2.86007H103.393V136.209V136.709H103.893H123.632V162.007H103.893H103.393V162.507ZM30.9217 135.989L30.5665 136.709H31.3703H64.4271H64.9271V136.209V69.1162L63.9786 68.8952L30.9217 135.989ZM233.998 14.526L234.002 14.5297C244.205 23.8415 249.355 38.2916 249.355 57.9902V138.57C249.355 155.163 246.998 168.341 242.32 178.138L242.317 178.147C237.86 187.947 231.413 194.934 222.984 199.147L222.979 199.149C214.742 203.377 205.155 205.499 194.203 205.5C183.252 205.276 173.549 203.043 165.083 198.813C156.87 194.374 150.42 187.38 145.738 177.799C141.06 168.001 138.704 155.047 138.704 138.907V57.9902C138.704 38.293 143.853 23.8435 154.055 14.5317C164.516 5.18944 178.106 0.5 194.873 0.5C210.96 0.5 223.986 5.18659 233.998 14.526ZM206.728 177.323L206.728 177.323L206.736 177.312C209.981 173.142 211.564 167.058 211.564 159.136V47.2013C211.564 39.2839 209.87 33.3011 206.389 29.3501C203.157 25.2026 199.085 23.1007 194.198 23.1007C189.309 23.1007 185.127 25.2043 181.671 29.3492L181.669 29.3514C178.415 33.3015 176.833 39.2826 176.833 47.2013V159.136C176.833 167.058 178.416 173.142 181.66 177.312L181.67 177.324L181.68 177.336C185.14 181.255 189.32 183.236 194.198 183.236C199.295 183.236 203.484 181.259 206.728 177.323ZM328.614 2.86007H366.261V136.209V136.709H366.761H386.5V162.007H366.761H366.261V162.507V201.117H327.795V162.507V162.007H327.295H263.368V131.609L328.614 2.86007ZM293.79 135.989L293.435 136.709H294.238H327.295H327.795V136.209V69.1162L326.847 68.8952L293.79 135.989Z" fill="url(#paint0_linear_101_1210)" stroke="#E0E0E0" style="stroke:#E0E0E0;stroke:color(display-p3 0.8784 0.8784 0.8784);stroke-opacity:1;"/>
<defs>
<linearGradient id="paint0_linear_101_1210" x1="-3.54597e-07" y1="206" x2="397.572" y2="183.037" gradientUnits="userSpaceOnUse">
<stop stop-color="#CFCFCF" style="stop-color:#CFCFCF;stop-color:color(display-p3 0.8117 0.8117 0.8117);stop-opacity:1;"/>
<stop offset="1" stop-color="#928C89" style="stop-color:#928C89;stop-color:color(display-p3 0.5722 0.5495 0.5392);stop-opacity:1;"/>
</linearGradient>
</defs>
</svg>
