<svg width="130" height="130" viewBox="0 0 130 130" fill="none" xmlns="http://www.w3.org/2000/svg">
<g clip-path="url(#clip0_124_6054)">
<path d="M1.9043 10.2304H15.9021L20.5537 14.6791L14.9073 20.3254C11.4629 23.7705 11.4629 29.3759 14.9073 32.8207L17.6518 35.5652L14.8512 38.3657C14.4501 38.7672 14.2487 39.3265 14.302 39.8915C14.3554 40.4567 14.658 40.9683 15.1272 41.2872L19.823 44.4793C21.0572 45.3187 22.4753 45.729 23.8862 45.729C25.5221 45.729 27.1484 45.1768 28.4657 44.101L29.6024 45.2377C30.4271 46.0621 31.523 46.5161 32.6892 46.5161C33.8551 46.5161 34.951 46.0621 35.7756 45.2375L38.3566 42.6562C39.181 41.8321 39.635 40.736 39.635 39.57C39.635 38.4038 39.181 37.3077 38.3566 36.4838L37.2458 35.373L38.0918 34.5269L39.2026 35.6378C40.0271 36.462 41.1232 36.9159 42.2891 36.9159C43.455 36.9159 44.5512 36.462 45.3756 35.6378L47.9568 33.0566C49.6585 31.3546 49.6585 28.5853 47.9568 26.8833L46.846 25.7725L47.692 24.9265L48.8028 26.0373C49.6539 26.8882 50.7714 27.3132 51.889 27.3132C53.0067 27.3132 54.1247 26.8879 54.9758 26.0373L57.557 23.4561C59.2587 21.7544 59.2587 18.9853 57.5567 17.2829L56.4203 16.1464C58.4238 13.6932 58.611 10.1692 56.7988 7.50369L53.6065 2.8077C53.2876 2.33822 52.7759 2.03582 52.2107 1.9825C51.6499 1.92994 51.0867 2.13053 50.685 2.5317L47.8844 5.33203L45.1402 2.58781C43.4713 0.919141 41.2527 0 38.8926 0C36.5323 0 34.3137 0.919141 32.645 2.58781L23.2471 11.9854L17.9821 6.94992C17.6277 6.61096 17.1564 6.4218 16.6659 6.4218H1.9043C0.852363 6.4218 0 7.27416 0 8.32609C0 9.37803 0.852363 10.2304 1.9043 10.2304ZM35.6634 39.1765C35.798 39.311 35.8264 39.4646 35.8264 39.5698C35.8264 39.6749 35.7982 39.8285 35.6634 39.9631C35.6634 39.9631 35.6632 39.9631 35.6632 39.9633L33.0822 42.5443C32.8654 42.7616 32.5119 42.7611 32.2954 42.5443L31.1845 41.4337L34.5526 38.0656L35.6634 39.1765ZM45.2636 29.576C45.4804 29.7929 45.4804 30.1458 45.2636 30.3629L42.6824 32.9441C42.4656 33.1612 42.1126 33.1612 41.8958 32.9441L40.785 31.8332L44.153 28.4652L45.2636 29.576ZM54.8638 20.7624L52.2829 23.3436C52.0658 23.5602 51.7126 23.5605 51.4957 23.3439L50.3849 22.233L53.753 18.865L54.8638 19.9756C55.0809 20.1924 55.0809 20.5458 54.8638 20.7624ZM51.7507 6.85191L53.6494 9.64463C54.5728 11.003 54.3999 12.8319 53.2386 13.9933C50.1358 17.096 29.1098 38.1217 26.3128 40.9188C25.152 42.0804 23.3228 42.2528 21.9642 41.3296L19.1717 39.4311C26.4205 32.1824 47.6351 10.9677 51.7507 6.85191ZM35.3382 5.281C36.2875 4.33164 37.5499 3.80859 38.8926 3.80859C40.2353 3.80859 41.4977 4.33164 42.447 5.28125L45.1912 8.02522L20.345 32.8717L17.6008 30.1272C15.6406 28.1673 15.6406 24.9783 17.6008 23.0184L35.3382 5.281Z" fill="url(#paint0_linear_124_6054)" style=""/>
<path d="M80.6899 16.4663H76.2656C75.2137 16.4663 74.3613 17.3187 74.3613 18.3706C74.3613 19.4225 75.2137 20.2749 76.2656 20.2749H80.6899C81.7419 20.2749 82.5942 19.4225 82.5942 18.3706C82.5942 17.3187 81.7419 16.4663 80.6899 16.4663Z" fill="url(#paint1_linear_124_6054)" style=""/>
<path d="M80.6899 23.4602H76.2656C75.2137 23.4602 74.3613 24.3126 74.3613 25.3645C74.3613 26.4164 75.2137 27.2688 76.2656 27.2688H80.6899C81.7419 27.2688 82.5942 26.4164 82.5942 25.3645C82.5942 24.3126 81.7419 23.4602 80.6899 23.4602Z" fill="url(#paint2_linear_124_6054)" style=""/>
<path d="M80.6899 30.4541H76.2656C75.2137 30.4541 74.3613 31.3065 74.3613 32.3584C74.3613 33.4103 75.2137 34.2627 76.2656 34.2627H80.6899C81.7419 34.2627 82.5942 33.4103 82.5942 32.3584C82.5942 31.3065 81.7419 30.4541 80.6899 30.4541Z" fill="url(#paint3_linear_124_6054)" style=""/>
<path d="M80.6899 37.4482H76.2656C75.2137 37.4482 74.3613 38.3006 74.3613 39.3525C74.3613 40.4045 75.2137 41.2568 76.2656 41.2568H80.6899C81.7419 41.2568 82.5942 40.4045 82.5942 39.3525C82.5942 38.3006 81.7419 37.4482 80.6899 37.4482Z" fill="url(#paint4_linear_124_6054)" style=""/>
<path d="M108.424 29.6133C107.933 29.0793 107.183 28.8703 106.487 29.074C105.791 29.2773 105.271 29.8578 105.146 30.5715L104.151 36.2242L99.3287 25.6871C99.0499 25.0782 98.4718 24.6601 97.806 24.5867C97.1405 24.5138 96.4847 24.7951 96.08 25.3288L92.1924 30.4547H87.5645C86.5125 30.4547 85.6602 31.3071 85.6602 32.359C85.6602 33.4109 86.5125 34.2633 87.5645 34.2633H93.1379C93.7339 34.2633 94.2953 33.9843 94.6553 33.5097L97.1903 30.1673L103.234 43.3737C103.547 44.0572 104.228 44.4856 104.965 44.4856C105.045 44.4856 105.126 44.4805 105.207 44.4701C106.035 44.364 106.696 43.7325 106.841 42.9111L108.228 35.0304L108.952 35.8185C109.371 36.2742 109.985 36.499 110.599 36.4185C111.213 36.339 111.75 35.966 112.039 35.4183L113.953 31.789L114.034 32.5593C114.137 33.5277 114.954 34.263 115.928 34.263H119.767C120.819 34.263 121.672 33.4107 121.672 32.3588C121.672 31.3068 120.819 30.4545 119.767 30.4545H117.641L117.081 25.1643C116.993 24.3307 116.37 23.6528 115.547 23.4946C114.723 23.337 113.894 23.7351 113.503 24.4765L109.93 31.2527L108.424 29.6133Z" fill="url(#paint5_linear_124_6054)" style=""/>
<path d="M122.952 69.79H59.9534C58.9014 69.79 58.0491 70.6424 58.0491 71.6943C58.0491 72.7463 58.9014 73.5986 59.9534 73.5986H122.952C124.738 73.5986 126.191 75.052 126.191 76.8385V79.8658H3.80859V76.8385C3.80859 75.052 5.26195 73.5986 7.04844 73.5986H52.3395C53.3914 73.5986 54.2438 72.7463 54.2438 71.6943C54.2438 70.6424 53.3914 69.79 52.3395 69.79H26.7452V67.2764C26.7452 64.4798 24.4702 62.2048 21.6737 62.2048H11.6584C8.86184 62.2048 6.58684 64.4798 6.58684 67.2764V69.805C2.91459 70.0434 0 73.1071 0 76.8385V81.7701C0 82.822 0.852363 83.6744 1.9043 83.6744H8.37129V85.6833C8.37129 89.2202 11.2486 92.0977 14.7855 92.0977H25.8119C26.8638 92.0977 27.7162 91.2454 27.7162 90.1934C27.7162 89.1415 26.8638 88.2891 25.8119 88.2891H14.7852C13.3486 88.2891 12.1796 87.1201 12.1796 85.6833V83.6744H117.82V85.6833C117.82 87.1201 116.651 88.2891 115.215 88.2891C106.597 88.2891 43.9047 88.2891 33.4255 88.2891C32.3736 88.2891 31.5212 89.1415 31.5212 90.1934C31.5212 91.2454 32.3736 92.0977 33.4255 92.0977H47.3672L55.366 97.1718L47.2553 100.195C46.51 100.472 46.0159 101.184 46.0159 101.979V107.629H29.9688C27.2556 107.629 25.0484 109.836 25.0484 112.55V117.946C22.5713 118.751 20.7756 121.081 20.7756 123.823C20.7756 127.229 23.5465 130 26.9527 130C30.3588 130 33.1299 127.229 33.1299 123.823C33.1299 121.081 31.3341 118.751 28.857 117.946V112.55C28.857 111.936 29.3556 111.438 29.9688 111.438H96.1294C96.7423 111.438 97.2413 111.936 97.2413 112.55V117.946C94.7642 118.751 92.9685 121.081 92.9685 123.823C92.9685 127.229 95.7394 130 99.1456 130C102.552 130 105.323 127.229 105.323 123.823C105.323 121.081 103.527 118.751 101.05 117.946V112.55C101.05 109.836 98.8427 107.629 96.1294 107.629H78.961L63.8805 98.0627L79.886 92.0975H115.214C118.751 92.0975 121.629 89.22 121.629 85.683V83.6741H128.096C129.148 83.6741 130 82.8218 130 81.7698V76.8382C130 72.9519 126.838 69.79 122.952 69.79ZM10.3954 67.2764C10.3954 66.5801 10.9619 66.0134 11.6584 66.0134H21.6737C22.3699 66.0134 22.9366 66.5799 22.9366 67.2764V69.79H10.3954V67.2764ZM26.9527 126.191C25.6466 126.191 24.5842 125.129 24.5842 123.823C24.5842 122.524 25.6362 121.465 26.9331 121.455C26.9397 121.455 26.9461 121.455 26.9527 121.455C26.9593 121.455 26.9659 121.455 26.9722 121.455C28.2694 121.466 29.3213 122.524 29.3213 123.823C29.3213 125.129 28.259 126.191 26.9527 126.191ZM99.1456 126.191C97.8395 126.191 96.7771 125.129 96.7771 123.823C96.7771 122.524 97.8291 121.465 99.126 121.455C99.1326 121.455 99.139 121.455 99.1456 121.455C99.1522 121.455 99.1588 121.455 99.1651 121.455C100.462 121.466 101.514 122.524 101.514 123.823C101.515 125.129 100.452 126.191 99.1456 126.191ZM71.8514 107.629H49.8248V103.302L59.4021 99.7322L71.8514 107.629ZM59.8449 95.5026L54.4774 92.0975H68.9812L59.8449 95.5026Z" fill="url(#paint6_linear_124_6054)" style=""/>
<path d="M125.341 9.58301H115.955C114.903 9.58301 114.05 10.4354 114.05 11.4873C114.05 12.5392 114.903 13.3916 115.955 13.3916H125.341C125.809 13.3916 126.19 13.7727 126.19 14.2412V49.2561C126.19 49.7248 125.809 50.1059 125.341 50.1059H71.4026C70.9339 50.1059 70.5527 49.7248 70.5527 49.2561V14.2412C70.5527 13.7727 70.9339 13.3916 71.4026 13.3916H108.341C109.393 13.3916 110.245 12.5392 110.245 11.4873C110.245 10.4354 109.393 9.58301 108.341 9.58301H71.4026C68.834 9.58301 66.7441 11.6724 66.7441 14.2412V49.2561C66.7441 51.8246 68.8338 53.9145 71.4026 53.9145H125.341C127.91 53.9145 129.999 51.8249 129.999 49.2561V14.2412C129.999 11.6727 127.91 9.58301 125.341 9.58301Z" fill="url(#paint7_linear_124_6054)" style=""/>
</g>
<defs>
<linearGradient id="paint0_linear_124_6054" x1="-5.39072e-08" y1="46.5161" x2="60.5505" y2="44.1616" gradientUnits="userSpaceOnUse">
<stop stop-color="#CFCFCF" style="stop-color:#CFCFCF;stop-color:color(display-p3 0.8117 0.8117 0.8117);stop-opacity:1;"/>
<stop offset="1" stop-color="#928C89" style="stop-color:#928C89;stop-color:color(display-p3 0.5722 0.5495 0.5392);stop-opacity:1;"/>
</linearGradient>
<linearGradient id="paint1_linear_124_6054" x1="74.3613" y1="20.2749" x2="82.81" y2="19.7134" gradientUnits="userSpaceOnUse">
<stop stop-color="#CFCFCF" style="stop-color:#CFCFCF;stop-color:color(display-p3 0.8117 0.8117 0.8117);stop-opacity:1;"/>
<stop offset="1" stop-color="#928C89" style="stop-color:#928C89;stop-color:color(display-p3 0.5722 0.5495 0.5392);stop-opacity:1;"/>
</linearGradient>
<linearGradient id="paint2_linear_124_6054" x1="74.3613" y1="27.2688" x2="82.81" y2="26.7073" gradientUnits="userSpaceOnUse">
<stop stop-color="#CFCFCF" style="stop-color:#CFCFCF;stop-color:color(display-p3 0.8117 0.8117 0.8117);stop-opacity:1;"/>
<stop offset="1" stop-color="#928C89" style="stop-color:#928C89;stop-color:color(display-p3 0.5722 0.5495 0.5392);stop-opacity:1;"/>
</linearGradient>
<linearGradient id="paint3_linear_124_6054" x1="74.3613" y1="34.2627" x2="82.81" y2="33.7012" gradientUnits="userSpaceOnUse">
<stop stop-color="#CFCFCF" style="stop-color:#CFCFCF;stop-color:color(display-p3 0.8117 0.8117 0.8117);stop-opacity:1;"/>
<stop offset="1" stop-color="#928C89" style="stop-color:#928C89;stop-color:color(display-p3 0.5722 0.5495 0.5392);stop-opacity:1;"/>
</linearGradient>
<linearGradient id="paint4_linear_124_6054" x1="74.3613" y1="41.2568" x2="82.81" y2="40.6953" gradientUnits="userSpaceOnUse">
<stop stop-color="#CFCFCF" style="stop-color:#CFCFCF;stop-color:color(display-p3 0.8117 0.8117 0.8117);stop-opacity:1;"/>
<stop offset="1" stop-color="#928C89" style="stop-color:#928C89;stop-color:color(display-p3 0.5722 0.5495 0.5392);stop-opacity:1;"/>
</linearGradient>
<linearGradient id="paint5_linear_124_6054" x1="85.6602" y1="44.4856" x2="122.676" y2="42.5363" gradientUnits="userSpaceOnUse">
<stop stop-color="#CFCFCF" style="stop-color:#CFCFCF;stop-color:color(display-p3 0.8117 0.8117 0.8117);stop-opacity:1;"/>
<stop offset="1" stop-color="#928C89" style="stop-color:#928C89;stop-color:color(display-p3 0.5722 0.5495 0.5392);stop-opacity:1;"/>
</linearGradient>
<linearGradient id="paint6_linear_124_6054" x1="-1.19115e-07" y1="130" x2="133.533" y2="122.128" gradientUnits="userSpaceOnUse">
<stop stop-color="#CFCFCF" style="stop-color:#CFCFCF;stop-color:color(display-p3 0.8117 0.8117 0.8117);stop-opacity:1;"/>
<stop offset="1" stop-color="#928C89" style="stop-color:#928C89;stop-color:color(display-p3 0.5722 0.5495 0.5392);stop-opacity:1;"/>
</linearGradient>
<linearGradient id="paint7_linear_124_6054" x1="66.7441" y1="53.9145" x2="131.819" y2="51.0598" gradientUnits="userSpaceOnUse">
<stop stop-color="#CFCFCF" style="stop-color:#CFCFCF;stop-color:color(display-p3 0.8117 0.8117 0.8117);stop-opacity:1;"/>
<stop offset="1" stop-color="#928C89" style="stop-color:#928C89;stop-color:color(display-p3 0.5722 0.5495 0.5392);stop-opacity:1;"/>
</linearGradient>
<clipPath id="clip0_124_6054">
<rect width="130" height="130" fill="white" style="fill:white;fill-opacity:1;"/>
</clipPath>
</defs>
</svg>
