<svg width="128" height="128" viewBox="0 0 128 128" fill="none" xmlns="http://www.w3.org/2000/svg">
<path fill-rule="evenodd" clip-rule="evenodd" d="M110.986 62.0273C109.898 62.2109 109.164 63.2422 109.348 64.332C109.781 66.8945 110 69.4727 110 72C110 86.0969 103.717 98.8213 93.5933 107.294C91.8252 95.814 83.6748 86.6067 72.8518 83.3118C77.1548 80.4414 80 75.5508 80 70C80 61.1758 72.8223 54 64 54C55.1777 54 48 61.1758 48 70C48 75.5508 50.8452 80.4414 55.1482 83.3118C44.3252 86.6067 36.1748 95.814 34.4067 107.294C24.2832 98.8213 18 86.0969 18 72C18 69.4727 18.2188 66.8945 18.6523 64.332C18.8359 63.2422 18.1016 62.2109 17.0137 62.0273C15.9004 61.8398 14.8926 62.5781 14.707 63.668C14.2383 66.4453 14 69.25 14 72C14 96.5625 31.543 117.293 55.7129 121.293C55.8223 121.312 55.9336 121.32 56.041 121.32C57.002 121.32 57.8496 120.625 58.0117 119.648C58.1934 118.559 57.4551 117.527 56.3652 117.348C49.6257 116.232 43.4602 113.684 38.1209 110.07C39.0857 96.4968 50.2405 86 64 86C77.7595 86 88.9143 96.4968 89.8792 110.07C84.5398 113.684 78.3743 116.232 71.6348 117.348C70.5449 117.527 69.8066 118.559 69.9883 119.648C70.1504 120.625 70.998 121.32 71.959 121.32C72.0664 121.32 72.1777 121.312 72.2871 121.293C96.457 117.293 114 96.5625 114 72C114 69.25 113.762 66.4453 113.293 63.668C113.107 62.5781 112.088 61.8359 110.986 62.0273ZM52 70C52 63.3828 57.3828 58 64 58C70.6172 58 76 63.3828 76 70C76 76.6172 70.6172 82 64 82C57.3828 82 52 76.6172 52 70Z" fill="url(#paint0_linear_124_5941)" style=""/>
<path fill-rule="evenodd" clip-rule="evenodd" d="M85.9023 21.9141C85.6659 21.1875 85.0409 20.6602 84.287 20.5508L71.5077 18.6953L65.7929 7.11328C65.121 5.75391 62.8788 5.75391 62.2069 7.11328L56.4921 18.6953L43.7128 20.5508C42.9589 20.6602 42.3339 21.1875 42.0976 21.9141C41.8632 22.6367 42.0585 23.4336 42.6034 23.9648L51.8515 32.9766L49.6679 45.7031C49.539 46.457 49.8476 47.2148 50.4628 47.6602C51.0819 48.1094 51.8964 48.1758 52.5702 47.8125L63.9999 41.8008L75.4296 47.8125C75.7226 47.9688 76.0429 48.043 76.3612 48.043C76.7753 48.043 77.1874 47.9141 77.537 47.6602C78.1523 47.2148 78.4608 46.457 78.3319 45.7031L76.1483 32.9766L85.3964 23.9648C85.9413 23.4336 86.1366 22.6367 85.9023 21.9141ZM72.6034 30.8438C72.1327 31.3047 71.9179 31.9648 72.0292 32.6172L73.705 42.3867L64.9316 37.7734C64.6386 37.6211 64.3202 37.543 63.9999 37.543C63.6796 37.543 63.3612 37.6211 63.0683 37.7734L54.2948 42.3867L55.9706 32.6172C56.0819 31.9648 55.8671 31.3047 55.3964 30.8438L48.2987 23.9297L58.1073 22.5039C58.7597 22.4062 59.3222 22 59.6132 21.4102L63.9999 12.5195L68.3866 21.4102C68.6776 22 69.2401 22.4062 69.8925 22.5039L79.7011 23.9297L72.6034 30.8438Z" fill="url(#paint1_linear_124_5941)" style=""/>
<path fill-rule="evenodd" clip-rule="evenodd" d="M16.1405 54.0938C16.0116 54.8477 16.3202 55.6055 16.9355 56.0508C17.5566 56.5 18.373 56.5625 19.0429 56.2031L27.9999 51.4922L36.9569 56.2031C37.2499 56.3594 37.5702 56.4336 37.8886 56.4336C38.3026 56.4336 38.7148 56.3047 39.0644 56.0508C39.6796 55.6055 39.9882 54.8477 39.8593 54.0938L38.1484 44.1211L45.3964 37.0586C45.9413 36.5273 46.1366 35.7305 45.9023 35.0078C45.6659 34.2812 45.0409 33.7539 44.287 33.6445L34.2714 32.1914L29.7929 23.1133C29.121 21.7539 26.8788 21.7539 26.2069 23.1133L21.7284 32.1914L11.7128 33.6445C10.9589 33.7539 10.3339 34.2812 10.0976 35.0078C9.8632 35.7305 10.0585 36.5273 10.6034 37.0586L17.8515 44.1211L16.1405 54.0938ZM16.2987 37.0234L23.3437 36C23.996 35.9023 24.5585 35.4961 24.8495 34.9062L27.9999 28.5195L31.1503 34.9062C31.4413 35.4961 32.0038 35.9023 32.6562 36L39.7011 37.0234L34.6034 41.9883C34.1327 42.4492 33.9179 43.1094 34.0292 43.7617L35.2323 50.7773L28.9316 47.4648C28.6386 47.3125 28.3202 47.2344 27.9999 47.2344C27.6796 47.2344 27.3612 47.3125 27.0683 47.4648L20.7675 50.7773L21.9706 43.7617C22.0819 43.1094 21.8671 42.4492 21.3964 41.9883L16.2987 37.0234Z" fill="url(#paint2_linear_124_5941)" style=""/>
<path fill-rule="evenodd" clip-rule="evenodd" d="M116.287 33.6445L106.271 32.1914L101.793 23.1133C101.121 21.7539 98.8788 21.7539 98.2069 23.1133L93.7284 32.1914L83.7128 33.6445C82.9589 33.7539 82.3339 34.2812 82.0976 35.0078C81.8632 35.7305 82.0585 36.5273 82.6034 37.0586L89.8515 44.1211L88.1405 54.0938C88.0116 54.8477 88.3202 55.6055 88.9355 56.0508C89.5546 56.5 90.3691 56.5625 91.0429 56.2031L99.9999 51.4922L108.957 56.2031C109.25 56.3594 109.57 56.4336 109.889 56.4336C110.303 56.4336 110.715 56.3047 111.064 56.0508C111.68 55.6055 111.988 54.8477 111.859 54.0938L110.148 44.1211L117.396 37.0586C117.941 36.5273 118.137 35.7305 117.902 35.0078C117.666 34.2812 117.041 33.7539 116.287 33.6445ZM106.603 41.9883C106.133 42.4492 105.918 43.1094 106.029 43.7617L107.232 50.7773L100.932 47.4648C100.639 47.3125 100.32 47.2344 99.9999 47.2344C99.6796 47.2344 99.3612 47.3125 99.0683 47.4648L92.7675 50.7773L93.9706 43.7617C94.0819 43.1094 93.8671 42.4492 93.3964 41.9883L88.2987 37.0234L95.3437 36C95.996 35.9023 96.5585 35.4961 96.8495 34.9062L99.9999 28.5195L103.15 34.9062C103.441 35.4961 104.004 35.9023 104.656 36L111.701 37.0234L106.603 41.9883Z" fill="url(#paint3_linear_124_5941)" style=""/>
<path d="M64 122C65.1046 122 66 121.105 66 120C66 118.895 65.1046 118 64 118C62.8954 118 62 118.895 62 120C62 121.105 62.8954 122 64 122Z" fill="url(#paint4_linear_124_5941)" style=""/>
<defs>
<linearGradient id="paint0_linear_124_5941" x1="14" y1="121.32" x2="116.86" y2="116.623" gradientUnits="userSpaceOnUse">
<stop stop-color="#CFCFCF" style="stop-color:#CFCFCF;stop-color:color(display-p3 0.8117 0.8117 0.8117);stop-opacity:1;"/>
<stop offset="1" stop-color="#928C89" style="stop-color:#928C89;stop-color:color(display-p3 0.5722 0.5495 0.5392);stop-opacity:1;"/>
</linearGradient>
<linearGradient id="paint1_linear_124_5941" x1="42" y1="48.0465" x2="87.3055" y2="46.5856" gradientUnits="userSpaceOnUse">
<stop stop-color="#CFCFCF" style="stop-color:#CFCFCF;stop-color:color(display-p3 0.8117 0.8117 0.8117);stop-opacity:1;"/>
<stop offset="1" stop-color="#928C89" style="stop-color:#928C89;stop-color:color(display-p3 0.5722 0.5495 0.5392);stop-opacity:1;"/>
</linearGradient>
<linearGradient id="paint2_linear_124_5941" x1="10" y1="56.4355" x2="47.0681" y2="55.2408" gradientUnits="userSpaceOnUse">
<stop stop-color="#CFCFCF" style="stop-color:#CFCFCF;stop-color:color(display-p3 0.8117 0.8117 0.8117);stop-opacity:1;"/>
<stop offset="1" stop-color="#928C89" style="stop-color:#928C89;stop-color:color(display-p3 0.5722 0.5495 0.5392);stop-opacity:1;"/>
</linearGradient>
<linearGradient id="paint3_linear_124_5941" x1="82" y1="56.4355" x2="119.068" y2="55.2408" gradientUnits="userSpaceOnUse">
<stop stop-color="#CFCFCF" style="stop-color:#CFCFCF;stop-color:color(display-p3 0.8117 0.8117 0.8117);stop-opacity:1;"/>
<stop offset="1" stop-color="#928C89" style="stop-color:#928C89;stop-color:color(display-p3 0.5722 0.5495 0.5392);stop-opacity:1;"/>
</linearGradient>
<linearGradient id="paint4_linear_124_5941" x1="62" y1="122" x2="66.1191" y2="121.873" gradientUnits="userSpaceOnUse">
<stop stop-color="#CFCFCF" style="stop-color:#CFCFCF;stop-color:color(display-p3 0.8117 0.8117 0.8117);stop-opacity:1;"/>
<stop offset="1" stop-color="#928C89" style="stop-color:#928C89;stop-color:color(display-p3 0.5722 0.5495 0.5392);stop-opacity:1;"/>
</linearGradient>
</defs>
</svg>
