<svg width="130" height="130" viewBox="0 0 130 130" fill="none" xmlns="http://www.w3.org/2000/svg">
<path d="M91.0387 66.9983C91.0415 66.9831 91.0443 66.9681 91.0466 66.9529L93.4117 52.3063C93.4836 51.8611 93.4054 51.4047 93.1893 51.009C92.9733 50.6132 92.6317 50.3006 92.2184 50.1204L65.7113 38.5684C65.4553 38.4569 65.179 38.3994 64.8997 38.3994C64.6204 38.3994 64.3442 38.4569 64.0881 38.5684L37.5826 50.1212C37.1694 50.3014 36.8278 50.6139 36.6118 51.0095C36.3957 51.4052 36.3174 51.8615 36.3892 52.3065L38.7297 66.83L38.7485 66.9384C38.75 66.9473 38.7516 66.9559 38.7533 66.9638C40.7239 77.5504 46.7664 86.949 55.7676 93.4282L63.7148 99.1492C64.0588 99.3967 64.4715 99.5305 64.8953 99.5317C65.319 99.533 65.7325 99.4017 66.078 99.1563L73.7939 93.6739C82.9188 87.1899 89.0397 77.7365 91.0296 67.0524L91.0387 66.9983ZM87.0397 66.2825L87.0346 66.311C85.2392 75.9503 79.7008 84.4907 71.4399 90.3617L64.9085 95.0029L58.1406 90.1307C49.9955 84.2675 44.5294 75.7802 42.7488 66.2318L40.6508 53.2145L64.8988 42.6459L89.1492 53.2147L87.0397 66.2825Z" fill="url(#paint0_linear_124_6042)" style=""/>
<path d="M58.9062 52.8125V60.9375H50.7812C50.2425 60.9375 49.7259 61.1515 49.3449 61.5324C48.964 61.9134 48.75 62.43 48.75 62.9688V71.0938C48.75 71.6325 48.964 72.1491 49.3449 72.5301C49.7259 72.911 50.2425 73.125 50.7812 73.125H58.9062V81.25C58.9062 81.7887 59.1203 82.3054 59.5012 82.6863C59.8821 83.0672 60.3988 83.2812 60.9375 83.2812H69.0625C69.6012 83.2812 70.1179 83.0672 70.4988 82.6863C70.8797 82.3054 71.0938 81.7887 71.0938 81.25V73.125H79.2188C79.7575 73.125 80.2741 72.911 80.6551 72.5301C81.036 72.1491 81.25 71.6325 81.25 71.0938V62.9688C81.25 62.43 81.036 61.9134 80.6551 61.5324C80.2741 61.1515 79.7575 60.9375 79.2188 60.9375H71.0938V52.8125C71.0938 52.2738 70.8797 51.7571 70.4988 51.3762C70.1179 50.9953 69.6012 50.7812 69.0625 50.7812H60.9375C60.3988 50.7812 59.8821 50.9953 59.5012 51.3762C59.1203 51.7571 58.9062 52.2738 58.9062 52.8125ZM62.9688 62.9688V54.8438H67.0312V62.9688C67.0312 63.5075 67.2453 64.0241 67.6262 64.4051C68.0071 64.786 68.5238 65 69.0625 65H77.1875V69.0625H69.0625C68.5238 69.0625 68.0071 69.2765 67.6262 69.6574C67.2453 70.0384 67.0312 70.555 67.0312 71.0938V79.2188H62.9688V71.0938C62.9688 70.555 62.7547 70.0384 62.3738 69.6574C61.9929 69.2765 61.4762 69.0625 60.9375 69.0625H52.8125V65H60.9375C61.4762 65 61.9929 64.786 62.3738 64.4051C62.7547 64.0241 62.9688 63.5075 62.9688 62.9688Z" fill="url(#paint1_linear_124_6042)" style=""/>
<path d="M62.9688 20.0555V32.4999H67.0313V20.0555C68.946 19.5611 70.6148 18.3853 71.7247 16.7486C72.8346 15.1118 73.3094 13.1265 73.0603 11.1647C72.8111 9.20288 71.855 7.3993 70.3711 6.09201C68.8873 4.78472 66.9776 4.06348 65 4.06348C63.0224 4.06348 61.1128 4.78472 59.6289 6.09201C58.1451 7.3993 57.189 9.20288 56.9398 11.1647C56.6906 13.1265 57.1655 15.1118 58.2754 16.7486C59.3853 18.3853 61.054 19.5611 62.9688 20.0555ZM65 8.12493C65.8035 8.12493 66.589 8.36319 67.257 8.80958C67.9251 9.25598 68.4458 9.89045 68.7533 10.6328C69.0608 11.3751 69.1412 12.1919 68.9845 12.98C68.8277 13.768 68.4408 14.4919 67.8726 15.06C67.3045 15.6282 66.5806 16.0151 65.7926 16.1719C65.0045 16.3286 64.1877 16.2482 63.4454 15.9407C62.703 15.6332 62.0686 15.1125 61.6222 14.4444C61.1758 13.7764 60.9375 12.9909 60.9375 12.1874C60.9388 11.1104 61.3672 10.0778 62.1288 9.31622C62.8904 8.55463 63.923 8.1262 65 8.12493Z" fill="url(#paint2_linear_124_6042)" style=""/>
<path d="M67.0313 109.944V103.594H62.9688V109.944C61.054 110.439 59.3853 111.615 58.2754 113.251C57.1655 114.888 56.6906 116.873 56.9398 118.835C57.189 120.797 58.1451 122.601 59.6289 123.908C61.1128 125.215 63.0224 125.936 65 125.936C66.9776 125.936 68.8873 125.215 70.3711 123.908C71.855 122.601 72.8111 120.797 73.0603 118.835C73.3094 116.873 72.8346 114.888 71.7247 113.251C70.6148 111.615 68.946 110.439 67.0313 109.944ZM65 121.875C64.1965 121.875 63.4111 121.637 62.743 121.19C62.0749 120.744 61.5542 120.109 61.2468 119.367C60.9393 118.625 60.8588 117.808 61.0156 117.02C61.1723 116.232 61.5592 115.508 62.1274 114.94C62.6955 114.372 63.4194 113.985 64.2075 113.828C64.9955 113.671 65.8123 113.752 66.5547 114.059C67.297 114.367 67.9315 114.887 68.3779 115.555C68.8243 116.224 69.0625 117.009 69.0625 117.812C69.0612 118.89 68.6328 119.922 67.8712 120.684C67.1096 121.445 66.0771 121.874 65 121.875Z" fill="url(#paint3_linear_124_6042)" style=""/>
<path d="M12.1884 73.125C13.9892 73.1227 15.7384 72.5233 17.1622 71.4206C18.5859 70.3179 19.6038 68.7743 20.0565 67.0313H32.5009V62.9688H20.0565C19.6766 61.4974 18.8916 60.1621 17.7909 59.1145C16.6901 58.0668 15.3176 57.3489 13.8293 57.0422C12.341 56.7355 10.7964 56.8523 9.37118 57.3794C7.94592 57.9065 6.69704 58.8228 5.7664 60.0241C4.83576 61.2254 4.26066 62.6636 4.10642 64.1753C3.95218 65.6871 4.22498 67.2118 4.89385 68.5763C5.56271 69.9408 6.60082 71.0903 7.89026 71.8944C9.17971 72.6985 10.6688 73.1248 12.1884 73.125ZM12.1884 60.9375C12.9919 60.9375 13.7773 61.1758 14.4454 61.6222C15.1135 62.0686 15.6342 62.703 15.9417 63.4454C16.2492 64.1877 16.3296 65.0045 16.1728 65.7926C16.0161 66.5806 15.6292 67.3045 15.061 67.8726C14.4929 68.4408 13.769 68.8277 12.981 68.9844C12.1929 69.1412 11.3761 69.0607 10.6338 68.7533C9.89143 68.4458 9.25696 67.9251 8.81056 67.257C8.36417 66.5889 8.12591 65.8035 8.12591 65C8.12718 63.923 8.55561 62.8904 9.3172 62.1288C10.0788 61.3672 11.1114 60.9388 12.1884 60.9375Z" fill="url(#paint4_linear_124_6042)" style=""/>
<path d="M103.594 48.75C108.013 48.75 112.333 47.4396 116.007 44.9844C119.682 42.5292 122.546 39.0396 124.237 34.9568C125.928 30.8741 126.37 26.3815 125.508 22.0472C124.646 17.7129 122.518 13.7317 119.393 10.6068C116.268 7.48201 112.287 5.35398 107.953 4.49184C103.619 3.6297 99.126 4.07218 95.0432 5.76333C90.9604 7.45447 87.4708 10.3183 85.0156 13.9927C82.5604 17.6671 81.25 21.9871 81.25 26.4063C81.2567 32.3301 83.6129 38.0094 87.8018 42.1983C91.9906 46.3871 97.6699 48.7433 103.594 48.75ZM95.4688 42.7807V35.5469C95.4696 34.7391 95.7909 33.9646 96.3621 33.3934C96.9333 32.8222 97.7078 32.5009 98.5156 32.5H108.672C109.48 32.5009 110.254 32.8222 110.825 33.3934C111.397 33.9646 111.718 34.7391 111.719 35.5469V42.7807C109.194 44.0349 106.413 44.6875 103.594 44.6875C100.775 44.6875 97.9936 44.0349 95.4688 42.7807ZM99.5312 25.3906V21.3281C99.5321 20.5203 99.8534 19.7458 100.425 19.1746C100.996 18.6034 101.77 18.2821 102.578 18.2813H104.609C105.417 18.2821 106.192 18.6034 106.763 19.1746C107.334 19.7458 107.655 20.5203 107.656 21.3281V25.3906C107.655 26.1984 107.334 26.9729 106.763 27.5441C106.192 28.1153 105.417 28.4366 104.609 28.4375H102.578C101.77 28.4366 100.996 28.1153 100.425 27.5441C99.8534 26.9729 99.5321 26.1984 99.5312 25.3906ZM103.594 8.12501C107.296 8.1234 110.911 9.24612 113.96 11.3445C117.01 13.4429 119.35 16.4181 120.671 19.876C121.993 23.334 122.233 27.1117 121.359 30.709C120.486 34.3064 118.541 37.5536 115.781 40.021V35.5469C115.779 34.0438 115.302 32.5798 114.418 31.3645C113.533 30.1492 112.287 29.2449 110.857 28.781C111.424 27.741 111.72 26.5751 111.719 25.3906V21.3281C111.717 19.4433 110.967 17.6362 109.634 16.3034C108.301 14.9706 106.494 14.2209 104.609 14.2188H102.578C100.693 14.2209 98.8862 14.9706 97.5534 16.3034C96.2206 17.6362 95.4709 19.4433 95.4688 21.3281V25.3906C95.4672 26.5751 95.7636 27.741 96.3305 28.781C94.9008 29.2449 93.6544 30.1492 92.7699 31.3645C91.8854 32.5798 91.4081 34.0438 91.4062 35.5469V40.021C88.6466 37.5536 86.7014 34.3064 85.8281 30.709C84.9549 27.1117 85.1948 23.334 86.5161 19.876C87.8374 16.4181 90.1778 13.4429 93.2274 11.3445C96.277 9.24612 99.8919 8.1234 103.594 8.12501Z" fill="url(#paint5_linear_124_6042)" style=""/>
<path d="M103.594 85.3126C108.441 85.318 113.088 87.2458 116.515 90.673C119.942 94.1002 121.87 98.747 121.875 103.594H125.938C125.932 97.8683 123.726 92.3639 119.777 88.2187C115.828 84.0735 110.436 81.6044 104.718 81.3219C98.9992 81.0394 93.3908 82.9651 89.052 86.7009C84.7132 90.4367 81.9759 95.6969 81.4059 101.394C80.8359 107.091 82.4768 112.789 85.9895 117.311C89.5021 121.832 94.6179 124.831 100.279 125.687C105.94 126.543 111.714 125.191 116.406 121.91C121.099 118.629 124.351 113.671 125.491 108.06L121.51 107.252C120.725 111.101 118.715 114.593 115.782 117.205V112.734C115.78 111.231 115.302 109.767 114.418 108.552C113.533 107.337 112.287 106.432 110.857 105.969C111.424 104.929 111.721 103.763 111.719 102.578V98.5157C111.717 96.6308 110.967 94.8238 109.634 93.491C108.302 92.1582 106.495 91.4085 104.61 91.4063H102.578C100.694 91.4085 98.8865 92.1582 97.5537 93.491C96.2209 94.8238 95.4712 96.6308 95.469 98.5157V102.578C95.4675 103.763 95.7639 104.929 96.3308 105.969C94.9011 106.432 93.6547 107.337 92.7702 108.552C91.8857 109.767 91.4084 111.231 91.4065 112.734V117.209C88.6469 114.741 86.7017 111.494 85.8284 107.897C84.9552 104.299 85.1951 100.522 86.5164 97.0636C87.8377 93.6056 90.178 90.6305 93.2276 88.5321C96.2772 86.4337 99.8922 85.3109 103.594 85.3126ZM99.5315 98.5157C99.5324 97.7079 99.8537 96.9334 100.425 96.3622C100.996 95.791 101.771 95.4697 102.578 95.4688H104.61C105.417 95.4697 106.192 95.791 106.763 96.3622C107.334 96.9334 107.656 97.7079 107.657 98.5157V102.578C107.656 103.386 107.334 104.16 106.763 104.732C106.192 105.303 105.417 105.624 104.61 105.625H102.578C101.771 105.624 100.996 105.303 100.425 104.732C99.8537 104.16 99.5324 103.386 99.5315 102.578V98.5157ZM95.469 112.734C95.4699 111.927 95.7912 111.152 96.3624 110.581C96.9336 110.01 97.7081 109.688 98.5159 109.688H108.672C109.48 109.688 110.254 110.01 110.826 110.581C111.397 111.152 111.718 111.927 111.719 112.734V119.96C109.196 121.218 106.415 121.874 103.595 121.875C100.775 121.876 97.9938 121.224 95.469 119.968V112.734Z" fill="url(#paint6_linear_124_6042)" style=""/>
<path d="M26.4072 48.75C29.9475 48.7495 33.437 47.9077 36.5881 46.2941C39.7392 44.6804 42.4618 42.3411 44.5316 39.4689C46.6013 36.5966 47.9588 33.2737 48.4924 29.7738C49.026 26.274 48.7203 22.6975 47.6005 19.339C46.4808 15.9805 44.5789 12.9361 42.0518 10.4568C39.5247 7.97742 36.4446 6.13406 33.0653 5.07859C29.686 4.02312 26.1043 3.78575 22.6153 4.38604C19.1263 4.98633 15.8299 6.40709 12.9977 8.53125L15.4385 11.7813C19.2069 8.95621 23.9203 7.69489 28.596 8.26033C33.2717 8.82577 37.5486 11.1743 40.5349 14.8162C43.5212 18.4581 44.9864 23.1123 44.625 27.8081C44.2635 32.504 42.1032 36.879 38.5947 40.021V35.5469C38.5929 34.0438 38.1156 32.5798 37.231 31.3645C36.3465 30.1492 35.1002 29.2449 33.6705 28.781C34.2374 27.741 34.5337 26.5751 34.5322 25.3906V21.3281C34.5301 19.4433 33.7803 17.6362 32.4475 16.3034C31.1147 14.9706 29.3077 14.2209 27.4228 14.2188H25.3916C23.5067 14.2209 21.6997 14.9706 20.3669 16.3034C19.0341 17.6362 18.2844 19.4433 18.2822 21.3281V25.3906C18.2807 26.5751 18.577 27.741 19.144 28.781C17.7142 29.2449 16.4679 30.1492 15.5834 31.3645C14.6989 32.5798 14.2215 34.0438 14.2197 35.5469V40.021C10.8097 36.9723 8.66733 32.7554 8.21601 28.2037C7.7647 23.6519 9.03726 19.0964 11.7822 15.4375L8.53221 12.9967C6.04216 16.3164 4.52574 20.264 4.15289 24.397C3.78003 28.5301 4.56547 32.6853 6.42119 36.3971C8.27692 40.1089 11.1296 43.2306 14.6596 45.4124C18.1896 47.5942 22.2574 48.7499 26.4072 48.75ZM22.3447 21.3281C22.3456 20.5203 22.6669 19.7458 23.2381 19.1746C23.8093 18.6034 24.5838 18.2821 25.3916 18.2813H27.4228C28.2307 18.2821 29.0051 18.6034 29.5763 19.1746C30.1476 19.7458 30.4688 20.5203 30.4697 21.3281V25.3906C30.4688 26.1984 30.1476 26.9729 29.5763 27.5441C29.0051 28.1153 28.2307 28.4366 27.4228 28.4375H25.3916C24.5838 28.4366 23.8093 28.1153 23.2381 27.5441C22.6669 26.9729 22.3456 26.1984 22.3447 25.3906V21.3281ZM18.2822 35.5469C18.2831 34.7391 18.6044 33.9646 19.1756 33.3934C19.7468 32.8222 20.5213 32.5009 21.3291 32.5H31.4853C32.2932 32.5009 33.0676 32.8222 33.6388 33.3934C34.21 33.9646 34.5313 34.7391 34.5322 35.5469V42.7807C32.0073 44.0348 29.2264 44.6875 26.4072 44.6875C23.588 44.6875 20.8071 44.0348 18.2822 42.7807V35.5469Z" fill="url(#paint7_linear_124_6042)" style=""/>
<path d="M26.4063 81.25C21.9871 81.25 17.6671 82.5604 13.9927 85.0156C10.3183 87.4708 7.45447 90.9604 5.76333 95.0432C4.07218 99.126 3.6297 103.619 4.49184 107.953C5.35398 112.287 7.48201 116.268 10.6068 119.393C13.7317 122.518 17.7129 124.646 22.0472 125.508C26.3815 126.37 30.8741 125.928 34.9568 124.237C39.0396 122.546 42.5292 119.682 44.9844 116.007C47.4396 112.333 48.75 108.013 48.75 103.594C48.7433 97.6699 46.3871 91.9906 42.1983 87.8018C38.0094 83.6129 32.3301 81.2567 26.4063 81.25ZM18.2813 119.968V112.734C18.2821 111.927 18.6034 111.152 19.1746 110.581C19.7458 110.01 20.5203 109.688 21.3281 109.688H31.4844C32.2922 109.688 33.0667 110.01 33.6379 110.581C34.2091 111.152 34.5304 111.927 34.5313 112.734V119.968C32.0064 121.222 29.2255 121.875 26.4063 121.875C23.5871 121.875 20.8061 121.222 18.2813 119.968ZM22.3438 102.578V98.5156C22.3446 97.7078 22.6659 96.9333 23.2371 96.3621C23.8083 95.7909 24.5828 95.4696 25.3906 95.4688H27.4219C28.2297 95.4696 29.0042 95.7909 29.5754 96.3621C30.1466 96.9333 30.4679 97.7078 30.4688 98.5156V102.578C30.4679 103.386 30.1466 104.16 29.5754 104.732C29.0042 105.303 28.2297 105.624 27.4219 105.625H25.3906C24.5828 105.624 23.8083 105.303 23.2371 104.732C22.6659 104.16 22.3446 103.386 22.3438 102.578ZM38.5938 117.208V112.734C38.5919 111.231 38.1146 109.767 37.2301 108.552C36.3456 107.337 35.0992 106.432 33.6695 105.969C34.2364 104.929 34.5328 103.763 34.5313 102.578V98.5156C34.5291 96.6308 33.7794 94.8237 32.4466 93.4909C31.1138 92.1581 29.3067 91.4084 27.4219 91.4062H25.3906C23.5058 91.4084 21.6987 92.1581 20.3659 93.4909C19.0331 94.8237 18.2834 96.6308 18.2813 98.5156V102.578C18.2797 103.763 18.5761 104.929 19.143 105.969C17.7133 106.432 16.4669 107.337 15.5824 108.552C14.6979 109.767 14.2206 111.231 14.2188 112.734V117.208C11.4591 114.74 9.51402 111.492 8.64077 107.894C7.76753 104.296 8.00732 100.518 9.32842 97.0593C10.6495 93.6006 12.9897 90.6245 16.0392 88.5249C19.0887 86.4253 22.7038 85.3012 26.4063 85.3012C30.1087 85.3012 33.7238 86.4253 36.7733 88.5249C39.8229 90.6245 42.163 93.6006 43.4841 97.0593C44.8052 100.518 45.045 104.296 44.1717 107.894C43.2985 111.492 41.3534 114.74 38.5938 117.208Z" fill="url(#paint8_linear_124_6042)" style=""/>
<path d="M117.812 56.875C116.012 56.8773 114.262 57.4767 112.839 58.5794C111.415 59.6821 110.397 61.2257 109.944 62.9688H97.5V67.0312H109.944C110.324 68.5026 111.109 69.8379 112.21 70.8855C113.311 71.9332 114.683 72.6511 116.172 72.9578C117.66 73.2645 119.204 73.1477 120.63 72.6206C122.055 72.0935 123.304 71.1772 124.235 69.9759C125.165 68.7747 125.74 67.3364 125.894 65.8247C126.049 64.3129 125.776 62.7882 125.107 61.4237C124.438 60.0592 123.4 58.9097 122.111 58.1056C120.821 57.3015 119.332 56.8752 117.812 56.875ZM117.812 69.0625C117.009 69.0625 116.224 68.8242 115.555 68.3778C114.887 67.9315 114.367 67.297 114.059 66.5546C113.752 65.8123 113.671 64.9955 113.828 64.2074C113.985 63.4194 114.372 62.6955 114.94 62.1274C115.508 61.5592 116.232 61.1723 117.02 61.0156C117.808 60.8588 118.625 60.9393 119.367 61.2467C120.109 61.5542 120.744 62.0749 121.19 62.743C121.637 63.4111 121.875 64.1965 121.875 65C121.874 66.0771 121.445 67.1096 120.684 67.8712C119.922 68.6328 118.89 69.0612 117.812 69.0625Z" fill="url(#paint9_linear_124_6042)" style=""/>
<defs>
<linearGradient id="paint0_linear_124_6042" x1="36.3633" y1="99.5317" x2="95.144" y2="97.8445" gradientUnits="userSpaceOnUse">
<stop stop-color="#CFCFCF" style="stop-color:#CFCFCF;stop-color:color(display-p3 0.8117 0.8117 0.8117);stop-opacity:1;"/>
<stop offset="1" stop-color="#928C89" style="stop-color:#928C89;stop-color:color(display-p3 0.5722 0.5495 0.5392);stop-opacity:1;"/>
</linearGradient>
<linearGradient id="paint1_linear_124_6042" x1="48.75" y1="83.2812" x2="82.2176" y2="82.2523" gradientUnits="userSpaceOnUse">
<stop stop-color="#CFCFCF" style="stop-color:#CFCFCF;stop-color:color(display-p3 0.8117 0.8117 0.8117);stop-opacity:1;"/>
<stop offset="1" stop-color="#928C89" style="stop-color:#928C89;stop-color:color(display-p3 0.5722 0.5495 0.5392);stop-opacity:1;"/>
</linearGradient>
<linearGradient id="paint2_linear_124_6042" x1="56.875" y1="32.4999" x2="73.6195" y2="32.2057" gradientUnits="userSpaceOnUse">
<stop stop-color="#CFCFCF" style="stop-color:#CFCFCF;stop-color:color(display-p3 0.8117 0.8117 0.8117);stop-opacity:1;"/>
<stop offset="1" stop-color="#928C89" style="stop-color:#928C89;stop-color:color(display-p3 0.5722 0.5495 0.5392);stop-opacity:1;"/>
</linearGradient>
<linearGradient id="paint3_linear_124_6042" x1="56.875" y1="125.936" x2="73.6163" y2="125.562" gradientUnits="userSpaceOnUse">
<stop stop-color="#CFCFCF" style="stop-color:#CFCFCF;stop-color:color(display-p3 0.8117 0.8117 0.8117);stop-opacity:1;"/>
<stop offset="1" stop-color="#928C89" style="stop-color:#928C89;stop-color:color(display-p3 0.5722 0.5495 0.5392);stop-opacity:1;"/>
</linearGradient>
<linearGradient id="paint4_linear_124_6042" x1="4.06445" y1="73.125" x2="33.2906" y2="71.5526" gradientUnits="userSpaceOnUse">
<stop stop-color="#CFCFCF" style="stop-color:#CFCFCF;stop-color:color(display-p3 0.8117 0.8117 0.8117);stop-opacity:1;"/>
<stop offset="1" stop-color="#928C89" style="stop-color:#928C89;stop-color:color(display-p3 0.5722 0.5495 0.5392);stop-opacity:1;"/>
</linearGradient>
<linearGradient id="paint5_linear_124_6042" x1="81.25" y1="48.75" x2="127.268" y2="47.3352" gradientUnits="userSpaceOnUse">
<stop stop-color="#CFCFCF" style="stop-color:#CFCFCF;stop-color:color(display-p3 0.8117 0.8117 0.8117);stop-opacity:1;"/>
<stop offset="1" stop-color="#928C89" style="stop-color:#928C89;stop-color:color(display-p3 0.5722 0.5495 0.5392);stop-opacity:1;"/>
</linearGradient>
<linearGradient id="paint6_linear_124_6042" x1="81.2949" y1="125.938" x2="127.267" y2="124.524" gradientUnits="userSpaceOnUse">
<stop stop-color="#CFCFCF" style="stop-color:#CFCFCF;stop-color:color(display-p3 0.8117 0.8117 0.8117);stop-opacity:1;"/>
<stop offset="1" stop-color="#928C89" style="stop-color:#928C89;stop-color:color(display-p3 0.5722 0.5495 0.5392);stop-opacity:1;"/>
</linearGradient>
<linearGradient id="paint7_linear_124_6042" x1="4.0625" y1="48.75" x2="50.078" y2="47.3353" gradientUnits="userSpaceOnUse">
<stop stop-color="#CFCFCF" style="stop-color:#CFCFCF;stop-color:color(display-p3 0.8117 0.8117 0.8117);stop-opacity:1;"/>
<stop offset="1" stop-color="#928C89" style="stop-color:#928C89;stop-color:color(display-p3 0.5722 0.5495 0.5392);stop-opacity:1;"/>
</linearGradient>
<linearGradient id="paint8_linear_124_6042" x1="4.0625" y1="125.938" x2="50.0804" y2="124.523" gradientUnits="userSpaceOnUse">
<stop stop-color="#CFCFCF" style="stop-color:#CFCFCF;stop-color:color(display-p3 0.8117 0.8117 0.8117);stop-opacity:1;"/>
<stop offset="1" stop-color="#928C89" style="stop-color:#928C89;stop-color:color(display-p3 0.5722 0.5495 0.5392);stop-opacity:1;"/>
</linearGradient>
<linearGradient id="paint9_linear_124_6042" x1="97.5" y1="73.125" x2="126.726" y2="71.5526" gradientUnits="userSpaceOnUse">
<stop stop-color="#CFCFCF" style="stop-color:#CFCFCF;stop-color:color(display-p3 0.8117 0.8117 0.8117);stop-opacity:1;"/>
<stop offset="1" stop-color="#928C89" style="stop-color:#928C89;stop-color:color(display-p3 0.5722 0.5495 0.5392);stop-opacity:1;"/>
</linearGradient>
</defs>
</svg>
