<svg width="130" height="130" viewBox="0 0 130 130" fill="none" xmlns="http://www.w3.org/2000/svg">
<g clip-path="url(#clip0_124_5983)">
<mask id="mask0_124_5983" style="mask-type:luminance" maskUnits="userSpaceOnUse" x="-1" y="0" width="131" height="130">
<path d="M-0.00195312 1.52588e-05H129.998V130H-0.00195312V1.52588e-05Z" fill="white" style="fill:white;fill-opacity:1;"/>
</mask>
<g mask="url(#mask0_124_5983)">
<path d="M93.4943 48.7173V42.6111C93.4943 26.874 80.7368 14.1165 64.9994 14.1165C49.9466 14.1165 37.6197 25.7883 36.5762 40.5758" stroke="url(#paint0_linear_124_5983)" style="" stroke-width="3.80859" stroke-miterlimit="10" stroke-linecap="round" stroke-linejoin="round"/>
<path d="M81.2816 30.3989C81.2816 30.3989 67.9698 39.9072 48.6994 42.3805C47.5527 42.5277 46.6808 43.4822 46.6808 44.6382V44.6463C46.6808 46.8947 44.8583 48.7172 42.6099 48.7172H39.5572C36.5738 48.7172 34.1901 51.2845 34.4951 54.3301C34.7602 56.9788 37.1857 58.894 39.8474 58.894L42.6104 58.8938C42.6102 71.2588 52.6341 81.2825 64.9991 81.2825C77.3638 81.2825 87.3878 71.259 87.3878 58.894L90.4408 58.8938C93.4242 58.8938 95.8079 56.3263 95.5027 53.2804C95.2373 50.6322 92.8118 48.7172 90.1501 48.7172H87.3878C85.1395 48.7172 83.3172 46.8947 83.3172 44.6463V43.3029C83.3172 38.4244 79.3621 34.4695 74.4838 34.4695H74.4759" stroke="url(#paint1_linear_124_5983)" style="" stroke-width="3.80859" stroke-miterlimit="10" stroke-linecap="round" stroke-linejoin="round"/>
<path d="M81.2803 18.1868C81.2803 9.19417 73.9904 1.90402 64.9976 1.90402C56.0047 1.90402 48.7148 9.19417 48.7148 18.1868" stroke="url(#paint2_linear_124_5983)" style="" stroke-width="3.80859" stroke-miterlimit="10" stroke-linecap="round" stroke-linejoin="round"/>
<path d="M54.8211 79.2474V87.4405C54.8211 89.8836 53.3649 92.0915 51.1191 93.0533L32.4966 101.029C28.7535 102.632 26.3262 106.312 26.3262 110.384V128.096" stroke="url(#paint3_linear_124_5983)" style="" stroke-width="3.80859" stroke-miterlimit="10" stroke-linecap="round" stroke-linejoin="round"/>
<path d="M75.1758 79.2474V87.4405C75.1758 89.8836 76.6319 92.0915 78.8777 93.0533L97.5002 101.029C101.243 102.632 103.671 106.312 103.671 110.384V128.096" stroke="url(#paint4_linear_124_5983)" style="" stroke-width="3.80859" stroke-miterlimit="10" stroke-linecap="round" stroke-linejoin="round"/>
<path d="M54.8223 52.7879V54.8232" stroke="url(#paint5_linear_124_5983)" style="" stroke-width="3.80859" stroke-miterlimit="10" stroke-linecap="round" stroke-linejoin="round"/>
<path d="M75.1758 52.7879V54.8232" stroke="url(#paint6_linear_124_5983)" style="" stroke-width="3.80859" stroke-miterlimit="10" stroke-linecap="round" stroke-linejoin="round"/>
<path d="M58.8926 64.9998C60.3985 66.2412 62.5597 67.0354 64.9988 67.0354C67.4375 67.0354 69.599 66.2412 71.105 64.9998" stroke="url(#paint7_linear_124_5983)" style="" stroke-width="3.80859" stroke-miterlimit="10" stroke-linecap="round" stroke-linejoin="round"/>
<path d="M46.6797 95.53L62.7398 106.237C64.1073 107.148 65.8885 107.148 67.256 106.237L83.3161 95.53" stroke="url(#paint8_linear_124_5983)" style="" stroke-width="3.80859" stroke-miterlimit="10" stroke-linecap="round" stroke-linejoin="round"/>
<path d="M38.5394 128.095C36.2913 128.095 34.4688 126.273 34.4688 124.025V115.883C34.4688 113.635 36.2913 111.813 38.5394 111.813H54.8221C57.0702 111.813 58.8928 113.635 58.8928 115.883V124.025C58.8928 126.273 57.0702 128.095 54.8221 128.095" stroke="url(#paint9_linear_124_5983)" style="" stroke-width="3.80859" stroke-miterlimit="10" stroke-linecap="round" stroke-linejoin="round"/>
<path d="M46.6797 111.813V97.5653" stroke="url(#paint10_linear_124_5983)" style="" stroke-width="3.80859" stroke-miterlimit="10" stroke-linecap="round" stroke-linejoin="round"/>
<path d="M83.3164 95.5302V115.884" stroke="url(#paint11_linear_124_5983)" style="" stroke-width="3.80859" stroke-miterlimit="10" stroke-linecap="round" stroke-linejoin="round"/>
<path d="M89.4231 121.99C89.4231 125.362 86.6893 128.096 83.3171 128.096C79.9447 128.096 77.2109 125.362 77.2109 121.99C77.2109 118.617 79.9447 115.884 83.3171 115.884C86.6893 115.884 89.4231 118.617 89.4231 121.99Z" stroke="url(#paint12_linear_124_5983)" style="" stroke-width="3.80859" stroke-miterlimit="10" stroke-linecap="round" stroke-linejoin="round"/>
<path d="M109.775 85.353C103.03 85.353 97.5625 79.8857 97.5625 73.1409V67.035C97.5625 62.5385 101.208 58.8935 105.704 58.8935H113.845C118.342 58.8935 121.987 62.5385 121.987 67.035V73.1409C121.987 79.8857 116.519 85.353 109.775 85.353Z" stroke="url(#paint13_linear_124_5983)" style="" stroke-width="3.80859" stroke-miterlimit="10" stroke-linecap="round" stroke-linejoin="round"/>
<path d="M128.093 113.848V98.4637C128.093 96.7118 126.972 95.1561 125.309 94.6021L117.273 91.9231C116.441 91.6461 115.881 90.8684 115.881 89.9921V83.9388" stroke="url(#paint14_linear_124_5983)" style="" stroke-width="3.80859" stroke-miterlimit="10" stroke-linecap="round" stroke-linejoin="round"/>
<path d="M103.67 83.9391V89.9925C103.67 90.8687 103.11 91.6462 102.279 91.9234L99.5996 92.8164" stroke="url(#paint15_linear_124_5983)" style="" stroke-width="3.80859" stroke-miterlimit="10" stroke-linecap="round" stroke-linejoin="round"/>
<path d="M102.426 92.0527L108.555 96.6494C109.278 97.192 110.274 97.192 110.997 96.6494L117.126 92.0527" stroke="url(#paint16_linear_124_5983)" style="" stroke-width="3.80859" stroke-miterlimit="10" stroke-linecap="round" stroke-linejoin="round"/>
<path d="M20.2219 85.3535C26.9662 85.3535 32.434 79.8862 32.434 73.1414V65.0001C32.434 61.628 29.7002 58.8939 26.3278 58.8939H14.1157C10.7436 58.8939 8.00977 61.628 8.00977 65.0001V73.1414C8.00977 79.8862 13.4774 85.3535 20.2219 85.3535Z" stroke="url(#paint17_linear_124_5983)" style="" stroke-width="3.80859" stroke-miterlimit="10" stroke-linecap="round" stroke-linejoin="round"/>
<path d="M1.90234 113.848V98.4637C1.90234 96.7118 3.02359 95.1561 4.68592 94.6021L12.7226 91.9231C13.5538 91.6461 14.1145 90.8684 14.1145 89.9921V83.9388" stroke="url(#paint18_linear_124_5983)" style="" stroke-width="3.80859" stroke-miterlimit="10" stroke-linecap="round" stroke-linejoin="round"/>
<path d="M26.3262 83.9391V89.9925C26.3262 90.8687 26.8868 91.6462 27.7178 91.9234L30.3968 92.8164" stroke="url(#paint19_linear_124_5983)" style="" stroke-width="3.80859" stroke-miterlimit="10" stroke-linecap="round" stroke-linejoin="round"/>
<path d="M27.5715 92.0527L21.4425 96.6494C20.7188 97.192 19.7238 97.192 19.0001 96.6494L12.8711 92.0527" stroke="url(#paint20_linear_124_5983)" style="" stroke-width="3.80859" stroke-miterlimit="10" stroke-linecap="round" stroke-linejoin="round"/>
<path d="M10.0451 113.848C8.92104 113.848 8.00977 112.937 8.00977 111.813V107.742C8.00977 106.618 8.92104 105.707 10.0451 105.707H18.1863C19.3106 105.707 20.2219 106.618 20.2219 107.742V111.813C20.2219 112.937 19.3106 113.848 18.1863 113.848" stroke="url(#paint21_linear_124_5983)" style="" stroke-width="3.80859" stroke-miterlimit="10" stroke-linecap="round" stroke-linejoin="round"/>
<path d="M14.1152 105.707V93.4949" stroke="url(#paint22_linear_124_5983)" style="" stroke-width="3.80859" stroke-miterlimit="10" stroke-linecap="round" stroke-linejoin="round"/>
<path d="M117.918 105.707V93.4949" stroke="url(#paint23_linear_124_5983)" style="" stroke-width="3.80859" stroke-miterlimit="10" stroke-linecap="round" stroke-linejoin="round"/>
<path d="M121.987 109.777C121.987 107.529 120.164 105.707 117.916 105.707C115.668 105.707 113.846 107.529 113.846 109.777C113.846 112.025 115.668 113.848 117.916 113.848C120.164 113.848 121.987 112.025 121.987 109.777Z" stroke="url(#paint24_linear_124_5983)" style="" stroke-width="3.80859" stroke-miterlimit="10" stroke-linecap="round" stroke-linejoin="round"/>
<path d="M32.4338 71.1062C24.858 71.1062 19.5381 67.7224 17.3134 65.9928C16.5875 65.4283 15.5868 65.423 14.8513 65.9748L8.00977 71.1062" stroke="url(#paint25_linear_124_5983)" style="" stroke-width="3.80859" stroke-miterlimit="10" stroke-linecap="round" stroke-linejoin="round"/>
</g>
</g>
<defs>
<linearGradient id="paint0_linear_124_5983" x1="36.5762" y1="14.1165" x2="95.0946" y2="17.0761" gradientUnits="userSpaceOnUse">
<stop stop-color="#CFCFCF" style="stop-color:#CFCFCF;stop-color:color(display-p3 0.8117 0.8117 0.8117);stop-opacity:1;"/>
<stop offset="1" stop-color="#928C89" style="stop-color:#928C89;stop-color:color(display-p3 0.5722 0.5495 0.5392);stop-opacity:1;"/>
</linearGradient>
<linearGradient id="paint1_linear_124_5983" x1="34.4687" y1="30.3989" x2="97.3208" y2="32.7178" gradientUnits="userSpaceOnUse">
<stop stop-color="#CFCFCF" style="stop-color:#CFCFCF;stop-color:color(display-p3 0.8117 0.8117 0.8117);stop-opacity:1;"/>
<stop offset="1" stop-color="#928C89" style="stop-color:#928C89;stop-color:color(display-p3 0.5722 0.5495 0.5392);stop-opacity:1;"/>
</linearGradient>
<linearGradient id="paint2_linear_124_5983" x1="48.7148" y1="1.90402" x2="82.1551" y2="3.96026" gradientUnits="userSpaceOnUse">
<stop stop-color="#CFCFCF" style="stop-color:#CFCFCF;stop-color:color(display-p3 0.8117 0.8117 0.8117);stop-opacity:1;"/>
<stop offset="1" stop-color="#928C89" style="stop-color:#928C89;stop-color:color(display-p3 0.5722 0.5495 0.5392);stop-opacity:1;"/>
</linearGradient>
<linearGradient id="paint3_linear_124_5983" x1="26.3262" y1="79.2474" x2="55.6877" y2="79.774" gradientUnits="userSpaceOnUse">
<stop stop-color="#CFCFCF" style="stop-color:#CFCFCF;stop-color:color(display-p3 0.8117 0.8117 0.8117);stop-opacity:1;"/>
<stop offset="1" stop-color="#928C89" style="stop-color:#928C89;stop-color:color(display-p3 0.5722 0.5495 0.5392);stop-opacity:1;"/>
</linearGradient>
<linearGradient id="paint4_linear_124_5983" x1="75.1758" y1="79.2474" x2="104.537" y2="79.774" gradientUnits="userSpaceOnUse">
<stop stop-color="#CFCFCF" style="stop-color:#CFCFCF;stop-color:color(display-p3 0.8117 0.8117 0.8117);stop-opacity:1;"/>
<stop offset="1" stop-color="#928C89" style="stop-color:#928C89;stop-color:color(display-p3 0.5722 0.5495 0.5392);stop-opacity:1;"/>
</linearGradient>
<linearGradient id="paint5_linear_124_5983" x1="54.8223" y1="52.7879" x2="55.8528" y2="52.8035" gradientUnits="userSpaceOnUse">
<stop stop-color="#CFCFCF" style="stop-color:#CFCFCF;stop-color:color(display-p3 0.8117 0.8117 0.8117);stop-opacity:1;"/>
<stop offset="1" stop-color="#928C89" style="stop-color:#928C89;stop-color:color(display-p3 0.5722 0.5495 0.5392);stop-opacity:1;"/>
</linearGradient>
<linearGradient id="paint6_linear_124_5983" x1="75.1758" y1="52.7879" x2="76.2063" y2="52.8035" gradientUnits="userSpaceOnUse">
<stop stop-color="#CFCFCF" style="stop-color:#CFCFCF;stop-color:color(display-p3 0.8117 0.8117 0.8117);stop-opacity:1;"/>
<stop offset="1" stop-color="#928C89" style="stop-color:#928C89;stop-color:color(display-p3 0.5722 0.5495 0.5392);stop-opacity:1;"/>
</linearGradient>
<linearGradient id="paint7_linear_124_5983" x1="58.8926" y1="64.9998" x2="71.0662" y2="67.2453" gradientUnits="userSpaceOnUse">
<stop stop-color="#CFCFCF" style="stop-color:#CFCFCF;stop-color:color(display-p3 0.8117 0.8117 0.8117);stop-opacity:1;"/>
<stop offset="1" stop-color="#928C89" style="stop-color:#928C89;stop-color:color(display-p3 0.5722 0.5495 0.5392);stop-opacity:1;"/>
</linearGradient>
<linearGradient id="paint8_linear_124_5983" x1="46.6797" y1="95.53" x2="84.0767" y2="99.2282" gradientUnits="userSpaceOnUse">
<stop stop-color="#CFCFCF" style="stop-color:#CFCFCF;stop-color:color(display-p3 0.8117 0.8117 0.8117);stop-opacity:1;"/>
<stop offset="1" stop-color="#928C89" style="stop-color:#928C89;stop-color:color(display-p3 0.5722 0.5495 0.5392);stop-opacity:1;"/>
</linearGradient>
<linearGradient id="paint9_linear_124_5983" x1="34.4687" y1="111.813" x2="59.5902" y2="112.971" gradientUnits="userSpaceOnUse">
<stop stop-color="#CFCFCF" style="stop-color:#CFCFCF;stop-color:color(display-p3 0.8117 0.8117 0.8117);stop-opacity:1;"/>
<stop offset="1" stop-color="#928C89" style="stop-color:#928C89;stop-color:color(display-p3 0.5722 0.5495 0.5392);stop-opacity:1;"/>
</linearGradient>
<linearGradient id="paint10_linear_124_5983" x1="46.6797" y1="97.5653" x2="47.7104" y2="97.5675" gradientUnits="userSpaceOnUse">
<stop stop-color="#CFCFCF" style="stop-color:#CFCFCF;stop-color:color(display-p3 0.8117 0.8117 0.8117);stop-opacity:1;"/>
<stop offset="1" stop-color="#928C89" style="stop-color:#928C89;stop-color:color(display-p3 0.5722 0.5495 0.5392);stop-opacity:1;"/>
</linearGradient>
<linearGradient id="paint11_linear_124_5983" x1="83.3164" y1="95.5302" x2="84.3471" y2="95.5317" gradientUnits="userSpaceOnUse">
<stop stop-color="#CFCFCF" style="stop-color:#CFCFCF;stop-color:color(display-p3 0.8117 0.8117 0.8117);stop-opacity:1;"/>
<stop offset="1" stop-color="#928C89" style="stop-color:#928C89;stop-color:color(display-p3 0.5722 0.5495 0.5392);stop-opacity:1;"/>
</linearGradient>
<linearGradient id="paint12_linear_124_5983" x1="77.2109" y1="115.884" x2="89.7866" y2="116.27" gradientUnits="userSpaceOnUse">
<stop stop-color="#CFCFCF" style="stop-color:#CFCFCF;stop-color:color(display-p3 0.8117 0.8117 0.8117);stop-opacity:1;"/>
<stop offset="1" stop-color="#928C89" style="stop-color:#928C89;stop-color:color(display-p3 0.5722 0.5495 0.5392);stop-opacity:1;"/>
</linearGradient>
<linearGradient id="paint13_linear_124_5983" x1="97.5625" y1="58.8935" x2="122.717" y2="59.6074" gradientUnits="userSpaceOnUse">
<stop stop-color="#CFCFCF" style="stop-color:#CFCFCF;stop-color:color(display-p3 0.8117 0.8117 0.8117);stop-opacity:1;"/>
<stop offset="1" stop-color="#928C89" style="stop-color:#928C89;stop-color:color(display-p3 0.5722 0.5495 0.5392);stop-opacity:1;"/>
</linearGradient>
<linearGradient id="paint14_linear_124_5983" x1="115.881" y1="83.9388" x2="128.466" y2="84.0968" gradientUnits="userSpaceOnUse">
<stop stop-color="#CFCFCF" style="stop-color:#CFCFCF;stop-color:color(display-p3 0.8117 0.8117 0.8117);stop-opacity:1;"/>
<stop offset="1" stop-color="#928C89" style="stop-color:#928C89;stop-color:color(display-p3 0.5722 0.5495 0.5392);stop-opacity:1;"/>
</linearGradient>
<linearGradient id="paint15_linear_124_5983" x1="99.5996" y1="83.9391" x2="103.795" y2="83.9982" gradientUnits="userSpaceOnUse">
<stop stop-color="#CFCFCF" style="stop-color:#CFCFCF;stop-color:color(display-p3 0.8117 0.8117 0.8117);stop-opacity:1;"/>
<stop offset="1" stop-color="#928C89" style="stop-color:#928C89;stop-color:color(display-p3 0.5722 0.5495 0.5392);stop-opacity:1;"/>
</linearGradient>
<linearGradient id="paint16_linear_124_5983" x1="102.426" y1="92.0527" x2="117.456" y2="93.4103" gradientUnits="userSpaceOnUse">
<stop stop-color="#CFCFCF" style="stop-color:#CFCFCF;stop-color:color(display-p3 0.8117 0.8117 0.8117);stop-opacity:1;"/>
<stop offset="1" stop-color="#928C89" style="stop-color:#928C89;stop-color:color(display-p3 0.5722 0.5495 0.5392);stop-opacity:1;"/>
</linearGradient>
<linearGradient id="paint17_linear_124_5983" x1="8.00977" y1="58.8939" x2="33.1647" y2="59.6078" gradientUnits="userSpaceOnUse">
<stop stop-color="#CFCFCF" style="stop-color:#CFCFCF;stop-color:color(display-p3 0.8117 0.8117 0.8117);stop-opacity:1;"/>
<stop offset="1" stop-color="#928C89" style="stop-color:#928C89;stop-color:color(display-p3 0.5722 0.5495 0.5392);stop-opacity:1;"/>
</linearGradient>
<linearGradient id="paint18_linear_124_5983" x1="1.90234" y1="83.9388" x2="14.488" y2="84.0968" gradientUnits="userSpaceOnUse">
<stop stop-color="#CFCFCF" style="stop-color:#CFCFCF;stop-color:color(display-p3 0.8117 0.8117 0.8117);stop-opacity:1;"/>
<stop offset="1" stop-color="#928C89" style="stop-color:#928C89;stop-color:color(display-p3 0.5722 0.5495 0.5392);stop-opacity:1;"/>
</linearGradient>
<linearGradient id="paint19_linear_124_5983" x1="26.3262" y1="83.9391" x2="30.5211" y2="83.9982" gradientUnits="userSpaceOnUse">
<stop stop-color="#CFCFCF" style="stop-color:#CFCFCF;stop-color:color(display-p3 0.8117 0.8117 0.8117);stop-opacity:1;"/>
<stop offset="1" stop-color="#928C89" style="stop-color:#928C89;stop-color:color(display-p3 0.5722 0.5495 0.5392);stop-opacity:1;"/>
</linearGradient>
<linearGradient id="paint20_linear_124_5983" x1="12.8711" y1="92.0527" x2="27.9008" y2="93.4103" gradientUnits="userSpaceOnUse">
<stop stop-color="#CFCFCF" style="stop-color:#CFCFCF;stop-color:color(display-p3 0.8117 0.8117 0.8117);stop-opacity:1;"/>
<stop offset="1" stop-color="#928C89" style="stop-color:#928C89;stop-color:color(display-p3 0.5722 0.5495 0.5392);stop-opacity:1;"/>
</linearGradient>
<linearGradient id="paint21_linear_124_5983" x1="8.00977" y1="105.707" x2="20.5706" y2="106.286" gradientUnits="userSpaceOnUse">
<stop stop-color="#CFCFCF" style="stop-color:#CFCFCF;stop-color:color(display-p3 0.8117 0.8117 0.8117);stop-opacity:1;"/>
<stop offset="1" stop-color="#928C89" style="stop-color:#928C89;stop-color:color(display-p3 0.5722 0.5495 0.5392);stop-opacity:1;"/>
</linearGradient>
<linearGradient id="paint22_linear_124_5983" x1="14.1152" y1="93.4949" x2="15.146" y2="93.4975" gradientUnits="userSpaceOnUse">
<stop stop-color="#CFCFCF" style="stop-color:#CFCFCF;stop-color:color(display-p3 0.8117 0.8117 0.8117);stop-opacity:1;"/>
<stop offset="1" stop-color="#928C89" style="stop-color:#928C89;stop-color:color(display-p3 0.5722 0.5495 0.5392);stop-opacity:1;"/>
</linearGradient>
<linearGradient id="paint23_linear_124_5983" x1="117.918" y1="93.4949" x2="118.949" y2="93.4975" gradientUnits="userSpaceOnUse">
<stop stop-color="#CFCFCF" style="stop-color:#CFCFCF;stop-color:color(display-p3 0.8117 0.8117 0.8117);stop-opacity:1;"/>
<stop offset="1" stop-color="#928C89" style="stop-color:#928C89;stop-color:color(display-p3 0.5722 0.5495 0.5392);stop-opacity:1;"/>
</linearGradient>
<linearGradient id="paint24_linear_124_5983" x1="113.846" y1="105.707" x2="122.229" y2="105.964" gradientUnits="userSpaceOnUse">
<stop stop-color="#CFCFCF" style="stop-color:#CFCFCF;stop-color:color(display-p3 0.8117 0.8117 0.8117);stop-opacity:1;"/>
<stop offset="1" stop-color="#928C89" style="stop-color:#928C89;stop-color:color(display-p3 0.5722 0.5495 0.5392);stop-opacity:1;"/>
</linearGradient>
<linearGradient id="paint25_linear_124_5983" x1="8.00977" y1="65.5652" x2="32.7307" y2="68.9153" gradientUnits="userSpaceOnUse">
<stop stop-color="#CFCFCF" style="stop-color:#CFCFCF;stop-color:color(display-p3 0.8117 0.8117 0.8117);stop-opacity:1;"/>
<stop offset="1" stop-color="#928C89" style="stop-color:#928C89;stop-color:color(display-p3 0.5722 0.5495 0.5392);stop-opacity:1;"/>
</linearGradient>
<clipPath id="clip0_124_5983">
<rect width="130" height="130" fill="white" style="fill:white;fill-opacity:1;"/>
</clipPath>
</defs>
</svg>
