<svg width="30" height="13" viewBox="0 0 30 13" fill="none" xmlns="http://www.w3.org/2000/svg">
<path d="M17.7014 1.71362L6.5014 12.7136C6.31436 12.8976 6.06251 13.0007 5.80015 13.0007C5.53779 13.0007 5.28594 12.8976 5.0989 12.7136L0.298899 7.99987C0.205251 7.90778 0.130657 7.79814 0.0793778 7.67723C0.0280986 7.55631 0.00113795 7.42648 3.52523e-05 7.29514C-0.00106744 7.1638 0.0237093 7.03353 0.072951 6.91177C0.122193 6.79001 0.194935 6.67914 0.287024 6.58549C0.379114 6.49184 0.488747 6.41725 0.609665 6.36597C0.730582 6.31469 0.860416 6.28773 0.991753 6.28663C1.12309 6.28552 1.25336 6.3103 1.37512 6.35954C1.49688 6.40878 1.60775 6.48153 1.7014 6.57362L5.80015 10.5986L16.3001 0.286116C16.4894 0.100132 16.7449 -0.00303475 17.0102 -0.000690541C17.1416 0.000470192 17.2715 0.0274995 17.3925 0.0788545C17.5134 0.13021 17.6231 0.204884 17.7151 0.298615C17.8072 0.392346 17.88 0.503298 17.9292 0.625135C17.9784 0.746973 18.0031 0.877309 18.002 1.0087C18.0008 1.1401 17.9738 1.26998 17.9224 1.39093C17.8711 1.51188 17.7964 1.62153 17.7026 1.71362H17.7014ZM29.7139 0.298615C29.6219 0.204814 29.5122 0.130077 29.3913 0.0786771C29.2703 0.0272775 29.1404 0.000223385 29.009 -0.000937542C28.8776 -0.00209847 28.7472 0.022656 28.6254 0.0719108C28.5035 0.121166 28.3926 0.193955 28.2989 0.286116L17.7989 10.5986L15.4451 8.28611C15.2559 8.1003 15.0005 7.99729 14.7352 7.99975C14.47 8.00221 14.2166 8.10994 14.0308 8.29924C13.845 8.48854 13.7419 8.7439 13.7444 9.00915C13.7469 9.27439 13.8546 9.5278 14.0439 9.71362L17.0976 12.7136C17.2847 12.8976 17.5365 13.0007 17.7989 13.0007C18.0613 13.0007 18.3131 12.8976 18.5001 12.7136L29.7001 1.71362C29.794 1.62165 29.8689 1.51208 29.9204 1.39117C29.9719 1.27026 29.9991 1.14038 30.0003 1.00897C30.0016 0.877548 29.977 0.747168 29.9278 0.62528C29.8787 0.503393 29.806 0.392389 29.7139 0.298615Z" fill="url(#paint0_linear_124_6096)" style=""/>
<defs>
<linearGradient id="paint0_linear_124_6096" x1="-2.74885e-08" y1="13.0007" x2="30.7679" y2="10.818" gradientUnits="userSpaceOnUse">
<stop stop-color="#CFCFCF" style="stop-color:#CFCFCF;stop-color:color(display-p3 0.8117 0.8117 0.8117);stop-opacity:1;"/>
<stop offset="1" stop-color="#928C89" style="stop-color:#928C89;stop-color:color(display-p3 0.5722 0.5495 0.5392);stop-opacity:1;"/>
</linearGradient>
</defs>
</svg>
