<svg width="21" height="21" viewBox="0 0 21 21" fill="none" xmlns="http://www.w3.org/2000/svg">
<g clip-path="url(#clip0_93_339)">
<path d="M14.242 12.3532L11.3141 10.1572V5.68395C11.3141 5.23417 10.9505 4.87061 10.5007 4.87061C10.0509 4.87061 9.68738 5.23417 9.68738 5.68395V10.5639C9.68738 10.8201 9.80776 11.0617 10.0127 11.2146L13.266 13.6546C13.4124 13.7644 13.5832 13.8172 13.7532 13.8172C14.0012 13.8172 14.2452 13.7058 14.4047 13.4911C14.6748 13.1323 14.6015 12.6224 14.242 12.3532Z" fill="white" style="fill:white;fill-opacity:1;"/>
<path d="M10.5 0C4.70995 0 0 4.70995 0 10.5C0 16.2901 4.70995 21 10.5 21C16.2901 21 21 16.2901 21 10.5C21 4.70995 16.2901 0 10.5 0ZM10.5 19.3734C5.60786 19.3734 1.62664 15.3921 1.62664 10.5C1.62664 5.60786 5.60786 1.62664 10.5 1.62664C15.393 1.62664 19.3734 5.60786 19.3734 10.5C19.3734 15.3921 15.3921 19.3734 10.5 19.3734Z" fill="white" style="fill:white;fill-opacity:1;"/>
</g>
<defs>
<clipPath id="clip0_93_339">
<rect width="21" height="21" fill="white" style="fill:white;fill-opacity:1;"/>
</clipPath>
</defs>
</svg>
