<svg width="1910" height="901" viewBox="0 0 1910 901" fill="none" xmlns="http://www.w3.org/2000/svg">
<path d="M-10.3398 872.569C7.09204 876.72 25.354 884.608 45.2762 899.137H40.7108C22.4489 886.268 5.84692 878.796 -10.3398 875.06V872.569Z" fill="url(#paint0_linear_37_6385)"/>
<path d="M-10.34 857.209C21.2035 858.039 53.9921 866.757 93.4214 898.722C93.8364 899.137 94.2516 899.137 94.2516 899.552H90.1011C51.5018 869.248 20.3734 860.53 -10.34 860.115V857.209Z" fill="url(#paint1_linear_37_6385)"/>
<path d="M-10.3398 843.51C30.7496 843.095 71.009 845.586 125.795 884.608C132.436 889.174 138.661 894.156 144.887 899.137H140.737C135.341 894.986 129.946 890.835 124.55 886.683C70.594 848.076 30.7496 845.586 -9.9248 846.001V843.51H-10.3398Z" fill="url(#paint2_linear_37_6385)"/>
<path d="M-10.3398 824.414C-0.378784 825.659 9.5824 826.489 19.1284 827.32C61.048 831.056 100.477 834.377 158.169 870.908C172.695 880.041 186.392 889.589 199.258 899.137H194.693C182.656 890.42 169.79 881.702 156.508 872.984C99.6472 836.868 60.2179 833.547 18.7134 829.81C9.16736 828.98 -0.378784 828.15 -10.7549 826.905V824.414H-10.3398Z" fill="url(#paint3_linear_37_6385)"/>
<path d="M-10.34 794.524C15.3928 802.827 37.3903 806.978 58.1426 811.545C97.1569 819.432 134.511 826.905 190.127 857.624C200.918 863.436 211.294 869.248 221.255 875.06C236.197 883.777 250.724 892.08 265.665 899.552H259.855C246.573 892.91 233.707 885.438 220.01 877.551C210.049 871.739 199.673 865.927 188.882 860.115C133.266 829.811 96.3269 822.338 57.3126 814.451C36.5603 810.299 14.5627 805.733 -10.755 797.846V794.524H-10.34Z" fill="url(#paint4_linear_37_6385)"/>
<path d="M-10.34 750.936C-1.20898 756.748 7.92212 762.144 17.4681 765.88L18.7133 766.296C22.0336 767.541 24.9391 768.786 27.8444 770.032C55.6523 780.825 78.0648 788.298 100.062 795.77C135.756 807.809 169.79 819.017 222.501 843.095L226.236 844.755C286.418 872.569 334.148 894.156 402.63 890.835C426.288 889.589 450.361 884.193 476.093 877.966C491.865 874.229 508.467 870.493 524.654 868.003C559.517 862.606 592.306 863.851 624.68 872.569C647.922 878.796 665.769 887.929 680.711 898.722H676.145C662.034 889.174 645.432 880.872 624.265 875.06C591.891 866.342 559.517 865.097 525.069 870.493C508.882 872.984 492.695 876.72 476.923 880.456C451.191 886.268 426.703 892.08 403.045 893.326C333.733 896.647 286.003 874.645 225.406 846.831L221.67 845.17C168.96 821.093 135.341 809.884 99.6471 797.846C77.6497 790.373 55.2372 782.901 27.4292 772.107C24.5239 770.862 21.2035 769.617 18.2982 768.371L17.0531 767.956C7.92212 764.22 -1.20886 759.238 -9.9248 753.427V750.936H-10.34Z" fill="url(#paint5_linear_37_6385)"/>
<path d="M-10.3398 689.912C8.33716 711.083 34.4851 730.594 61.463 743.463L64.7833 745.124C66.8585 746.369 69.3489 747.2 71.4241 748.445C91.3462 757.578 107.948 765.465 123.72 773.353C162.319 792.034 195.523 808.224 254.874 830.226C314.641 852.228 365.691 864.266 433.759 854.718C453.681 851.812 474.433 846.416 496.016 840.604C513.862 836.037 532.125 831.056 550.386 827.735C584.42 821.508 615.964 822.753 647.092 830.641C696.067 843.095 716.82 868.833 738.817 896.646C739.647 897.477 740.477 898.722 741.307 899.552H737.987C737.572 899.137 737.157 898.722 736.742 898.307C715.159 871.324 694.407 845.585 646.677 833.547C615.549 825.659 584.42 824.829 550.802 830.641C532.54 833.962 514.277 838.943 496.431 843.51C474.433 849.322 454.096 854.718 433.759 857.624C364.861 867.172 313.811 855.133 253.629 832.716C194.278 810.715 161.074 794.524 122.475 775.844C106.288 767.956 89.686 760.069 70.179 750.936C68.1038 750.105 65.6135 748.86 63.5383 747.615L60.2179 745.954C33.655 733.5 8.33704 714.404 -10.755 694.063V689.912H-10.3398Z" fill="url(#paint6_linear_37_6385)"/>
<path d="M-10.3398 623.491C-2.86902 630.548 3.77161 637.605 10.4124 645.078C17.4681 652.965 24.524 661.268 34.0701 669.985C53.5771 688.251 79.3099 706.517 105.873 721.046C107.533 721.877 109.193 722.707 110.853 723.537C112.514 724.367 113.759 725.198 115.419 726.028C135.756 737.236 152.773 748.03 168.96 758.823C201.748 780.41 232.877 801.167 287.663 816.111C347.014 832.716 398.48 833.132 465.302 817.772C481.074 814.036 497.261 809.054 514.277 803.657C534.615 797.43 555.782 790.788 576.949 786.637C610.153 779.995 640.451 780.41 670.335 787.467C720.14 799.506 737.572 826.489 756.664 854.718C766.625 869.663 777.001 885.023 792.358 899.137H788.623C774.096 885.438 764.135 870.493 754.589 856.379C735.912 828.565 718.48 801.997 669.92 790.373C640.451 783.316 610.153 782.901 577.365 789.543C556.197 793.694 535.445 800.336 515.108 806.563C498.091 811.96 481.904 816.942 465.717 820.678C398.48 836.038 346.599 835.622 286.833 819.017C231.632 803.657 200.503 783.316 167.3 761.314C151.113 750.521 134.511 739.727 113.759 728.519C112.099 727.688 110.853 726.858 109.193 726.028C107.533 725.198 105.873 724.367 104.213 723.537C77.2347 709.008 51.5018 690.742 31.9948 672.061C22.4487 663.343 15.3929 655.041 8.33716 647.153C2.11145 640.096 -3.6991 633.869 -10.3398 627.227V623.491Z" fill="url(#paint7_linear_37_6385)"/>
<path d="M1892.64 899.137C1898.45 886.683 1904.26 873.814 1909.66 860.115V867.172C1905.09 877.966 1900.53 888.759 1895.55 899.137H1892.64Z" fill="url(#paint8_linear_37_6385)"/>
<path d="M-10.3398 587.79C-7.01953 589.45 -3.69897 591.111 -0.793701 592.771C6.67712 596.922 13.7328 601.074 21.6187 606.47C34.9001 615.188 46.1063 624.321 57.7275 633.869C64.3683 639.266 71.009 644.662 78.4799 650.474C97.1569 665.004 120.399 680.364 149.453 698.214C151.943 699.46 154.018 701.12 156.508 702.366L158.584 703.611C177.676 715.65 193.032 728.934 207.974 742.218C238.272 768.371 266.495 792.864 319.206 802.412C379.388 813.62 431.268 802.412 495.6 780.825C505.977 777.504 516.768 773.353 527.974 769.201C552.047 760.484 577.365 750.936 602.682 745.539C634.641 738.482 664.524 738.067 692.747 744.709C742.968 756.332 757.494 784.146 773.266 813.205C782.397 830.226 791.528 847.661 808.545 863.436C812.28 866.757 816.431 870.078 820.581 872.569C835.938 882.117 853.37 887.514 869.971 892.91C876.197 894.986 882.423 897.062 888.648 899.137H880.763C877.027 897.892 873.292 896.647 869.556 895.401C852.54 890.005 835.108 884.608 819.336 874.645C814.77 871.739 810.62 868.833 806.885 865.097C789.868 849.322 780.322 831.471 771.191 814.451C755.834 785.807 741.722 758.823 692.332 747.2C664.109 740.557 635.056 740.973 603.512 748.03C578.194 753.842 553.292 762.975 529.219 771.692C518.013 775.844 507.637 779.58 496.846 783.316C432.099 804.903 379.803 816.111 319.206 804.903C265.665 794.94 237.027 770.447 206.729 743.879C191.787 731.01 176.431 717.725 157.339 705.687L155.263 704.441C153.188 703.196 150.698 701.535 148.208 700.29C119.154 682.439 95.9117 666.664 76.8197 652.55C69.3489 646.738 62.2931 641.341 56.0674 635.945C44.4462 626.397 33.2399 617.679 20.3734 608.961C12.4875 603.565 5.43188 599.413 -2.03894 595.262C-4.94421 593.601 -7.43457 592.356 -10.3398 591.111V587.79Z" fill="url(#paint9_linear_37_6385)"/>
<path d="M1870.23 899.137C1883.93 878.381 1895.96 857.209 1907.58 834.792C1908.42 833.547 1908.83 831.886 1909.66 830.641V836.453C1898.04 858.455 1886.83 879.211 1873.55 899.137H1870.23Z" fill="url(#paint10_linear_37_6385)"/>
<path d="M-10.3398 565.372C5.01685 571.184 20.7886 576.996 35.7302 583.638C43.201 586.959 51.0869 590.695 59.3878 594.847C82.2153 606.055 102.137 618.094 123.72 631.378C147.377 645.908 172.28 660.852 193.863 675.797C196.768 677.873 199.258 679.949 202.163 681.609C219.595 694.478 233.707 710.253 246.988 725.198C274.381 755.917 300.529 784.561 351.58 789.128C415.082 794.524 469.453 770.032 526.729 744.294L535.445 740.557C565.328 726.858 596.456 713.159 628.415 704.856C659.958 696.969 688.182 696.139 715.16 702.366C766.21 713.574 777.416 741.803 789.868 772.107C796.923 789.543 804.394 807.393 819.751 823.584C823.071 826.905 826.807 830.226 830.957 833.132C844.239 841.849 859.595 847.661 874.537 853.058C896.949 860.945 918.117 868.418 930.983 886.268C934.303 890.835 937.209 894.986 940.114 899.552H936.794C934.303 895.401 931.398 891.665 928.493 887.514C916.042 870.493 895.289 863.021 873.292 855.133C858.35 849.737 842.578 844.34 828.882 835.207C824.731 832.301 820.581 828.98 817.261 825.244C801.489 808.639 794.018 790.373 786.962 772.938C774.926 743.464 764.135 716.065 714.329 704.856C687.766 699.044 659.543 699.875 628.83 707.347C596.872 715.235 566.158 729.349 536.275 743.048L527.559 746.784C469.453 772.938 415.082 797.43 350.75 791.619C298.454 787.052 271.891 757.993 244.083 726.858C230.802 711.914 216.69 696.554 199.673 683.685C197.183 681.609 194.277 679.533 191.372 677.873C169.79 662.928 145.302 647.983 121.229 633.454C99.6471 620.17 79.725 608.546 56.8975 597.338C48.1815 593.186 40.7107 589.45 33.2399 586.129C18.7133 579.487 3.35669 574.09 -11.585 568.278V565.372H-10.3398Z" fill="url(#paint11_linear_37_6385)"/>
<path d="M1849.48 899.137H1845.74C1866.5 875.89 1882.27 853.058 1895.96 831.886C1900.53 824.414 1905.09 816.941 1909.66 809.469V814.451C1905.92 820.678 1902.19 826.905 1898.04 833.132C1884.76 854.303 1869.4 876.72 1849.48 899.137Z" fill="url(#paint12_linear_37_6385)"/>
<path d="M-10.3398 546.692C3.77173 551.673 18.7134 556.655 34.0701 561.636C109.193 586.544 193.863 614.358 245.743 659.607C261.515 673.306 273.966 690.742 286.003 707.762C310.905 742.633 334.148 775.844 384.368 775.428C442.89 774.598 495.601 744.294 546.651 714.404C550.802 711.914 554.537 709.838 558.687 707.347C612.643 676.212 676.145 646.323 738.402 659.192H738.817C790.283 669.985 798.584 699.044 807.3 729.764C812.28 747.615 817.676 766.296 831.787 782.901C844.239 797.43 862.501 804.903 880.763 811.96C902.345 820.678 924.342 829.395 936.379 850.152C945.095 865.097 952.15 881.287 959.206 897.062C959.621 897.892 960.036 898.307 960.036 899.137H957.131C957.131 898.722 956.716 898.307 956.716 897.892C950.075 882.117 942.604 865.927 934.304 850.982C922.682 831.056 901.1 822.338 879.932 814.036C861.671 806.563 842.578 799.091 830.127 784.146C815.6 767.126 810.205 748.445 805.224 730.179C796.508 699.044 788.623 672.061 738.817 661.268H738.402C676.975 648.399 614.304 678.288 560.763 709.008C556.612 711.498 552.877 713.574 548.726 716.065C497.261 745.954 444.135 776.674 385.198 777.504C333.733 777.919 310.075 744.294 284.757 708.593C272.721 691.572 260.685 674.137 244.913 660.853C193.448 616.018 108.778 588.205 34.0701 563.712C19.1284 558.73 4.60181 554.164 -9.50977 549.182V546.692H-10.3398Z" fill="url(#paint13_linear_37_6385)"/>
<path d="M1822.5 899.137H1818.77C1856.95 867.172 1886 831.056 1909.66 792.864V797.015C1886.42 833.132 1858.19 868.003 1822.5 899.137Z" fill="url(#paint14_linear_37_6385)"/>
<path d="M-10.3398 511.821C10.4125 519.293 33.2399 526.765 56.4824 534.653C129.115 558.73 211.709 585.714 263.175 628.472C278.532 641.341 290.568 657.531 302.189 672.891C326.677 705.271 349.92 735.991 397.65 736.406C452.851 736.821 503.071 711.083 547.481 688.251L557.442 683.27C563.668 679.948 570.309 676.627 576.534 673.306C625.51 648.399 683.616 624.736 742.138 635.945C747.118 636.775 752.514 638.02 757.494 639.266C807.3 652.55 818.506 679.118 829.297 704.441C835.523 719.386 841.748 734.746 855.86 747.2C867.481 757.578 883.668 762.559 901.1 767.541C923.927 774.183 947.585 781.24 961.697 801.997C973.733 819.847 982.034 841.019 990.335 861.36C994.485 872.154 999.051 883.362 1004.03 893.74C1004.86 895.401 1005.69 897.062 1006.52 898.722H1003.62C1002.79 897.477 1002.37 896.231 1001.54 894.571C996.56 884.193 991.995 872.984 987.844 862.191C979.958 841.849 971.243 821.093 959.621 803.242C946.34 782.901 923.097 776.259 900.685 769.617C883.253 764.635 866.236 759.653 854.615 748.86C840.088 735.576 833.448 720.216 827.222 704.856C816.431 678.703 806.054 654.21 757.494 641.341C752.514 640.096 747.533 638.851 742.552 638.02C684.861 627.227 627.17 650.474 578.609 674.967C572.384 678.288 566.158 681.609 559.518 684.515L549.556 689.496C505.146 712.329 454.511 738.482 398.895 738.067C349.92 737.652 326.262 706.517 301.359 673.306C289.738 657.947 277.702 641.757 262.76 629.303C211.71 586.544 129.531 559.561 56.8976 535.898C33.655 528.426 11.2426 520.954 -9.09473 513.481V511.821H-10.3398Z" fill="url(#paint15_linear_37_6385)"/>
<path d="M1800.09 899.137H1795.52C1834.95 871.739 1868.57 836.037 1898.04 791.203C1902.19 784.977 1905.92 779.165 1909.66 772.938V777.919C1906.75 782.901 1903.43 787.882 1900.53 792.449C1871.48 836.868 1838.27 872.154 1800.09 899.137Z" fill="url(#paint16_linear_37_6385)"/>
<path d="M-10.34 476.119C-5.77441 477.78 -1.6239 479.44 2.52661 481.101C25.7692 489.819 51.502 498.537 78.8949 507.254C149.868 530.502 229.972 556.24 281.022 597.338C295.549 608.961 307.585 623.906 319.206 638.435C343.694 668.325 366.521 696.554 411.761 697.799C464.887 699.044 513.447 676.627 560.763 655.041L571.139 650.474C579.44 646.738 587.325 643.002 595.211 639.681C644.187 618.509 702.293 598.998 762.06 615.603C767.04 616.849 772.436 618.509 777.001 620.17C824.317 635.529 838.428 658.777 850.879 678.703C858.765 691.572 865.821 703.196 880.763 712.744C891.139 719.386 905.665 722.292 921.022 724.783C944.68 728.934 971.243 733.915 987.429 755.502C1002.37 775.428 1011.5 800.751 1020.22 824.829C1023.12 833.132 1026.03 841.019 1028.93 848.491C1035.99 865.927 1043.05 879.211 1051.35 889.589C1054.25 893.325 1057.16 896.647 1060.06 899.552H1056.33C1053.84 897.062 1051.35 894.156 1049.27 891.25C1040.97 880.456 1033.5 867.172 1026.44 849.322C1023.54 841.849 1020.63 833.962 1017.73 825.659C1009.01 801.582 1000.3 776.674 985.354 756.748C969.997 735.991 944.68 731.425 920.607 727.273C904.835 724.367 890.309 721.877 879.102 714.819C864.161 705.271 856.69 692.817 848.389 679.948C835.523 659.192 822.656 637.605 776.171 622.661C771.606 621 766.625 619.755 761.229 618.094C702.293 601.904 644.602 621 596.042 642.172C588.156 645.493 580.27 649.229 571.969 652.965L561.593 657.531C514.278 679.118 465.302 701.95 411.761 700.705C365.276 699.46 342.034 670.816 317.131 640.511C305.51 626.397 293.889 611.452 279.362 599.828C228.311 559.146 148.623 532.992 78.0648 510.16C50.6719 501.442 24.939 492.725 1.69641 484.007C-2.03894 482.346 -6.18945 481.101 -10.34 479.441V476.119Z" fill="url(#paint17_linear_37_6385)"/>
<path d="M1767.71 899.137H1761.49C1815.44 873.814 1859.85 832.301 1897.62 772.523C1901.77 765.88 1905.92 759.238 1909.66 752.596V757.993C1906.34 763.39 1903.43 768.786 1900.11 773.768C1863.18 832.301 1820.01 873.399 1767.71 899.137Z" fill="url(#paint18_linear_37_6385)"/>
<path d="M1763.15 880.041C1748.21 885.853 1737.42 890.835 1728.7 894.571C1724.55 896.231 1720.4 897.892 1717.08 899.552H1710.02C1715.42 897.477 1720.81 894.986 1727.87 892.08C1736.59 888.344 1747.79 883.362 1762.32 877.55C1815.86 855.549 1859.85 815.696 1897.21 754.672C1901.77 747.615 1905.51 740.142 1909.66 733.085V738.482C1906.34 744.294 1903.02 750.106 1899.7 755.917C1861.93 817.357 1817.52 858.039 1763.15 880.041Z" fill="url(#paint19_linear_37_6385)"/>
<path d="M-10.3398 439.173C3.77173 446.23 19.1284 452.042 32.4099 457.024C53.5773 464.911 76.8196 472.383 101.307 480.271C169.79 502.273 247.403 527.596 298.454 566.618C312.565 577.411 324.187 590.695 335.808 603.98C359.881 631.378 382.708 657.531 425.458 659.192C476.508 661.268 521.748 642.587 569.479 623.076C573.629 621.415 578.194 619.339 582.345 617.679L584.835 616.849C594.796 612.697 603.927 608.961 613.473 605.64C659.543 588.62 720.14 572.015 781.567 594.432C786.547 596.092 791.528 598.168 796.093 599.828C839.258 616.434 856.275 635.114 869.556 650.059C879.517 661.268 888.233 670.816 904.42 676.627C913.551 679.948 925.588 680.779 938.869 681.609C964.602 683.27 993.655 684.93 1012.33 707.347C1030.59 728.934 1039.31 758.408 1048.03 786.637C1049.69 792.034 1051.35 797.015 1052.59 801.997C1056.74 814.451 1062.14 830.641 1071.27 844.755C1081.23 860.115 1092.85 871.324 1106.55 878.796C1126.88 890.42 1152.2 893.741 1176.69 895.816C1187.07 896.646 1196.61 897.062 1204.91 897.477C1207.82 897.477 1210.31 897.477 1212.8 897.892C1216.12 897.892 1219.02 898.307 1221.93 898.307C1226.91 898.307 1231.48 898.722 1235.63 899.137H1181.26C1179.6 899.137 1177.94 898.722 1176.69 898.722C1152.2 896.231 1126.47 892.91 1105.72 881.287C1091.61 873.399 1079.57 861.776 1069.61 846.416C1060.48 831.886 1054.67 815.696 1050.52 802.827C1048.86 797.845 1047.2 792.449 1045.95 787.467C1037.65 759.654 1028.93 730.594 1010.67 709.008C992.41 687.421 964.187 685.76 938.869 684.515C925.588 683.685 913.136 682.854 903.59 679.533C886.573 673.306 877.857 663.343 867.481 652.135C853.37 636.775 837.183 618.924 794.848 602.319C789.868 600.244 785.302 598.583 780.322 596.922C719.725 574.505 659.543 591.111 613.888 608.131C604.757 611.452 595.211 615.188 585.25 619.339L582.76 620.17C578.609 621.83 574.044 623.491 569.894 625.566C524.239 644.662 476.508 664.174 425.043 661.683C381.048 660.022 357.805 633.454 333.318 605.64C322.112 592.771 310.49 579.487 296.379 568.694C245.743 530.086 168.13 504.763 100.062 482.762C75.5746 474.874 51.917 467.402 30.7496 459.514C17.4681 454.533 2.94165 449.136 -11.1699 442.079V439.173H-10.3398Z" fill="url(#paint20_linear_37_6385)"/>
<path d="M-10.3398 396.83C9.16724 414.265 37.3904 424.228 62.2931 432.946C80.9701 439.588 100.892 445.815 122.06 452.457C189.297 474.044 265.25 498.121 316.301 535.483C329.997 545.446 341.204 557.485 352.41 569.109C376.482 594.017 398.895 617.679 439.569 620.17C489.375 623.076 532.955 606.885 579.44 589.865C586.08 587.374 593.136 584.884 600.192 582.393C612.228 578.242 621.774 574.505 632.151 571.599C700.218 550.428 752.514 550.843 801.489 573.675C806.469 575.751 811.035 578.242 816.016 580.317C850.464 596.092 868.726 609.376 883.253 620.17C898.61 631.793 908.986 639.266 929.738 641.756C936.794 642.587 946.34 641.756 956.301 641.341C983.279 639.266 1016.48 636.775 1038.89 660.437C1060.89 683.27 1069.19 718.556 1076.66 749.275L1078.32 756.747C1082.06 771.692 1086.21 787.052 1093.68 801.167C1102.4 817.772 1112.77 829.395 1126.05 838.113C1145.56 850.982 1170.46 855.133 1194.95 859.7H1195.78C1199.93 860.53 1203.67 860.945 1206.99 861.776C1216.12 863.436 1224.42 864.681 1231.06 866.342L1232.72 866.757C1249.74 870.908 1257.62 872.984 1273.81 887.929C1275.47 889.174 1276.72 890.835 1278.38 892.08C1280.87 894.571 1283.77 897.062 1286.68 899.552C1287.09 899.968 1287.09 899.968 1287.51 900.383H1283.77C1281.28 898.307 1279.21 896.231 1277.13 894.156C1275.47 892.495 1274.23 891.25 1272.57 890.004C1256.79 875.89 1249.74 873.814 1232.72 869.663L1231.06 869.248C1224.42 867.587 1216.53 866.342 1207.4 864.681C1203.67 864.266 1199.93 863.436 1196.2 862.606H1195.37C1170.88 858.454 1145.15 853.888 1125.22 841.019C1111.53 831.886 1100.74 819.847 1092.02 802.827C1084.55 788.297 1079.98 772.523 1076.25 757.578L1074.59 750.106C1067.12 719.801 1058.82 684.93 1037.65 662.513C1016.48 640.096 983.694 642.587 957.131 644.247C947.17 645.078 937.624 645.493 930.153 644.662C908.571 642.172 898.195 634.284 882.423 622.66C867.896 611.867 850.049 598.583 815.6 582.808C810.62 580.732 806.054 578.657 801.074 576.166C752.929 553.749 701.048 553.334 633.811 574.505C623.85 577.411 613.888 581.147 602.267 585.299C595.211 587.79 588.571 590.28 581.515 592.771C535.03 610.207 491.035 626.397 440.815 623.491C399.31 621 376.483 596.922 351.995 571.599C340.789 559.976 329.582 547.937 316.301 538.389C265.25 501.442 189.712 476.95 122.475 455.778C101.307 449.136 81.3851 442.494 62.7081 436.267C38.2205 427.549 10.8274 418.001 -9.09473 401.396V396.83H-10.3398Z" fill="url(#paint21_linear_37_6385)"/>
<path d="M1769.37 855.133C1730.36 869.248 1719.57 869.663 1703.38 870.493C1697.57 870.493 1691.35 870.908 1682.63 871.739C1674.74 872.569 1666.03 874.229 1656.9 875.89C1652.33 876.72 1647.77 877.551 1643.2 878.381C1634.07 880.041 1624.52 881.287 1615.81 882.532C1590.91 886.268 1567.66 890.004 1548.16 894.571C1543.18 895.816 1538.19 897.477 1533.21 899.137H1525.74C1532.8 896.231 1539.85 893.741 1547.33 892.08C1566.83 887.098 1590.49 883.777 1615.39 879.626C1624.52 878.381 1633.65 876.72 1642.79 875.475C1647.35 874.645 1651.92 873.814 1656.48 872.984C1665.61 871.323 1674.33 869.663 1682.22 868.833C1690.93 868.002 1697.16 867.587 1702.97 867.587C1719.15 867.172 1729.95 866.757 1768.13 852.643C1818.77 833.962 1861.93 794.94 1896.38 736.406C1901.36 728.519 1905.51 720.631 1909.66 712.329V718.14C1906.34 724.783 1903.02 731.01 1899.28 737.652C1864.42 797.015 1820.84 836.453 1769.37 855.133Z" fill="url(#paint22_linear_37_6385)"/>
<path d="M-10.34 335.39C-3.69922 347.844 3.35657 359.468 14.5627 370.261C15.8079 371.091 16.6382 372.337 17.8833 373.167C37.3904 390.188 65.1984 399.32 92.1763 408.453C107.118 413.435 123.305 418.416 139.906 423.813C206.314 444.57 281.437 468.232 333.733 504.348C346.599 513.066 357.806 523.859 368.597 534.238C392.254 556.655 414.667 578.242 452.851 581.147C501.411 584.884 544.161 570.769 588.986 555.409C598.117 552.503 607.248 549.182 616.379 546.277C628.83 542.54 638.791 539.219 649.167 536.729C717.235 519.293 769.946 524.275 819.751 551.673C824.317 554.164 828.882 556.655 833.862 559.146C853.37 569.109 867.896 577.826 879.517 584.469C911.061 602.734 922.682 609.791 952.565 605.225C957.546 604.395 963.772 603.149 969.997 601.489C998.221 594.847 1036.4 586.129 1062.97 611.037C1088.7 635.114 1095.76 675.797 1101.57 709.008C1104.06 723.537 1107.38 740.557 1113.6 755.087C1121.07 772.938 1130.62 785.807 1143.07 795.355C1160.09 808.224 1183.33 814.036 1205.33 819.432L1212.38 821.093C1226.08 824.414 1238.12 827.735 1246.83 832.301C1262.6 840.189 1266.75 845.586 1278.79 860.115L1281.7 863.436C1285.02 867.587 1288.75 871.739 1293.32 876.305L1298.71 881.702C1304.11 887.098 1309.5 892.91 1315.32 898.307H1311.58C1306.6 893.325 1301.62 888.344 1296.64 883.362L1291.24 877.966C1286.68 873.399 1282.94 868.833 1279.62 864.681L1276.72 861.36C1264.68 846.831 1260.53 841.849 1245.59 834.377C1237.29 830.226 1225.25 826.905 1211.55 823.584L1204.5 821.923C1182.09 816.526 1158.84 810.715 1141 797.43C1127.71 787.467 1118.17 774.598 1110.7 756.333C1104.47 740.973 1101.15 724.367 1098.66 709.423C1092.85 677.043 1085.8 636.775 1060.89 613.112C1035.57 589.035 997.805 597.753 970.412 603.98C963.772 605.64 957.961 606.885 952.565 607.716C921.852 612.282 908.986 604.81 877.857 586.544C866.236 579.487 851.294 571.184 832.202 561.221C827.222 558.73 822.656 556.24 818.091 553.749C769.115 526.35 716.82 521.784 649.582 538.804C639.621 541.295 629.245 544.616 616.794 548.352C607.663 551.258 598.117 554.164 589.401 557.485C544.161 572.43 500.996 586.959 452.021 583.223C413.006 580.317 390.179 558.73 366.106 535.483C355.315 525.105 344.109 514.727 331.657 506.009C279.777 470.308 204.654 446.645 138.661 425.889C121.645 420.492 105.873 415.51 90.9313 410.529C65.1985 401.811 35.7302 391.848 15.8081 374.828C14.563 373.997 13.7327 372.752 12.4875 371.922C2.52649 362.374 -4.52917 351.58 -10.7549 340.787V335.39H-10.34Z" fill="url(#paint23_linear_37_6385)"/>
<path d="M1775.6 830.641C1737.83 843.095 1726.63 839.359 1714.17 835.207C1707.53 833.132 1700.89 831.056 1690.1 830.641C1678.48 830.226 1664.37 832.716 1650.26 835.622C1618.71 841.849 1583.43 851.397 1555.21 860.945C1534.04 868.418 1514.54 881.287 1493.37 894.571C1491.29 896.231 1488.8 897.477 1486.73 899.137H1481.75C1485.07 897.062 1488.8 894.571 1492.12 892.495C1513.29 878.796 1533.21 865.927 1554.38 858.454C1582.6 848.491 1618.3 838.943 1649.84 832.716C1664.37 829.811 1678.06 827.32 1690.1 827.735C1701.31 828.15 1708.78 830.226 1715 832.301C1727.46 836.453 1737.83 839.774 1774.77 827.735C1823.75 811.545 1864.42 774.598 1896.38 717.725C1901.36 709.423 1905.51 700.29 1909.66 691.572V697.799C1906.34 704.856 1902.6 712.329 1898.45 719.386C1866.5 777.089 1825.41 814.451 1775.6 830.641Z" fill="url(#paint24_linear_37_6385)"/>
<path d="M-10.34 283.084C-6.18945 287.235 -2.45398 291.387 0.866333 295.953C5.01685 301.35 9.16736 307.161 12.9027 312.143C22.8638 326.257 31.9948 339.542 47.3514 351.58C48.5966 352.411 49.4266 353.241 50.6718 354.071C69.7638 368.186 95.9119 376.073 120.815 383.961L122.06 384.376C132.436 387.697 142.812 391.018 153.603 394.339C220.84 415.095 296.794 438.343 351.58 473.629C363.616 481.516 374.822 490.649 385.198 499.782C408.856 520.123 431.269 539.219 466.962 542.54C514.278 547.107 556.197 534.653 600.607 521.369C611.813 518.048 623.019 514.727 634.641 511.406C644.602 508.5 656.638 505.594 668.259 503.103C736.327 489.404 789.453 498.121 840.088 531.332C844.654 534.238 849.219 537.144 853.785 540.05C921.437 579.902 935.549 588.205 977.468 571.184C979.543 570.354 981.619 569.524 984.109 568.278C1011.5 556.655 1057.16 537.559 1089.12 564.542C1114.85 586.544 1122.32 625.151 1126.47 663.758C1128.54 681.194 1130.2 696.969 1135.19 711.498C1141.41 730.594 1149.71 744.294 1161.75 754.672C1177.11 767.956 1198.69 774.598 1219.44 781.24C1223.18 782.486 1226.91 783.731 1230.65 784.976C1243.1 789.128 1255.96 793.694 1264.26 800.751C1274.23 808.639 1277.55 815.696 1282.53 825.244C1285.02 829.81 1287.51 835.207 1291.24 841.434C1294.56 846.831 1297.88 851.397 1301.62 855.549C1314.49 870.493 1331.09 887.929 1350.59 899.137H1345.61C1327.35 887.514 1311.99 871.324 1299.54 857.209C1295.81 853.058 1292.49 848.076 1289.17 842.68C1285.02 836.037 1282.53 831.056 1280.45 826.074C1275.89 816.941 1272.57 810.299 1263.02 802.412C1254.72 795.77 1242.27 791.203 1230.23 787.052C1226.5 785.807 1222.76 784.561 1219.02 783.316C1198.27 776.674 1176.27 770.032 1160.5 756.332C1148.05 745.539 1139.34 731.425 1133.11 711.914C1128.13 696.969 1126.47 681.194 1124.39 663.343C1120.24 625.151 1112.77 586.959 1087.87 565.788C1057.16 539.634 1012.33 558.73 985.769 569.939C983.279 570.769 981.204 572.015 979.128 572.845C935.549 590.28 921.437 581.978 852.955 541.71C848.389 538.804 843.409 535.898 838.843 532.992C789.038 500.197 736.327 491.479 669.089 505.179C657.468 507.669 645.432 510.575 635.471 513.481C623.85 516.802 612.643 520.123 601.437 523.444C557.027 536.729 515.108 549.182 466.962 544.616C430.438 541.295 407.611 521.784 383.538 501.442C373.162 492.725 362.371 483.177 350.335 475.704C295.964 440.833 220.01 417.586 153.188 396.83C142.397 393.509 131.606 390.188 121.645 386.866L120.399 386.451C95.0817 378.564 68.9338 370.261 49.4268 356.147C48.1816 355.317 47.3516 354.486 46.1064 353.656C30.7498 341.202 21.2035 327.918 11.2424 313.804C7.50708 308.407 3.77185 303.01 -0.793701 297.613C-3.69897 293.877 -6.60437 290.141 -9.92468 286.82V283.084H-10.34Z" fill="url(#paint25_linear_37_6385)"/>
<path d="M1782.24 806.148C1742.4 817.772 1732.02 809.884 1721.23 801.167C1715.42 796.6 1709.19 791.618 1697.57 789.958C1684.71 787.882 1669.35 790.788 1657.31 793.694C1630.33 799.921 1598.79 811.545 1562.68 828.15C1543.59 836.868 1525.74 850.152 1507.07 863.851C1489.63 876.72 1471.79 889.589 1452.7 899.552H1446.88C1468.05 889.174 1487.14 875.475 1505.82 861.36C1524.91 847.661 1542.76 834.377 1561.85 825.244C1597.96 808.224 1629.92 796.6 1656.9 790.788C1668.93 787.882 1684.71 784.977 1697.99 787.052C1710.02 788.713 1716.66 794.109 1722.89 798.676C1733.27 806.978 1743.23 814.451 1781.41 803.242C1839.93 786.222 1876.04 737.652 1895.96 699.875C1901.36 689.912 1905.92 679.948 1909.66 669.57V676.627C1906.34 684.93 1902.6 692.818 1898.04 701.12C1878.12 739.312 1841.59 788.713 1782.24 806.148Z" fill="url(#paint26_linear_37_6385)"/>
<path d="M-10.3397 259.421C4.60193 268.139 17.8834 277.687 29.5046 288.481C33.24 292.217 36.9756 295.953 40.7109 299.274C52.7473 311.313 63.9535 322.521 80.1403 332.9C81.3854 333.73 82.2155 334.145 83.4606 334.975C102.138 345.769 125.38 352.826 148.208 359.468L156.094 361.959C223.746 381.885 308.415 406.793 369.012 442.909C380.218 449.551 391.009 457.439 400.97 465.326C424.628 483.177 447.04 500.197 480.659 503.933C527.144 509.33 568.234 498.121 611.813 486.498C624.68 483.177 638.376 479.441 651.658 476.119C665.354 472.798 676.56 470.723 686.106 469.477C754.174 459.099 807.715 471.968 858.765 510.99C863.331 514.312 867.896 517.633 872.462 520.538C939.699 565.372 959.206 564.127 1001.54 536.313C1050.93 503.518 1087.46 497.291 1114.43 517.633C1143.9 540.05 1149.3 585.714 1150.96 618.509V618.924C1151.79 635.53 1152.62 652.135 1155.94 667.91C1160.5 687.836 1167.97 702.781 1179.6 713.989C1193.71 727.688 1214.04 735.576 1233.55 743.048C1238.53 745.124 1243.51 746.784 1248.08 748.86C1259.7 753.842 1272.98 759.653 1280.87 769.201C1288.75 778.334 1290.83 787.052 1292.9 797.015C1294.56 803.657 1296.22 811.13 1299.96 819.432C1302.45 825.244 1305.35 830.226 1309.09 834.792C1335.24 870.078 1380.48 901.628 1430.7 885.853C1464.32 875.06 1492.12 852.228 1518.69 829.81C1535.29 816.111 1551.06 802.827 1568.08 792.449C1594.64 776.674 1629.09 757.578 1662.71 748.86C1680.56 744.294 1693.84 743.463 1704.63 746.784C1717.08 750.105 1722.89 757.993 1728.29 765.88C1737.42 778.334 1746.13 789.958 1786.81 779.58C1847.4 763.39 1880.61 711.498 1895.55 681.609C1901.36 669.985 1905.92 658.362 1909.66 646.738V654.625C1906.34 664.173 1902.19 673.306 1897.62 682.854C1882.68 712.744 1848.65 765.465 1788.05 781.24C1745.72 792.034 1736.17 779.165 1726.63 766.296C1721.23 759.238 1715.83 751.766 1704.21 748.445C1693.42 745.539 1680.56 746.369 1663.54 750.521C1630.33 759.238 1595.89 778.334 1569.32 793.694C1552.31 803.657 1536.53 816.941 1519.93 830.641C1492.95 853.058 1465.15 875.89 1431.11 887.099C1379.65 903.704 1333.16 871.324 1306.6 835.207C1302.86 830.226 1299.96 824.829 1297.47 819.017C1293.73 810.299 1292.07 802.827 1290.41 795.77C1288.34 786.222 1286.26 777.919 1278.79 769.201C1270.91 760.484 1258.45 754.257 1246.83 749.69C1242.27 747.615 1237.29 745.954 1232.31 743.879C1212.38 736.406 1192.05 728.519 1177.52 714.404C1165.48 702.781 1157.6 687.836 1153.03 667.079C1149.3 651.305 1148.47 634.284 1147.64 617.679V617.264C1145.98 585.299 1141 540.05 1111.94 518.463C1086.21 498.952 1050.52 505.179 1002.37 537.144C957.546 567.033 935.134 564.542 870.387 521.369C865.821 518.463 861.256 515.142 856.69 511.821C806.055 473.214 753.344 460.76 685.691 471.138C675.73 472.798 664.939 474.874 651.243 477.78C637.546 481.101 624.265 484.422 611.398 488.158C567.819 499.782 526.314 510.99 479.414 505.594C444.965 501.442 422.553 484.422 398.48 466.571C388.519 459.099 378.143 451.212 366.937 444.57C306.34 408.453 222.086 383.961 154.433 364.034L146.547 361.544C123.72 354.901 100.062 347.844 80.9703 337.051C79.7252 336.221 78.8951 335.805 77.65 334.975C61.0482 324.597 49.4268 312.973 37.3905 300.935C33.6552 297.198 30.3347 293.877 26.5994 290.141C15.8082 279.763 3.35693 270.63 -11.1697 262.327V259.421H-10.3397Z" fill="url(#paint27_linear_37_6385)"/>
<path d="M-10.34 246.552C-4.11426 249.043 1.69641 251.534 7.50708 254.025C27.0142 262.327 43.2009 271.46 57.7275 281.008L63.1232 284.744C79.3099 295.538 93.0065 305.086 112.514 314.219C113.759 314.634 114.589 315.049 115.834 315.879C133.266 323.352 153.603 329.163 173.525 334.145L181.826 336.221C238.687 351.58 322.112 376.073 386.859 411.359C397.235 417.171 407.196 423.398 416.742 429.625C440.399 445.4 463.227 459.929 494.77 464.496C540.84 470.723 581.1 461.175 623.849 450.381C638.376 446.645 653.733 442.909 669.505 440.003C683.201 437.512 694.822 435.437 705.198 434.606C774.511 427.549 826.392 443.739 879.102 488.989C883.668 492.725 887.818 496.461 892.384 499.782C955.886 546.692 982.864 540.88 1026.44 500.197C1042.22 485.668 1097.42 440.003 1140.17 469.062C1164.65 485.667 1176.27 520.123 1175.86 571.184V574.505C1175.44 590.28 1175.44 606.886 1177.52 622.245C1180.84 643.417 1187.48 659.192 1198.69 671.231C1211.55 685.345 1231.06 694.063 1249.74 702.366C1255.55 704.856 1261.36 707.762 1266.75 710.253C1283.36 718.556 1292.9 726.028 1298.71 735.161C1305.35 745.954 1305.77 756.748 1306.6 767.956C1307.01 776.674 1307.43 785.392 1310.33 795.355C1311.99 801.167 1314.9 806.978 1318.22 812.375C1341.46 848.907 1392.93 877.966 1442.73 860.115C1478.43 847.246 1506.65 821.093 1533.63 795.355C1548.16 781.655 1561.85 768.786 1576.38 757.993C1602.53 738.482 1637.39 715.235 1671.01 705.271C1688.44 700.29 1702.55 699.875 1713.76 704.441C1726.63 709.423 1731.61 720.216 1736.17 730.179C1744.06 747.2 1751.53 762.975 1794.69 753.427C1836.2 744.294 1873.97 710.253 1895.55 662.928C1901.36 649.644 1905.92 635.114 1909.66 621V630.963C1906.34 642.172 1902.19 653.38 1897.21 664.589C1875.21 712.744 1836.61 747.2 1794.69 756.748C1749.45 766.711 1741.15 749.275 1733.27 732.255C1728.7 722.292 1724.13 712.329 1712.1 707.762C1701.31 703.611 1688.03 703.611 1671.01 708.593C1637.81 718.141 1603.36 741.388 1577.62 760.899C1563.1 771.692 1549.4 784.561 1534.87 797.846C1507.48 823.584 1479.26 850.152 1443.15 863.021C1391.68 881.702 1340.22 852.228 1315.73 814.036C1312.41 808.639 1309.5 802.827 1307.84 796.6C1304.52 786.222 1304.52 777.504 1304.11 768.786C1303.69 757.578 1303.28 747.615 1296.64 737.237C1291.24 728.519 1281.7 721.461 1265.92 713.159C1260.53 710.253 1254.72 707.762 1248.91 705.271C1230.23 696.969 1210.72 688.251 1197.03 673.721C1185.41 661.268 1178.77 645.078 1175.44 623.491C1173.37 607.716 1173.37 591.111 1173.78 575.336V572.015C1174.61 521.369 1162.99 487.743 1139.34 471.968C1098.25 444.154 1044.29 488.573 1028.93 502.688C985.769 542.54 957.131 551.258 891.554 502.273C886.988 498.952 882.423 495.215 878.272 491.479C826.392 446.645 774.926 430.455 706.444 437.512C696.068 438.758 684.446 440.418 671.165 442.909C655.808 445.815 640.451 449.551 625.925 453.287C582.76 463.666 542.501 473.629 496.016 467.402C463.642 462.835 439.984 447.476 416.742 432.116C407.196 425.889 397.235 419.662 387.274 413.85C322.942 378.564 239.932 354.071 183.071 339.126L174.77 337.051C154.848 331.654 134.096 326.257 116.664 318.37C115.419 317.955 114.589 317.54 113.344 316.709C93.8367 307.577 78.8949 297.613 63.5382 287.235L58.1426 283.499C44.031 273.951 27.8442 265.233 8.33716 256.931C2.94153 254.44 -2.45398 252.364 -8.26465 249.873V246.552H-10.34Z" fill="url(#paint28_linear_37_6385)"/>
<path d="M1890.15 385.206C1889.32 372.752 1888.49 360.298 1890.15 348.674C1895.13 312.973 1900.53 278.102 1909.66 244.892V255.27C1902.19 285.575 1897.21 317.125 1892.64 349.09C1890.98 360.713 1891.81 373.167 1892.64 384.791V385.206C1894.3 405.962 1898.04 427.964 1902.19 451.212C1904.68 466.156 1907.58 481.516 1909.66 497.291V520.123C1907.58 496.461 1903.43 473.214 1899.7 451.627C1895.55 428.38 1891.4 406.378 1890.15 385.206Z" fill="url(#paint29_linear_37_6385)"/>
<path d="M-10.34 236.174C4.18665 242.816 19.5433 248.628 34.9 254.44C52.3319 260.667 69.7639 266.894 85.5356 273.951C105.873 282.669 123.72 288.896 144.887 295.538L148.208 296.783C162.319 300.934 178.091 304.671 193.032 308.407C199.258 309.652 205.484 311.313 211.709 312.973C280.607 329.578 348.674 354.071 404.29 381.055C413.421 385.621 422.137 390.603 430.853 395.169C455.341 408.868 478.168 421.322 508.467 426.304C553.707 433.776 593.966 424.643 635.886 415.51C652.073 411.774 669.089 408.038 686.521 405.547C700.218 403.472 711.839 402.226 723.045 401.396C792.773 397.245 845.069 417.586 898.195 469.062C902.345 473.214 906.91 477.365 911.061 480.686C974.148 532.577 1008.6 515.557 1050.52 465.741C1079.57 431.285 1127.3 398.905 1165.48 422.153C1198.69 442.494 1202.84 489.819 1199.93 525.935L1199.52 532.577C1198.27 547.937 1197.44 563.712 1198.27 579.072C1199.93 601.489 1205.74 618.094 1216.53 630.963C1228.57 645.493 1247.25 655.041 1265.09 664.174C1271.32 667.495 1277.96 670.816 1284.19 674.137C1295.39 680.364 1308.67 689.496 1315.32 703.611C1321.13 716.48 1319.88 728.934 1318.64 741.803C1317.81 751.766 1316.56 762.144 1319.05 772.938C1320.3 779.165 1322.37 785.392 1325.69 791.203C1346.44 828.98 1402.47 855.964 1453.11 836.037C1490.88 821.093 1519.52 790.788 1547.33 761.314C1558.95 748.86 1570.98 736.406 1583.43 725.198C1619.96 692.402 1651.5 671.646 1677.65 663.758C1695.5 657.947 1709.61 658.362 1721.23 664.589C1734.1 671.231 1738.25 684.515 1742.4 696.969C1749.04 718.14 1755.26 738.067 1801.33 729.764C1847.4 721.046 1879.78 680.364 1894.3 645.493C1902.6 625.566 1907.17 605.64 1909.66 585.714V603.149C1906.75 617.679 1903.02 632.208 1896.79 646.323C1881.85 682.024 1849.06 723.122 1800.92 731.84C1752.77 740.557 1745.72 718.556 1739.08 697.384C1734.93 684.515 1731.19 672.476 1719.15 666.249C1707.95 660.437 1694.67 660.437 1677.65 665.834C1651.92 674.137 1620.37 694.478 1584.68 726.858C1572.23 737.652 1561.02 750.105 1548.99 762.974C1521.18 792.449 1492.12 822.753 1453.94 838.113C1402.47 858.87 1344.78 831.056 1323.62 792.034C1320.3 786.222 1318.22 779.58 1316.56 772.938C1314.49 761.729 1315.32 750.936 1316.15 740.973C1317.39 728.104 1318.64 716.065 1312.82 704.026C1307.84 693.648 1298.71 684.93 1282.94 675.797C1276.72 672.476 1270.49 669.155 1263.85 665.834C1245.59 656.701 1226.91 647.153 1214.46 631.793C1203.25 618.509 1197.44 601.489 1195.78 578.242C1194.54 562.882 1195.78 547.107 1197.03 531.332L1197.44 524.69C1199.93 489.404 1196.2 442.909 1164.24 423.398C1127.71 400.981 1081.23 432.531 1053.01 466.571C1009.84 517.217 974.563 535.068 909.816 481.931C905.25 478.195 901.1 474.459 896.534 470.308C843.823 419.247 792.358 399.32 723.46 403.472C712.669 404.302 700.633 405.547 687.351 407.623C669.92 410.529 653.318 413.85 637.131 417.586C594.796 426.719 554.537 435.852 508.467 428.379C478.168 423.398 453.681 410.114 430.023 396.83C421.307 392.263 412.591 387.282 403.46 382.715C348.259 355.317 279.777 331.239 211.294 314.634C205.069 312.973 198.843 311.728 192.617 310.067C177.676 306.746 161.904 303.01 147.792 298.444L144.472 297.198C123.305 290.556 105.458 283.914 85.1205 275.196C69.3488 268.554 51.917 262.327 34.4851 255.685C19.5435 250.289 4.18677 244.477 -9.9248 237.835V236.174H-10.34Z" fill="url(#paint30_linear_37_6385)"/>
<path d="M-10.3398 219.154C11.2426 236.589 39.0505 247.798 62.7081 254.44C80.5551 259.421 98.817 263.158 114.174 266.479C128.7 269.385 142.397 271.46 156.923 273.536C163.564 274.366 170.62 275.612 177.676 276.857L180.996 277.272C200.503 280.593 221.671 283.914 241.593 288.065C310.49 303.01 377.312 329.994 421.722 349.505C428.363 352.411 435.004 355.317 441.23 358.222C467.377 370.261 491.865 381.47 521.748 386.866C566.573 395.169 606.418 387.282 648.337 378.979C666.184 375.243 684.446 371.922 703.538 369.431C717.235 367.77 729.271 366.94 740.892 366.525C811.035 365.28 863.746 389.772 917.287 447.06C921.437 451.627 926.003 456.193 930.153 459.929C955.471 482.762 978.298 492.725 999.466 490.234C1023.95 487.328 1048.03 468.232 1074.59 429.625C1102.4 389.772 1149.3 351.165 1190.39 373.582C1229.82 395.169 1226.91 454.533 1224.01 479.025C1223.59 482.346 1223.18 485.667 1222.76 488.573C1220.68 503.518 1219.02 518.878 1219.02 533.407C1219.02 556.655 1224.01 574.09 1234.38 588.205C1245.59 603.564 1263.85 613.943 1281.28 623.491C1288.34 627.227 1295.39 631.378 1301.62 635.945C1312.82 643.417 1326.11 653.795 1331.5 669.985C1336.48 684.93 1333.58 699.044 1330.67 714.404C1328.6 725.613 1326.11 737.236 1327.35 749.275C1328.18 756.332 1329.84 762.559 1332.75 768.786C1352.67 810.715 1415.76 831.056 1462.66 810.714C1503.33 792.864 1532.38 757.993 1560.61 724.367C1569.74 713.159 1579.7 701.535 1589.25 691.157C1608.75 669.985 1646.94 633.039 1683.05 620.585C1700.89 614.358 1715.83 615.188 1727.46 622.66C1740.32 630.963 1743.64 646.323 1746.96 661.683C1752.36 687.006 1757.34 711.083 1806.31 704.441C1843.67 699.044 1877.7 668.74 1893.47 626.812C1918.38 559.976 1897.62 492.725 1879.36 432.946C1873.97 415.095 1868.57 398.49 1864.84 381.885C1861.93 370.261 1859.02 357.807 1858.19 345.769C1851.97 268.139 1862.34 207.945 1890.57 162.696C1896.38 153.563 1902.6 144.845 1909.25 136.543V140.694C1903.43 148.167 1897.62 155.639 1892.64 163.941C1864.84 208.776 1854.46 268.139 1860.68 345.353C1861.51 357.392 1864.42 369.016 1867.33 381.055C1871.48 397.66 1876.46 414.265 1881.85 432.116C1900.11 491.894 1921.28 559.976 1895.96 627.642C1879.78 670.4 1844.91 701.535 1806.73 706.932C1755.68 714.404 1749.87 687.836 1744.47 662.098C1741.15 646.738 1738.25 632.624 1726.21 624.736C1715 617.679 1701.31 616.849 1683.88 623.076C1646.94 635.945 1606.68 676.212 1591.32 692.817C1581.77 703.196 1571.81 714.819 1562.68 726.028C1534.04 760.069 1504.99 794.94 1463.9 813.205C1415.76 834.377 1351.01 813.205 1330.26 770.032C1327.35 763.805 1325.28 756.748 1324.45 749.69C1323.2 737.236 1325.69 725.613 1327.77 713.989C1330.67 699.044 1333.58 685.345 1328.6 671.231C1324.45 659.192 1315.73 649.229 1299.54 638.435C1293.32 634.284 1285.85 630.133 1279.21 626.397C1261.77 616.433 1243.51 606.055 1231.48 590.28C1220.68 575.751 1215.7 557.9 1215.7 533.823C1215.7 518.878 1217.78 503.518 1219.44 488.573C1219.85 485.252 1220.27 481.931 1220.68 479.025C1223.59 454.948 1226.5 397.245 1188.31 376.488C1148.47 354.901 1102.81 392.678 1075.83 431.701C1048.44 470.723 1023.95 490.649 998.635 493.555C976.223 496.046 952.981 486.083 927.248 462.42C923.097 458.684 918.532 454.118 914.381 449.551C861.671 392.263 809.375 368.601 740.062 369.846C728.441 369.846 716.405 371.092 702.708 372.752C683.616 375.243 665.354 378.564 647.507 382.3C605.172 390.603 565.743 398.49 520.088 390.188C490.205 384.791 464.057 372.752 438.739 361.544C432.099 358.638 425.873 355.732 419.232 352.826C374.822 333.73 308 306.331 239.517 291.386C219.595 287.235 198.843 283.499 178.921 280.593L175.601 280.178C168.545 278.933 161.489 278.102 154.848 276.857C140.322 274.781 126.21 272.706 111.683 269.8C96.3268 266.479 78.0647 262.743 60.2178 257.761C36.9752 251.119 9.5824 240.741 -12 223.72V219.154H-10.3398Z" fill="url(#paint31_linear_37_6385)"/>
<path d="M10.8275 6.6071C6.26196 -5.43168 -1.6239 -16.225 -10.3398 -25.773V-29.9243C-0.378784 -19.5461 8.33716 -7.92244 13.3177 5.36173C24.5239 34.836 16.223 66.801 7.92212 97.5206C0.0362549 126.58 -7.84961 156.884 0.866333 184.698C12.9027 224.551 53.9922 246.137 88.856 253.61C89.271 253.61 89.6862 254.025 90.5162 254.025C117.909 259.421 146.962 258.591 174.77 258.176C186.392 257.761 198.428 257.346 210.464 257.761C283.927 258.591 347.844 283.084 409.686 306.746C449.946 322.106 491.865 338.296 536.275 347.844C536.69 347.844 537.105 347.844 537.52 348.259C581.515 357.392 620.529 350.335 662.034 342.863C681.126 339.542 701.048 335.805 721.385 334.145C812.28 325.842 874.952 352.411 937.209 426.719C963.357 457.854 989.089 472.798 1013.99 470.723C1043.05 468.232 1071.27 443.739 1099.91 395.169C1126.47 350.335 1172.95 305.501 1216.53 327.088C1260.53 348.674 1252.64 414.265 1249.32 433.776C1248.49 437.512 1248.08 441.664 1247.25 445.4C1240.61 481.516 1233.55 518.878 1253.06 547.937C1263.85 563.712 1281.28 574.921 1297.88 585.299C1320.71 599.828 1342.29 613.528 1348.93 638.435C1353.08 655.456 1348.52 672.476 1343.95 689.081C1340.63 701.535 1336.9 714.82 1337.31 727.273C1337.73 749.275 1349.76 768.371 1370.93 781.24C1400.81 799.506 1443.56 801.997 1474.69 787.052C1518.27 766.296 1547.74 726.028 1576.79 686.591C1583.85 677.458 1590.91 667.495 1597.96 658.362C1606.26 647.984 1672.67 564.957 1721.23 575.336C1726.63 576.581 1731.61 578.657 1736.59 582.393C1749.87 592.356 1752.36 610.207 1754.43 627.642C1758.58 657.531 1762.32 685.345 1813.78 680.364C1848.65 676.627 1880.61 647.983 1893.47 608.961C1915.06 542.54 1886 479.025 1857.78 417.586C1851.97 404.717 1845.74 391.848 1840.35 378.979C1819.6 329.579 1791.79 235.759 1838.27 164.357C1852.38 142.77 1871.48 125.75 1890.57 109.144C1896.79 103.748 1903.02 97.9358 1909.25 92.1239V95.8601C1903.43 101.257 1898.04 106.238 1892.23 111.22C1873.55 127.825 1854.46 144.846 1840.35 166.017C1794.69 236.174 1822.09 329.163 1842.42 378.149C1847.82 391.018 1853.63 403.472 1859.44 416.756C1888.91 478.61 1917.96 542.125 1895.96 609.791C1882.68 650.059 1849.89 679.118 1813.37 682.854C1759.41 688.251 1754.85 657.531 1751.11 627.642C1748.62 610.207 1746.55 593.601 1734.1 584.469C1696.33 556.24 1631.58 618.509 1599.21 660.022C1592.15 669.155 1585.09 678.703 1578.04 688.251C1548.99 727.688 1519.1 768.371 1475.11 789.128C1443.15 804.488 1399.57 801.997 1368.86 783.316C1346.86 770.032 1334.82 750.106 1333.99 727.273C1333.58 713.989 1337.31 700.705 1340.63 688.251C1345.2 671.231 1349.76 655.456 1345.61 639.266C1339.39 615.188 1318.22 601.904 1295.81 587.79C1278.79 576.996 1260.94 565.788 1250.15 549.598C1230.23 519.708 1236.87 481.516 1243.93 444.985C1244.76 441.249 1245.17 437.097 1246 433.361C1249.32 414.265 1257.21 350.335 1214.87 329.578C1172.54 308.822 1127.3 352.826 1101.57 396.83C1072.51 446.23 1043.88 471.138 1013.58 473.629C987.844 475.704 961.281 460.76 934.719 428.795C872.462 354.486 812.695 328.748 721.385 337.466C701.048 339.542 681.126 342.863 662.034 346.184C620.529 353.656 581.1 360.713 536.69 351.58C536.275 351.58 535.86 351.58 535.445 351.165C490.62 341.617 448.7 325.427 408.441 310.067C347.014 286.405 283.097 261.912 210.464 261.082C198.428 261.082 186.392 261.082 174.77 261.497C146.962 262.327 117.909 263.158 90.1012 257.346C54.4073 250.289 11.2426 227.872 -1.6239 186.359C-10.3398 157.715 -2.45398 126.995 5.43188 97.5206C13.3177 66.801 21.6187 35.2511 10.8275 6.6071Z" fill="url(#paint32_linear_37_6385)"/>
<path d="M-10.3398 545.446C4.18677 550.428 19.1284 555.409 34.4851 560.391C109.608 585.299 194.693 613.113 246.988 658.362C262.76 672.061 275.211 689.912 287.663 706.932C312.151 741.803 335.393 774.598 384.783 773.768C442.89 772.938 495.186 742.633 546.236 713.159L558.272 706.102C612.643 674.967 676.145 644.662 738.817 657.947H739.232C791.528 669.155 799.829 698.629 808.96 729.349C813.94 747.2 819.336 765.465 833.032 782.07C845.069 796.185 863.746 803.657 881.593 810.714C903.175 819.432 925.588 828.15 938.039 849.322C946.755 864.266 953.811 880.456 960.866 896.647C961.281 897.477 961.696 898.307 962.112 899.552H956.301C956.301 899.552 956.301 899.137 955.886 899.137C949.245 883.362 942.189 867.172 933.473 852.643C922.267 833.132 901.515 824.829 879.932 816.111C861.255 808.639 842.163 801.166 829.297 785.807C814.77 768.786 809.375 749.69 803.979 731.425C795.263 700.705 787.792 674.137 738.402 663.758C677.39 650.889 614.719 680.364 561.178 711.498L549.141 718.556C497.676 748.445 444.55 779.165 385.198 779.995C332.903 780.41 308 745.124 283.512 710.668C271.476 693.648 259.44 676.627 244.083 662.928C192.617 618.509 108.363 590.695 33.6549 565.788C18.7133 560.806 4.60181 556.24 -9.50977 551.258V545.446H-10.3398Z" fill="url(#paint33_linear_37_6385)"/>
<path d="M1824.58 899.137H1816.69C1855.7 866.342 1885.59 829.395 1909.66 790.373V799.506C1886.83 834.792 1859.44 868.833 1824.58 899.137Z" fill="url(#paint34_linear_37_6385)"/>
<path d="M9.58228 7.02222C5.01672 -4.60143 -2.03906 -14.5646 -10.34 -24.1125V-32C0.0361328 -21.2066 9.16711 -9.16786 14.5627 4.94658C25.7689 34.836 17.4681 67.2161 9.16724 97.9358C1.69641 126.995 -6.18945 156.884 2.11145 184.698C14.1478 224.551 56.0674 246.137 90.5161 253.195C117.909 258.591 146.547 257.761 174.355 257.346C185.976 256.931 198.013 256.516 210.049 256.931C283.512 257.761 347.844 282.254 409.686 305.916C449.945 321.276 491.865 337.466 536.275 347.014C580.27 356.562 620.114 349.505 661.619 342.032C680.711 338.711 700.633 334.975 721.385 332.9C813.11 324.597 875.782 351.165 938.039 425.889C963.772 456.608 989.505 471.553 1013.58 469.477C1041.8 466.987 1070.44 441.664 1098.25 394.339C1124.81 349.09 1172.12 303.84 1216.53 325.427C1261.36 347.429 1253.47 413.85 1249.74 433.776C1248.91 437.512 1248.49 441.664 1247.66 445.4C1241.02 481.101 1234.38 518.463 1253.47 547.107C1263.85 562.882 1281.28 573.675 1297.88 584.053C1319.88 598.168 1343.12 612.282 1349.35 638.02C1353.5 655.041 1348.93 672.476 1344.37 689.081C1341.05 701.535 1337.31 714.404 1337.73 727.273C1338.14 748.86 1349.76 767.541 1370.52 779.995C1399.98 798.261 1442.32 800.336 1473.03 785.807C1516.2 765.05 1545.67 724.783 1574.3 685.76C1581.36 676.212 1588.42 666.664 1595.47 657.531C1603.77 647.153 1670.59 563.712 1719.98 574.09C1725.38 575.336 1730.78 577.411 1735.76 581.147C1749.45 591.111 1751.94 609.376 1754.02 627.227C1758.17 656.286 1761.9 683.685 1812.12 678.703C1846.99 675.382 1878.53 647.153 1891.4 608.546C1912.98 542.54 1883.93 479.441 1856.12 418.416C1850.31 405.547 1844.08 392.263 1838.69 379.809C1817.94 329.994 1790.13 235.759 1836.61 163.941C1850.72 142.355 1870.23 125.334 1888.91 108.314C1895.55 102.502 1902.19 96.6904 1908.42 90.4634V97.5206C1903.02 102.502 1897.62 107.484 1892.23 112.05C1873.55 128.655 1854.46 145.676 1840.76 166.432C1795.11 236.174 1822.5 328.333 1843.25 377.318C1848.65 390.188 1854.46 402.641 1860.27 415.926C1890.15 478.195 1919.62 542.125 1897.21 610.207C1883.93 650.889 1850.31 680.364 1813.78 684.1C1758.17 689.496 1754.02 656.701 1749.87 628.057C1747.38 610.622 1745.3 594.432 1733.68 585.714C1696.74 557.9 1632.41 620.17 1600.45 661.268C1593.4 670.4 1586.34 679.949 1579.28 689.497C1550.23 728.934 1520.35 769.617 1475.94 790.788C1443.56 806.148 1399.57 803.657 1368.44 784.977C1346.03 771.277 1333.58 750.936 1333.16 727.688C1332.75 714.404 1336.48 701.12 1340.22 688.251C1344.78 671.646 1349.35 655.456 1345.2 639.681C1339.39 616.018 1318.22 602.734 1296.22 589.035C1279.21 578.242 1261.36 567.033 1250.15 550.428C1229.82 520.123 1236.87 481.931 1243.51 444.985C1244.34 441.249 1244.76 437.097 1245.59 433.361C1248.91 414.265 1256.38 351.165 1214.87 330.824C1173.37 310.482 1128.96 354.071 1103.23 397.66C1073.76 447.476 1044.71 472.798 1014.41 475.289C988.259 477.365 961.281 462.005 934.303 430.04C872.462 356.147 812.695 330.409 721.8 339.126C701.463 341.202 681.541 344.523 662.449 347.844C620.529 355.317 580.685 362.374 535.03 352.826C490.205 343.278 448.285 327.088 407.611 311.728C343.279 287.235 282.682 263.988 210.049 262.743C198.428 262.743 185.976 262.742 174.355 263.158C146.132 263.988 117.494 264.818 89.271 259.006C52.7469 251.949 9.58228 229.117 -3.28418 187.189C-12.0001 158.13 -4.11426 127.41 3.77161 97.5206C12.0725 65.1405 19.9584 35.2511 9.58228 7.02222Z" fill="url(#paint35_linear_37_6385)"/>
<defs>
<linearGradient id="paint0_linear_37_6385" x1="948.66" y1="781.137" x2="948.83" y2="900.383" gradientUnits="userSpaceOnUse">
<stop stop-color="#F6F6F6"/>
<stop offset="1" stop-color="white"/>
</linearGradient>
<linearGradient id="paint1_linear_37_6385" x1="948.66" y1="781.137" x2="948.83" y2="900.383" gradientUnits="userSpaceOnUse">
<stop stop-color="#F6F6F6"/>
<stop offset="1" stop-color="white"/>
</linearGradient>
<linearGradient id="paint2_linear_37_6385" x1="948.66" y1="781.137" x2="948.83" y2="900.383" gradientUnits="userSpaceOnUse">
<stop stop-color="#F6F6F6"/>
<stop offset="1" stop-color="white"/>
</linearGradient>
<linearGradient id="paint3_linear_37_6385" x1="948.66" y1="781.137" x2="948.83" y2="900.383" gradientUnits="userSpaceOnUse">
<stop stop-color="#F6F6F6"/>
<stop offset="1" stop-color="white"/>
</linearGradient>
<linearGradient id="paint4_linear_37_6385" x1="948.66" y1="781.137" x2="948.83" y2="900.383" gradientUnits="userSpaceOnUse">
<stop stop-color="#F6F6F6"/>
<stop offset="1" stop-color="white"/>
</linearGradient>
<linearGradient id="paint5_linear_37_6385" x1="948.66" y1="781.137" x2="948.83" y2="900.383" gradientUnits="userSpaceOnUse">
<stop stop-color="#F6F6F6"/>
<stop offset="1" stop-color="white"/>
</linearGradient>
<linearGradient id="paint6_linear_37_6385" x1="948.66" y1="781.137" x2="948.83" y2="900.383" gradientUnits="userSpaceOnUse">
<stop stop-color="#F6F6F6"/>
<stop offset="1" stop-color="white"/>
</linearGradient>
<linearGradient id="paint7_linear_37_6385" x1="948.66" y1="781.137" x2="948.83" y2="900.383" gradientUnits="userSpaceOnUse">
<stop stop-color="#F6F6F6"/>
<stop offset="1" stop-color="white"/>
</linearGradient>
<linearGradient id="paint8_linear_37_6385" x1="948.66" y1="781.137" x2="948.83" y2="900.383" gradientUnits="userSpaceOnUse">
<stop stop-color="#F6F6F6"/>
<stop offset="1" stop-color="white"/>
</linearGradient>
<linearGradient id="paint9_linear_37_6385" x1="948.66" y1="781.137" x2="948.83" y2="900.383" gradientUnits="userSpaceOnUse">
<stop stop-color="#F6F6F6"/>
<stop offset="1" stop-color="white"/>
</linearGradient>
<linearGradient id="paint10_linear_37_6385" x1="948.66" y1="781.137" x2="948.83" y2="900.383" gradientUnits="userSpaceOnUse">
<stop stop-color="#F6F6F6"/>
<stop offset="1" stop-color="white"/>
</linearGradient>
<linearGradient id="paint11_linear_37_6385" x1="948.66" y1="781.137" x2="948.83" y2="900.383" gradientUnits="userSpaceOnUse">
<stop stop-color="#F6F6F6"/>
<stop offset="1" stop-color="white"/>
</linearGradient>
<linearGradient id="paint12_linear_37_6385" x1="948.66" y1="781.137" x2="948.83" y2="900.383" gradientUnits="userSpaceOnUse">
<stop stop-color="#F6F6F6"/>
<stop offset="1" stop-color="white"/>
</linearGradient>
<linearGradient id="paint13_linear_37_6385" x1="948.66" y1="781.137" x2="948.83" y2="900.383" gradientUnits="userSpaceOnUse">
<stop stop-color="#F6F6F6"/>
<stop offset="1" stop-color="white"/>
</linearGradient>
<linearGradient id="paint14_linear_37_6385" x1="948.66" y1="781.137" x2="948.83" y2="900.383" gradientUnits="userSpaceOnUse">
<stop stop-color="#F6F6F6"/>
<stop offset="1" stop-color="white"/>
</linearGradient>
<linearGradient id="paint15_linear_37_6385" x1="948.66" y1="781.137" x2="948.83" y2="900.383" gradientUnits="userSpaceOnUse">
<stop stop-color="#F6F6F6"/>
<stop offset="1" stop-color="white"/>
</linearGradient>
<linearGradient id="paint16_linear_37_6385" x1="948.66" y1="781.137" x2="948.83" y2="900.383" gradientUnits="userSpaceOnUse">
<stop stop-color="#F6F6F6"/>
<stop offset="1" stop-color="white"/>
</linearGradient>
<linearGradient id="paint17_linear_37_6385" x1="948.66" y1="781.137" x2="948.83" y2="900.383" gradientUnits="userSpaceOnUse">
<stop stop-color="#F6F6F6"/>
<stop offset="1" stop-color="white"/>
</linearGradient>
<linearGradient id="paint18_linear_37_6385" x1="948.66" y1="781.137" x2="948.83" y2="900.383" gradientUnits="userSpaceOnUse">
<stop stop-color="#F6F6F6"/>
<stop offset="1" stop-color="white"/>
</linearGradient>
<linearGradient id="paint19_linear_37_6385" x1="948.66" y1="781.137" x2="948.83" y2="900.383" gradientUnits="userSpaceOnUse">
<stop stop-color="#F6F6F6"/>
<stop offset="1" stop-color="white"/>
</linearGradient>
<linearGradient id="paint20_linear_37_6385" x1="948.66" y1="781.137" x2="948.83" y2="900.383" gradientUnits="userSpaceOnUse">
<stop stop-color="#F6F6F6"/>
<stop offset="1" stop-color="white"/>
</linearGradient>
<linearGradient id="paint21_linear_37_6385" x1="948.66" y1="781.137" x2="948.83" y2="900.383" gradientUnits="userSpaceOnUse">
<stop stop-color="#F6F6F6"/>
<stop offset="1" stop-color="white"/>
</linearGradient>
<linearGradient id="paint22_linear_37_6385" x1="948.66" y1="781.137" x2="948.83" y2="900.383" gradientUnits="userSpaceOnUse">
<stop stop-color="#F6F6F6"/>
<stop offset="1" stop-color="white"/>
</linearGradient>
<linearGradient id="paint23_linear_37_6385" x1="948.66" y1="781.137" x2="948.83" y2="900.383" gradientUnits="userSpaceOnUse">
<stop stop-color="#F6F6F6"/>
<stop offset="1" stop-color="white"/>
</linearGradient>
<linearGradient id="paint24_linear_37_6385" x1="948.66" y1="781.137" x2="948.83" y2="900.383" gradientUnits="userSpaceOnUse">
<stop stop-color="#F6F6F6"/>
<stop offset="1" stop-color="white"/>
</linearGradient>
<linearGradient id="paint25_linear_37_6385" x1="948.66" y1="781.137" x2="948.83" y2="900.383" gradientUnits="userSpaceOnUse">
<stop stop-color="#F6F6F6"/>
<stop offset="1" stop-color="white"/>
</linearGradient>
<linearGradient id="paint26_linear_37_6385" x1="948.66" y1="781.137" x2="948.83" y2="900.383" gradientUnits="userSpaceOnUse">
<stop stop-color="#F6F6F6"/>
<stop offset="1" stop-color="white"/>
</linearGradient>
<linearGradient id="paint27_linear_37_6385" x1="948.66" y1="781.137" x2="948.83" y2="900.383" gradientUnits="userSpaceOnUse">
<stop stop-color="#F6F6F6"/>
<stop offset="1" stop-color="white"/>
</linearGradient>
<linearGradient id="paint28_linear_37_6385" x1="948.66" y1="781.137" x2="948.83" y2="900.383" gradientUnits="userSpaceOnUse">
<stop stop-color="#F6F6F6"/>
<stop offset="1" stop-color="white"/>
</linearGradient>
<linearGradient id="paint29_linear_37_6385" x1="948.66" y1="781.137" x2="948.83" y2="900.383" gradientUnits="userSpaceOnUse">
<stop stop-color="#F6F6F6"/>
<stop offset="1" stop-color="white"/>
</linearGradient>
<linearGradient id="paint30_linear_37_6385" x1="948.66" y1="781.137" x2="948.83" y2="900.383" gradientUnits="userSpaceOnUse">
<stop stop-color="#F6F6F6"/>
<stop offset="1" stop-color="white"/>
</linearGradient>
<linearGradient id="paint31_linear_37_6385" x1="948.66" y1="781.137" x2="948.83" y2="900.383" gradientUnits="userSpaceOnUse">
<stop stop-color="#F6F6F6"/>
<stop offset="1" stop-color="white"/>
</linearGradient>
<linearGradient id="paint32_linear_37_6385" x1="948.66" y1="781.137" x2="948.83" y2="900.383" gradientUnits="userSpaceOnUse">
<stop stop-color="#F6F6F6"/>
<stop offset="1" stop-color="white"/>
</linearGradient>
<linearGradient id="paint33_linear_37_6385" x1="948.66" y1="781.137" x2="948.83" y2="900.383" gradientUnits="userSpaceOnUse">
<stop stop-color="#F6F6F6"/>
<stop offset="1" stop-color="white"/>
</linearGradient>
<linearGradient id="paint34_linear_37_6385" x1="948.66" y1="781.137" x2="948.83" y2="900.383" gradientUnits="userSpaceOnUse">
<stop stop-color="#F6F6F6"/>
<stop offset="1" stop-color="white"/>
</linearGradient>
<linearGradient id="paint35_linear_37_6385" x1="948.66" y1="781.137" x2="948.83" y2="900.383" gradientUnits="userSpaceOnUse">
<stop stop-color="#F6F6F6"/>
<stop offset="1" stop-color="white"/>
</linearGradient>
</defs>
</svg>
