<svg width="426" height="614" viewBox="0 0 426 614" fill="none" xmlns="http://www.w3.org/2000/svg">
<g opacity="0.4">
<path d="M332.686 432.338L426 320.677L266.01 91.2202V480.461L230.158 524.596V35.8883L218.412 11.9993L213 0.879272L207.549 12.0377L195.88 35.8883V524.634L159.99 480.461V91.2202L0 320.677L93.3144 432.338L91.2804 378.041L41.0337 312.471L125.098 198.778V496.873L212.693 612.828V613.633L213 613.25L213.307 613.633V612.828L300.902 496.873V198.778L384.966 312.471L334.72 378.041L332.686 432.338Z" fill="url(#paint0_linear_93_242)" style=""/>
<path d="M92.4686 437.207V406.531L86.4036 406.148V437.207C86.4036 515.278 57.96 550.786 18.3848 570.035H160.41C120.912 550.786 92.4686 515.278 92.4686 437.207Z" fill="url(#paint1_linear_93_242)" style=""/>
<path d="M340.093 438.512V407.836L333.989 407.452V438.512C333.989 516.582 305.584 552.09 266.009 571.339H408.034C368.536 552.09 340.093 516.582 340.093 438.512Z" fill="url(#paint2_linear_93_242)" style=""/>
</g>
<defs>
<linearGradient id="paint0_linear_93_242" x1="-3.90332e-07" y1="613.633" x2="438.897" y2="604.252" gradientUnits="userSpaceOnUse">
<stop stop-color="#CFCFCF" style="stop-color:#CFCFCF;stop-color:color(display-p3 0.8117 0.8117 0.8117);stop-opacity:1;"/>
<stop offset="1" stop-color="#928C89" style="stop-color:#928C89;stop-color:color(display-p3 0.5722 0.5495 0.5392);stop-opacity:1;"/>
</linearGradient>
<linearGradient id="paint1_linear_93_242" x1="1541.9" y1="-610.072" x2="-2353.71" y2="2412.22" gradientUnits="userSpaceOnUse">
<stop stop-color="#E8DBB7" style="stop-color:#E8DBB7;stop-color:color(display-p3 0.9098 0.8588 0.7176);stop-opacity:1;"/>
<stop offset="0.23" stop-color="#DEBE89" style="stop-color:#DEBE89;stop-color:color(display-p3 0.8706 0.7451 0.5373);stop-opacity:1;"/>
<stop offset="0.31" stop-color="#CAA975" style="stop-color:#CAA975;stop-color:color(display-p3 0.7922 0.6627 0.4588);stop-opacity:1;"/>
<stop offset="0.48" stop-color="#977342" style="stop-color:#977342;stop-color:color(display-p3 0.5922 0.4510 0.2588);stop-opacity:1;"/>
<stop offset="0.57" stop-color="#755020" style="stop-color:#755020;stop-color:color(display-p3 0.4588 0.3137 0.1255);stop-opacity:1;"/>
<stop offset="0.61" stop-color="#6C491E" style="stop-color:#6C491E;stop-color:color(display-p3 0.4235 0.2863 0.1176);stop-opacity:1;"/>
<stop offset="0.74" stop-color="#55361A" style="stop-color:#55361A;stop-color:color(display-p3 0.3333 0.2118 0.1020);stop-opacity:1;"/>
<stop offset="0.82" stop-color="#4C2F19" style="stop-color:#4C2F19;stop-color:color(display-p3 0.2980 0.1843 0.0980);stop-opacity:1;"/>
<stop offset="1" stop-color="#342217" style="stop-color:#342217;stop-color:color(display-p3 0.2039 0.1333 0.0902);stop-opacity:1;"/>
</linearGradient>
<linearGradient id="paint2_linear_93_242" x1="266.009" y1="571.339" x2="412.297" y2="567.441" gradientUnits="userSpaceOnUse">
<stop stop-color="#CFCFCF" style="stop-color:#CFCFCF;stop-color:color(display-p3 0.8117 0.8117 0.8117);stop-opacity:1;"/>
<stop offset="1" stop-color="#928C89" style="stop-color:#928C89;stop-color:color(display-p3 0.5722 0.5495 0.5392);stop-opacity:1;"/>
</linearGradient>
</defs>
</svg>
