<svg width="128" height="205" viewBox="0 0 128 205" fill="none" xmlns="http://www.w3.org/2000/svg">
<g opacity="0.2">
<g opacity="0.4">
<path d="M99.9619 140.159L128 106.743L79.928 38.0732V154.561L69.1555 167.77V21.514L65.6263 14.3648L64 11.0369L62.3622 14.3762L58.8561 21.514V167.781L48.0722 154.561V38.0732L0 106.743L28.0381 140.159L27.427 123.91L12.3294 104.287L37.588 70.2621V159.473L63.9078 194.175V194.416L64 194.301L64.0922 194.416V194.175L90.412 159.473V70.2621L115.671 104.287L100.573 123.91L99.9619 140.159Z" fill="#868686" style="fill:#868686;fill:color(display-p3 0.5271 0.5271 0.5271);fill-opacity:1;"/>
<path d="M27.7843 141.617V132.437L25.962 132.322V141.617C25.962 164.981 17.4156 175.607 5.52441 181.368H48.1988C36.3307 175.607 27.7843 164.981 27.7843 141.617Z" fill="#868686" style="fill:#868686;fill:color(display-p3 0.5271 0.5271 0.5271);fill-opacity:1;"/>
<path d="M102.188 142.007V132.827L100.354 132.712V142.007C100.354 165.371 91.8189 175.998 79.9277 181.758H122.602C110.734 175.998 102.188 165.371 102.188 142.007Z" fill="#868686" style="fill:#868686;fill:color(display-p3 0.5271 0.5271 0.5271);fill-opacity:1;"/>
</g>
</g>
</svg>
