<svg width="88" height="126" viewBox="0 0 88 126" fill="none" xmlns="http://www.w3.org/2000/svg">
<path d="M68.4161 88.1813L87.6061 65.3601L54.7045 18.4638V98.0167L47.3316 107.037V7.15513L44.9161 2.27271L43.803 0L42.6821 2.28055L40.2824 7.15513V107.045L32.9017 98.0167V18.4638L0 65.3601L19.1899 88.1813L18.7716 77.0842L8.43849 63.683L25.7261 40.4465V101.371L43.7399 125.07V125.234L43.803 125.156L43.8661 125.234V125.07L61.88 101.371V40.4465L79.1676 63.683L68.8344 77.0842L68.4161 88.1813Z" fill="#ACA8A7" style="fill:#ACA8A7;fill:color(display-p3 0.6745 0.6588 0.6549);fill-opacity:1;"/>
<path d="M19.0164 89.177V82.9075L17.7692 82.8291V89.177C17.7692 105.133 11.9198 112.39 3.78125 116.324H32.9885C24.8658 112.39 19.0164 105.133 19.0164 89.177Z" fill="#ACA8A7" style="fill:#ACA8A7;fill:color(display-p3 0.6745 0.6588 0.6549);fill-opacity:1;"/>
<path d="M69.9393 89.4431V83.1736L68.6841 83.0952V89.4431C68.6841 105.399 62.8427 112.656 54.7041 116.59H83.9114C75.7886 112.656 69.9393 105.399 69.9393 89.4431Z" fill="#ACA8A7" style="fill:#ACA8A7;fill:color(display-p3 0.6745 0.6588 0.6549);fill-opacity:1;"/>
</svg>
