<svg width="32" height="32" viewBox="0 0 32 32" fill="none" xmlns="http://www.w3.org/2000/svg">
<path opacity="0.5" d="M29.3346 16C29.3346 22.2853 29.3346 25.428 27.3813 27.38C25.4306 29.3333 22.2866 29.3333 16.0013 29.3333C9.71597 29.3333 6.5733 29.3333 4.61997 27.38C2.66797 25.4293 2.66797 22.2853 2.66797 16C2.66797 9.71463 2.66797 6.57196 4.61997 4.61863C6.57464 2.66663 9.71597 2.66663 16.0013 2.66663C22.2866 2.66663 25.4293 2.66663 27.3813 4.61863C29.3346 6.57329 29.3346 9.71463 29.3346 16Z" fill="#E81010"/>
<path d="M9.33203 22.3333C9.06681 22.3333 8.81246 22.4386 8.62492 22.6262C8.43739 22.8137 8.33203 23.0681 8.33203 23.3333C8.33203 23.5985 8.43739 23.8529 8.62492 24.0404C8.81246 24.2279 9.06681 24.3333 9.33203 24.3333H17.332C17.5972 24.3333 17.8516 24.2279 18.0391 24.0404C18.2267 23.8529 18.332 23.5985 18.332 23.3333C18.332 23.0681 18.2267 22.8137 18.0391 22.6262C17.8516 22.4386 17.5972 22.3333 17.332 22.3333H9.33203ZM9.33203 17.6666C9.06681 17.6666 8.81246 17.772 8.62492 17.9595C8.43739 18.1471 8.33203 18.4014 8.33203 18.6666C8.33203 18.9318 8.43739 19.1862 8.62492 19.3737C8.81246 19.5613 9.06681 19.6666 9.33203 19.6666H21.332C21.5972 19.6666 21.8516 19.5613 22.0391 19.3737C22.2267 19.1862 22.332 18.9318 22.332 18.6666C22.332 18.4014 22.2267 18.1471 22.0391 17.9595C21.8516 17.772 21.5972 17.6666 21.332 17.6666H9.33203ZM29.332 6.66663C29.332 7.72749 28.9106 8.74491 28.1605 9.49505C27.4103 10.2452 26.3929 10.6666 25.332 10.6666C24.2712 10.6666 23.2537 10.2452 22.5036 9.49505C21.7535 8.74491 21.332 7.72749 21.332 6.66663C21.332 5.60576 21.7535 4.58834 22.5036 3.8382C23.2537 3.08805 24.2712 2.66663 25.332 2.66663C26.3929 2.66663 27.4103 3.08805 28.1605 3.8382C28.9106 4.58834 29.332 5.60576 29.332 6.66663Z" fill="#E81010"/>
</svg>
