<svg width="25" height="25" viewBox="0 0 25 25" fill="none" xmlns="http://www.w3.org/2000/svg">
<path d="M12.5038 2.46615C15.7513 2.46615 16.1941 2.46615 17.5227 2.46615C18.7036 2.46615 19.294 2.76138 19.7369 2.90899C20.3273 3.20422 20.7702 3.35184 21.213 3.79468C21.6558 4.23752 21.9511 4.68036 22.0987 5.27081C22.2463 5.71365 22.3939 6.3041 22.5415 7.48501C22.5415 8.81353 22.5415 9.10876 22.5415 12.5039C22.5415 15.899 22.5415 16.1942 22.5415 17.5227C22.5415 18.7036 22.2463 19.2941 22.0987 19.7369C21.8034 20.3274 21.6558 20.7702 21.213 21.2131C20.7702 21.6559 20.3273 21.9511 19.7369 22.0987C19.294 22.2463 18.7036 22.394 17.5227 22.5416C16.1941 22.5416 15.8989 22.5416 12.5038 22.5416C9.1087 22.5416 8.81347 22.5416 7.48495 22.5416C6.30404 22.5416 5.71359 22.2463 5.27075 22.0987C4.68029 21.8035 4.23745 21.6559 3.79461 21.2131C3.35177 20.7702 3.05655 20.3274 2.90893 19.7369C2.76132 19.2941 2.61371 18.7036 2.46609 17.5227C2.46609 16.1942 2.46609 15.899 2.46609 12.5039C2.46609 9.10876 2.46609 8.81353 2.46609 7.48501C2.46609 6.3041 2.76132 5.71365 2.90893 5.27081C3.20416 4.68036 3.35177 4.23752 3.79461 3.79468C4.23745 3.35184 4.68029 3.05661 5.27075 2.90899C5.71359 2.76138 6.30404 2.61377 7.48495 2.46615C8.81347 2.46615 9.25631 2.46615 12.5038 2.46615ZM12.5038 0.251953C9.1087 0.251953 8.81347 0.251953 7.48495 0.251953C6.15643 0.251953 5.27075 0.547181 4.53268 0.842407C3.79461 1.13763 3.05655 1.58047 2.31848 2.31854C1.58041 3.05661 1.28519 3.64706 0.842346 4.53274C0.54712 5.27081 0.399505 6.15649 0.251892 7.48501C0.251892 8.81353 0.251892 9.25637 0.251892 12.5039C0.251892 15.899 0.251892 16.1942 0.251892 17.5227C0.251892 18.8512 0.54712 19.7369 0.842346 20.475C1.13757 21.2131 1.58041 21.9511 2.31848 22.6892C3.05655 23.4273 3.647 23.7225 4.53268 24.1653C5.27075 24.4606 6.15643 24.6082 7.48495 24.7558C8.81347 24.7558 9.25631 24.7558 12.5038 24.7558C15.7513 24.7558 16.1941 24.7558 17.5227 24.7558C18.8512 24.7558 19.7369 24.4606 20.4749 24.1653C21.213 23.8701 21.9511 23.4273 22.6891 22.6892C23.4272 21.9511 23.7224 21.3607 24.1653 20.475C24.4605 19.7369 24.6081 18.8512 24.7557 17.5227C24.7557 16.1942 24.7557 15.7514 24.7557 12.5039C24.7557 9.25637 24.7557 8.81353 24.7557 7.48501C24.7557 6.15649 24.4605 5.27081 24.1653 4.53274C23.87 3.79468 23.4272 3.05661 22.6891 2.31854C21.9511 1.58047 21.3606 1.28525 20.4749 0.842407C19.7369 0.547181 18.8512 0.399567 17.5227 0.251953C16.1941 0.251953 15.8989 0.251953 12.5038 0.251953Z" fill="url(#paint0_linear_2038_74)" style=""/>
<path d="M12.5038 6.15649C8.96108 6.15649 6.15643 8.96114 6.15643 12.5039C6.15643 16.0466 8.96108 18.8512 12.5038 18.8512C16.0465 18.8512 18.8512 16.0466 18.8512 12.5039C18.8512 8.96114 16.0465 6.15649 12.5038 6.15649ZM12.5038 16.637C10.2896 16.637 8.37063 14.8657 8.37063 12.5039C8.37063 10.2897 10.142 8.37069 12.5038 8.37069C14.718 8.37069 16.637 10.1421 16.637 12.5039C16.637 14.7181 14.718 16.637 12.5038 16.637Z" fill="url(#paint1_linear_2038_74)" style=""/>
<path d="M18.9988 7.48501C19.814 7.48501 20.4749 6.82412 20.4749 6.00888C20.4749 5.19363 19.814 4.53274 18.9988 4.53274C18.1835 4.53274 17.5227 5.19363 17.5227 6.00888C17.5227 6.82412 18.1835 7.48501 18.9988 7.48501Z" fill="url(#paint2_linear_2038_74)" style=""/>
<defs>
<linearGradient id="paint0_linear_2038_74" x1="0.251892" y1="24.7558" x2="25.4852" y2="23.98" gradientUnits="userSpaceOnUse">
<stop stop-color="#CFCFCF" style="stop-color:#CFCFCF;stop-color:color(display-p3 0.8117 0.8117 0.8117);stop-opacity:1;"/>
<stop offset="1" stop-color="#928C89" style="stop-color:#928C89;stop-color:color(display-p3 0.5722 0.5495 0.5392);stop-opacity:1;"/>
</linearGradient>
<linearGradient id="paint1_linear_2038_74" x1="0.251892" y1="24.7558" x2="25.4852" y2="23.98" gradientUnits="userSpaceOnUse">
<stop stop-color="#CFCFCF" style="stop-color:#CFCFCF;stop-color:color(display-p3 0.8117 0.8117 0.8117);stop-opacity:1;"/>
<stop offset="1" stop-color="#928C89" style="stop-color:#928C89;stop-color:color(display-p3 0.5722 0.5495 0.5392);stop-opacity:1;"/>
</linearGradient>
<linearGradient id="paint2_linear_2038_74" x1="0.251892" y1="24.7558" x2="25.4852" y2="23.98" gradientUnits="userSpaceOnUse">
<stop stop-color="#CFCFCF" style="stop-color:#CFCFCF;stop-color:color(display-p3 0.8117 0.8117 0.8117);stop-opacity:1;"/>
<stop offset="1" stop-color="#928C89" style="stop-color:#928C89;stop-color:color(display-p3 0.5722 0.5495 0.5392);stop-opacity:1;"/>
</linearGradient>
</defs>
</svg>
