<svg width="75" height="15" viewBox="0 0 75 15" fill="none" xmlns="http://www.w3.org/2000/svg">
<g clip-path="url(#clip0_37_3316)">
<path d="M11.3338 11.1333L13.3017 1.2634H15.5069L12.555 14.3752H10.4288L7.99516 4.80251L5.50881 14.3752H3.37388L0.421875 1.2634H2.62709L4.61267 11.1153L7.0551 1.2634H8.91766L11.3338 11.1333ZM20.8311 14.5553C19.4781 14.5553 18.3799 14.1201 17.5364 13.2495C16.6989 12.373 16.2801 11.2083 16.2801 9.75546V9.48527C16.2801 8.51271 16.4617 7.64521 16.8248 6.88277C17.1938 6.11429 17.7092 5.51693 18.3711 5.09067C19.033 4.66442 19.771 4.45129 20.5851 4.45129C21.8795 4.45129 22.8781 4.87455 23.581 5.72105C24.2897 6.56758 24.6441 7.76527 24.6441 9.31421V10.1967H18.4326C18.497 11.0012 18.7577 11.6376 19.2146 12.1058C19.6772 12.5741 20.2571 12.8083 20.9541 12.8083C21.9322 12.8083 22.7288 12.403 23.3438 11.5925L24.4947 12.7182C24.1141 13.3006 23.6045 13.7538 22.966 14.078C22.3335 14.3962 21.6218 14.5553 20.8311 14.5553ZM20.5763 6.20734C19.9906 6.20734 19.5162 6.41746 19.153 6.83771C18.7958 7.25796 18.5673 7.84333 18.4677 8.59377H22.5355V8.43164C22.4887 7.69921 22.2983 7.14689 21.9645 6.77471C21.6306 6.39646 21.1679 6.20734 20.5763 6.20734ZM34.651 9.60239C34.651 11.1153 34.3201 12.319 33.6583 13.2135C33.0022 14.108 32.0973 14.5553 30.9435 14.5553C29.8306 14.5553 28.9638 14.1441 28.3429 13.3216L28.2375 14.3752H26.3046V0.542969H28.4395V5.56796C29.0545 4.82352 29.8833 4.45129 30.9259 4.45129C32.0856 4.45129 32.9964 4.89256 33.6583 5.77509C34.3201 6.65758 34.651 7.89133 34.651 9.47627V9.60239ZM32.5161 9.41327C32.5161 8.35664 32.3345 7.56414 31.9714 7.03583C31.6083 6.50752 31.0811 6.24336 30.39 6.24336C29.4645 6.24336 28.8144 6.65758 28.4395 7.48608V11.5025C28.8202 12.349 29.4763 12.7723 30.4075 12.7723C31.0753 12.7723 31.5907 12.5171 31.9538 12.0068C32.317 11.4965 32.5044 10.725 32.5161 9.69239V9.41327ZM45.8967 3.10049H41.908V14.3752H39.7028V3.10049H35.7492V1.2634H45.8967V3.10049ZM52.5563 13.4206C51.9296 14.1771 51.0393 14.5553 49.8855 14.5553C48.8546 14.5553 48.0727 14.2461 47.5397 13.6278C47.0125 13.0094 46.749 12.1148 46.749 10.9441V4.63141H48.8839V10.9171C48.8839 12.1539 49.3847 12.7723 50.3863 12.7723C51.423 12.7723 52.1229 12.391 52.4861 11.6286V4.63141H54.6209V14.3752H52.6091L52.5563 13.4206ZM58.7766 4.63141L58.8381 5.75708C59.541 4.88656 60.4635 4.45129 61.6056 4.45129C63.5855 4.45129 64.5928 5.61299 64.6282 7.93639V14.3752H62.4928V8.06246C62.4928 7.44408 62.3611 6.98783 62.0977 6.69364C61.8398 6.39346 61.4154 6.24336 60.8237 6.24336C59.9627 6.24336 59.3213 6.64258 58.8996 7.44108V14.3752H56.7647V4.63141H58.7766ZM70.9977 14.5553C69.6447 14.5553 68.5465 14.1201 67.7032 13.2495C66.8654 12.373 66.4465 11.2083 66.4465 9.75546V9.48527C66.4465 8.51271 66.6282 7.64521 66.991 6.88277C67.3605 6.11429 67.8758 5.51693 68.5374 5.09067C69.1995 4.66442 69.9373 4.45129 70.7514 4.45129C72.0459 4.45129 73.0447 4.87455 73.7477 5.72105C74.4563 6.56758 74.8105 7.76527 74.8105 9.31421V10.1967H68.5989C68.6636 11.0012 68.9239 11.6376 69.3813 12.1058C69.8435 12.5741 70.4233 12.8083 71.1203 12.8083C72.0989 12.8083 72.8953 12.403 73.5105 11.5925L74.6611 12.7182C74.2806 13.3006 73.7709 13.7538 73.1325 14.078C72.5002 14.3962 71.7886 14.5553 70.9977 14.5553ZM70.7428 6.20734C70.1569 6.20734 69.6825 6.41746 69.3197 6.83771C68.9623 7.25796 68.7337 7.84333 68.6343 8.59377H72.702V8.43164C72.655 7.69921 72.4648 7.14689 72.1306 6.77471C71.7971 6.39646 71.3343 6.20734 70.7428 6.20734Z" fill="white"/>
</g>
<defs>
<clipPath id="clip0_37_3316">
<rect width="75" height="15" fill="white"/>
</clipPath>
</defs>
</svg>
