<svg width="21" height="21" viewBox="0 0 21 21" fill="none" xmlns="http://www.w3.org/2000/svg">
<g clip-path="url(#clip0_93_333)">
<path d="M19.9888 14.1181L15.0423 11.9015L15.0287 11.8952C14.7719 11.7854 14.4917 11.7413 14.2136 11.767C13.9355 11.7927 13.6682 11.8873 13.4358 12.0422C13.4084 12.0603 13.3822 12.0799 13.3571 12.101L10.8014 14.2798C9.18225 13.4933 7.51066 11.8343 6.72421 10.2362L8.90611 7.64168C8.92711 7.61543 8.94706 7.58918 8.96596 7.56083C9.1176 7.3291 9.20961 7.06347 9.2338 6.78759C9.25798 6.5117 9.21358 6.23412 9.10456 5.97953V5.96693L6.88171 1.01199C6.73758 0.679415 6.48977 0.402373 6.17525 0.222218C5.86074 0.0420625 5.49639 -0.0315435 5.13661 0.0123875C3.71383 0.19961 2.40785 0.898344 1.46259 1.97809C0.517331 3.05783 -0.00256298 4.44474 9.50107e-06 5.87978C9.50107e-06 14.2168 6.78301 20.9998 15.12 20.9998C16.555 21.0023 17.942 20.4825 19.0217 19.5372C20.1014 18.5919 20.8002 17.286 20.9874 15.8632C21.0314 15.5035 20.958 15.1393 20.778 14.8248C20.598 14.5103 20.3212 14.2624 19.9888 14.1181ZM15.12 19.3198C11.5567 19.3159 8.14043 17.8986 5.62079 15.379C3.10114 12.8594 1.6839 9.4431 1.68001 5.87978C1.67606 4.85445 2.04546 3.86273 2.71923 3.08984C3.393 2.31694 4.32507 1.81573 5.34136 1.67979C5.34094 1.68398 5.34094 1.6882 5.34136 1.69239L7.54636 6.62738L5.37601 9.22508C5.35398 9.25043 5.33397 9.27746 5.31616 9.30593C5.15815 9.5484 5.06545 9.82757 5.04706 10.1164C5.02866 10.4052 5.08519 10.6939 5.21116 10.9544C6.16246 12.9001 8.12281 14.8457 10.0895 15.796C10.3519 15.9208 10.6423 15.9753 10.9321 15.9544C11.222 15.9334 11.5014 15.8376 11.7432 15.6763C11.7702 15.6581 11.7961 15.6385 11.8209 15.6175L14.3735 13.4398L19.3085 15.65C19.3085 15.65 19.3169 15.65 19.32 15.65C19.1857 16.6678 18.6852 17.6017 17.9122 18.2771C17.1392 18.9526 16.1465 19.3232 15.12 19.3198Z" fill="white" style="fill:white;fill-opacity:1;"/>
</g>
<defs>
<clipPath id="clip0_93_333">
<rect width="21" height="21" fill="white" style="fill:white;fill-opacity:1;"/>
</clipPath>
</defs>
</svg>
