<svg width="45" height="45" viewBox="0 0 45 45" fill="none" xmlns="http://www.w3.org/2000/svg">
<rect width="45" height="45" rx="10" fill="url(#paint0_linear_99_722)" style=""/>
<path d="M22.5 12C18.1569 12 14.625 15.5319 14.625 19.875C14.625 25.3337 21.7335 32.5052 22.0354 32.8084C22.164 32.9357 22.332 33 22.5 33C22.668 33 22.836 32.9357 22.9646 32.8084C23.2665 32.5052 30.375 25.3337 30.375 19.875C30.375 15.5319 26.8431 12 22.5 12ZM22.5 31.3948C20.9329 29.7174 15.9375 24.0448 15.9375 19.875C15.9375 16.2564 18.8814 13.3125 22.5 13.3125C26.1186 13.3125 29.0625 16.2564 29.0625 19.875C29.0625 24.0409 24.0671 29.7174 22.5 31.3948Z" fill="white" style="fill:white;fill-opacity:1;"/>
<path d="M22.5 15.9375C20.3291 15.9375 18.5625 17.7041 18.5625 19.875C18.5625 22.0459 20.3291 23.8125 22.5 23.8125C24.6709 23.8125 26.4375 22.0459 26.4375 19.875C26.4375 17.7041 24.6709 15.9375 22.5 15.9375ZM22.5 22.5C21.0523 22.5 19.875 21.3227 19.875 19.875C19.875 18.4273 21.0523 17.25 22.5 17.25C23.9477 17.25 25.125 18.4273 25.125 19.875C25.125 21.3227 23.9477 22.5 22.5 22.5Z" fill="white" style="fill:white;fill-opacity:1;"/>
<defs>
<linearGradient id="paint0_linear_99_722" x1="-4.12322e-08" y1="45" x2="46.3397" y2="43.5753" gradientUnits="userSpaceOnUse">
<stop stop-color="#CFCFCF" style="stop-color:#CFCFCF;stop-color:color(display-p3 0.8117 0.8117 0.8117);stop-opacity:1;"/>
<stop offset="1" stop-color="#928C89" style="stop-color:#928C89;stop-color:color(display-p3 0.5722 0.5495 0.5392);stop-opacity:1;"/>
</linearGradient>
</defs>
</svg>
