<svg width="83" height="98" viewBox="0 0 83 98" fill="none" xmlns="http://www.w3.org/2000/svg">
<path d="M82.498 48.9984C82.5011 50.2717 82.1747 51.5241 81.5504 52.6338C80.9261 53.7435 80.0253 54.6728 78.9355 55.3312L11.398 96.6469C10.2594 97.3441 8.95524 97.7248 7.62029 97.7495C6.28534 97.7742 4.96799 97.4421 3.8043 96.7875C2.65169 96.143 1.69153 95.2032 1.02256 94.0647C0.3536 92.9261 -2.7229e-05 91.6299 -0.00195312 90.3094V7.6875C-2.7229e-05 6.36696 0.3536 5.07076 1.02256 3.9322C1.69153 2.79365 2.65169 1.85382 3.8043 1.20937C4.96799 0.554755 6.28534 0.222658 7.62029 0.24738C8.95524 0.272101 10.2594 0.652744 11.398 1.35L78.9355 42.6656C80.0253 43.3241 80.9261 44.2534 81.5504 45.3631C82.1747 46.4728 82.5011 47.7252 82.498 48.9984Z" fill="#E81010"/>
</svg>
