<svg width="24" height="17" viewBox="0 0 24 17" fill="none" xmlns="http://www.w3.org/2000/svg">
<path d="M8.9375 0.125H2.375C1.91087 0.125 1.46575 0.309374 1.13756 0.637563C0.809374 0.965752 0.625 1.41087 0.625 1.875V8.875C0.625 9.33913 0.809374 9.78425 1.13756 10.1124C1.46575 10.4406 1.91087 10.625 2.375 10.625H8.9375V11.5C8.9375 12.4283 8.56875 13.3185 7.91237 13.9749C7.256 14.6313 6.36576 15 5.4375 15C5.20544 15 4.98288 15.0922 4.81878 15.2563C4.65469 15.4204 4.5625 15.6429 4.5625 15.875C4.5625 16.1071 4.65469 16.3296 4.81878 16.4937C4.98288 16.6578 5.20544 16.75 5.4375 16.75C6.82944 16.7486 8.16396 16.195 9.14821 15.2107C10.1325 14.2265 10.6861 12.8919 10.6875 11.5V1.875C10.6875 1.41087 10.5031 0.965752 10.1749 0.637563C9.84675 0.309374 9.40163 0.125 8.9375 0.125ZM8.9375 8.875H2.375V1.875H8.9375V8.875ZM21.625 0.125H15.0625C14.5984 0.125 14.1533 0.309374 13.8251 0.637563C13.4969 0.965752 13.3125 1.41087 13.3125 1.875V8.875C13.3125 9.33913 13.4969 9.78425 13.8251 10.1124C14.1533 10.4406 14.5984 10.625 15.0625 10.625H21.625V11.5C21.625 12.4283 21.2563 13.3185 20.5999 13.9749C19.9435 14.6313 19.0533 15 18.125 15C17.8929 15 17.6704 15.0922 17.5063 15.2563C17.3422 15.4204 17.25 15.6429 17.25 15.875C17.25 16.1071 17.3422 16.3296 17.5063 16.4937C17.6704 16.6578 17.8929 16.75 18.125 16.75C19.5169 16.7486 20.8515 16.195 21.8357 15.2107C22.82 14.2265 23.3736 12.8919 23.375 11.5V1.875C23.375 1.41087 23.1906 0.965752 22.8624 0.637563C22.5342 0.309374 22.0891 0.125 21.625 0.125ZM21.625 8.875H15.0625V1.875H21.625V8.875Z" fill="white" style="fill:white;fill-opacity:1;"/>
</svg>
