<svg width="24" height="17" viewBox="0 0 24 17" fill="none" xmlns="http://www.w3.org/2000/svg">
<path d="M15.0625 16.875H21.625C22.0891 16.875 22.5342 16.6906 22.8624 16.3624C23.1906 16.0342 23.375 15.5891 23.375 15.125V8.125C23.375 7.66087 23.1906 7.21575 22.8624 6.88756C22.5342 6.55937 22.0891 6.375 21.625 6.375H15.0625V5.5C15.0625 4.57174 15.4312 3.6815 16.0876 3.02513C16.744 2.36875 17.6342 2 18.5625 2C18.7946 2 19.0171 1.90781 19.1812 1.74372C19.3453 1.57963 19.4375 1.35706 19.4375 1.125C19.4375 0.892936 19.3453 0.670376 19.1812 0.506281C19.0171 0.342186 18.7946 0.25 18.5625 0.25C17.1706 0.251448 15.836 0.805035 14.8518 1.78929C13.8675 2.77354 13.3139 4.10806 13.3125 5.5V15.125C13.3125 15.5891 13.4969 16.0342 13.8251 16.3624C14.1533 16.6906 14.5984 16.875 15.0625 16.875ZM15.0625 8.125H21.625V15.125H15.0625V8.125ZM2.375 16.875H8.9375C9.40163 16.875 9.84675 16.6906 10.1749 16.3624C10.5031 16.0342 10.6875 15.5891 10.6875 15.125V8.125C10.6875 7.66087 10.5031 7.21575 10.1749 6.88756C9.84675 6.55937 9.40163 6.375 8.9375 6.375H2.375V5.5C2.375 4.57174 2.74375 3.6815 3.40013 3.02513C4.0565 2.36875 4.94674 2 5.875 2C6.10707 2 6.32962 1.90781 6.49372 1.74372C6.65781 1.57963 6.75 1.35706 6.75 1.125C6.75 0.892936 6.65781 0.670376 6.49372 0.506281C6.32962 0.342186 6.10707 0.25 5.875 0.25C4.48306 0.251448 3.14854 0.805035 2.16429 1.78929C1.18003 2.77354 0.626448 4.10806 0.625 5.5V15.125C0.625 15.5891 0.809376 16.0342 1.13756 16.3624C1.46575 16.6906 1.91087 16.875 2.375 16.875ZM2.375 8.125H8.9375V15.125H2.375V8.125Z" fill="white" style="fill:white;fill-opacity:1;"/>
</svg>
