<svg width="133" height="92" viewBox="0 0 133 92" fill="none" xmlns="http://www.w3.org/2000/svg">
<g clip-path="url(#clip0_118_4088)">
<path d="M0.494528 67.5877C5.84337 61.6702 11.6442 56.1724 17.7787 51.0727C23.9132 45.9729 30.3706 41.2712 37.0324 36.8923C43.6942 32.5134 50.5928 28.4358 57.5883 24.5948C64.5838 20.7539 71.8698 17.0528 79.1344 13.5346C86.3989 10.0164 93.6311 6.63809 100.928 3.28129C101.853 2.86169 102.768 2.44209 103.694 2.02249L103.102 1.24784C91.2527 11.2214 79.3711 21.1519 67.3282 30.8996C55.3282 40.6042 43.2099 50.1797 30.984 59.5938C24.0962 64.8979 17.1653 70.1698 10.2021 75.3879L11.1169 76.3025C15.3572 66.4472 21.2549 57.442 27.4648 48.738C33.6746 40.0339 40.2934 31.4698 46.0297 22.357C49.2476 17.2357 52.1749 11.9423 54.5856 6.39063C54.8978 5.65902 54.1229 5.02424 53.4879 5.54067C42.5212 14.5029 32.3078 24.3904 23.0199 35.0848C20.4155 38.0758 17.8863 41.1314 15.4218 44.2407C14.8729 44.94 15.5402 45.79 16.3473 45.4457C23.8594 42.2503 31.5114 39.4422 39.3463 37.1398L38.3884 36.1822C37.8073 38.0113 37.2154 39.8403 36.6342 41.6693C36.4297 42.2933 37.2154 42.9389 37.7858 42.5515C41.9185 39.6897 46.0512 36.8385 50.1839 33.9766L49 33.2988C48.9785 34.6007 48.957 35.9025 48.9355 37.2151C48.9355 37.8068 49.6135 38.2157 50.1301 37.8929C52.7991 36.2253 55.4789 34.5684 58.148 32.9007H57.3515C58.2663 33.4064 58.826 34.2026 59.0305 35.2139C59.1166 35.612 59.6116 35.8917 59.9991 35.7626C64.2717 34.3317 68.5335 32.9007 72.8062 31.459L71.8591 30.7382C71.6976 32.2014 72.1066 33.6754 72.9891 34.8589C73.2366 35.1924 73.6026 35.3215 74.0008 35.1279C75.2277 34.5254 76.4438 33.9228 77.6707 33.3203C78.5101 32.9115 77.7783 31.6527 76.9389 32.0615C75.712 32.664 74.4851 33.2558 73.2582 33.8583L74.2698 34.1273C73.5272 33.1159 73.2259 31.9862 73.3658 30.749C73.4196 30.2756 72.8384 29.8882 72.4187 30.0281C68.1461 31.4375 63.8627 32.847 59.5901 34.2671L60.5587 34.8158C60.2789 33.4279 59.3964 32.2337 58.1587 31.5451C57.9112 31.4052 57.5991 31.3945 57.3623 31.5451C54.6825 33.202 52.0135 34.8696 49.3444 36.5373L50.539 37.2151C50.5606 35.9133 50.5713 34.6114 50.5928 33.2988C50.5928 32.7286 49.9041 32.2767 49.409 32.621C45.2763 35.4829 41.1436 38.3448 37.0216 41.2067L38.1732 42.0889C38.7544 40.2599 39.3355 38.4309 39.9274 36.5911C40.1104 36.0316 39.5292 35.4721 38.9696 35.6335C31.0271 37.979 23.1921 40.7871 15.6047 44.1224L16.5303 45.3274C25.2693 34.1811 34.966 23.7879 45.4808 14.2985C48.4296 11.641 51.4323 9.05886 54.4995 6.54126L53.4018 5.6913C49.1507 15.5465 43.2315 24.541 37.0216 33.245C30.8118 41.949 24.193 50.5132 18.489 59.6368C15.2819 64.7581 12.3653 70.073 9.98684 75.6246C9.76083 76.1518 10.2989 77.0018 10.9016 76.5391C23.3213 67.1896 35.6118 57.6787 47.7947 48.0279C59.9345 38.4093 71.9559 28.651 83.859 18.7527C90.5424 13.1903 97.215 7.6064 103.812 1.92566C104.264 1.53833 103.694 0.935832 103.22 1.15101C95.9235 4.57237 88.6051 7.95068 81.3621 11.4581C74.0546 14.9978 66.8116 18.6451 59.6762 22.5076C52.5408 26.37 45.6745 30.3831 38.9266 34.7405C32.1786 39.0979 25.7966 43.6597 19.6406 48.6519C13.4846 53.644 7.5761 59.1204 2.15192 64.9517C1.46313 65.6941 0.785109 66.4365 0.107087 67.1896C-0.129683 67.4586 0.257759 67.8459 0.494528 67.5769V67.5877Z" fill="black" style="fill:black;fill-opacity:1;"/>
<path d="M77.1653 37.9793C80.803 34.4289 84.4514 30.8784 88.089 27.3387C89.8756 25.5958 91.6729 23.8528 93.4594 22.1099C95.1168 20.496 96.8926 18.936 98.367 17.15C99.8414 15.364 100.885 13.4058 100.638 11.1142C100.595 10.6623 100.186 10.3933 99.7553 10.6085C96.8818 12.061 94.4603 14.202 92.3078 16.569C90.1554 18.936 88.0783 21.6149 86.098 24.2401C82.0837 29.5443 78.3815 35.0852 75.0129 40.8197C68.2327 52.3318 62.7762 64.6293 58.8049 77.3895C57.2875 82.2633 55.4148 89.5901 49.4418 90.5477L50.3673 91.473C52.5198 84.2967 57.2336 78.2932 61.7861 72.4834C67.0273 65.7913 72.2793 59.0992 77.5205 52.4071C80.5016 48.5984 83.4828 44.8005 86.4747 41.0026C86.9482 40.4001 86.3348 39.2919 85.5599 39.8191C82.1375 42.1861 79.5008 45.4568 77.9187 49.3085C77.6604 49.9433 78.5214 50.5243 79.0595 50.1908C82.794 47.813 86.2272 44.9834 89.2621 41.7665L88.5088 41.9602C91.533 42.9392 94.7616 40.6691 95.1383 37.6028L93.7285 37.9793C95.1383 40.271 99.002 39.7869 99.7769 37.2047L98.3455 37.011C98.41 38.0654 98.4854 39.1198 98.5392 40.1742C98.5715 40.6476 98.9697 40.9596 99.4432 40.8627C100.552 40.6261 101.682 40.5938 102.801 40.809C103.651 40.9703 104.017 39.69 103.156 39.5071C101.789 39.2059 100.433 39.2059 99.0558 39.4964L99.9598 40.1849C99.906 39.1306 99.8522 38.0762 99.7984 37.0218C99.7553 36.2041 98.6145 36.032 98.367 36.8281C97.9473 38.1515 95.7518 38.4205 95.0307 37.237C94.611 36.5484 93.7177 36.9142 93.6208 37.6135C93.3518 39.7438 90.8765 41.121 88.907 40.4862C88.6487 40.4001 88.3366 40.4862 88.1536 40.6798C85.2048 43.8107 81.89 46.5542 78.2523 48.8567L79.3931 49.7389C80.8137 46.2853 83.2245 43.2728 86.281 41.1317L85.3662 39.9482C80.0281 46.7909 74.6577 53.6229 69.2981 60.4548C66.6506 63.8332 63.9923 67.2115 61.3448 70.6006C59.0094 73.5808 56.631 76.561 54.5108 79.7027C52.1323 83.2316 50.0983 86.9972 48.8498 91.0749C48.6669 91.6774 49.248 92.0862 49.7754 92.0002C55.0812 91.1717 57.5996 85.6846 59.1278 81.1443C60.1287 78.1856 60.9681 75.1624 61.9906 72.2036C63.0883 69.019 64.2722 65.8774 65.5529 62.768C70.6649 50.3414 77.2514 38.5173 85.0971 27.6185C87.2819 24.5737 89.5527 21.5827 91.9742 18.7208C94.3957 15.8589 96.9679 13.2983 100.272 11.6199L99.4109 11.2756C99.7446 13.2983 98.5715 15.1811 97.3231 16.6658C95.9024 18.355 94.2451 19.8612 92.6738 21.4105C89.2514 24.7996 85.829 28.1887 82.4066 31.5778C80.4371 33.5251 78.4783 35.4725 76.5088 37.4199C76.1429 37.7857 76.7026 38.3452 77.0793 37.9901L77.1653 37.9793Z" fill="black" style="fill:black;fill-opacity:1;"/>
<path d="M123.808 6.5308C117.211 19.2049 110.581 31.8574 103.962 44.5207C102.101 48.082 100.26 51.6539 98.3769 55.1936L99.6899 55.7424C102.09 48.5769 104.501 41.4114 107.31 34.3965L106.427 34.9022C108.289 35.2465 107.213 37.8932 106.847 38.9368C106.578 39.7222 106.201 40.7766 106.675 41.562C107.148 42.3474 108.084 42.3582 108.881 42.1645C112.174 41.3684 115.048 38.9799 116.49 35.9351L115.284 36.0857C115.962 36.7743 116.63 37.4736 117.297 38.1622C117.598 38.4742 118.072 38.4312 118.384 38.1622C119.46 37.2154 120.536 36.2686 121.602 35.3218L120.3 34.7839C120.429 36.2256 120.558 37.678 120.676 39.1197C120.719 39.7007 121.505 40.1956 121.957 39.6469C123.141 38.2267 124.335 36.8066 125.519 35.3756L124.228 34.8377C124.335 36.1287 124.443 37.4306 124.54 38.7217C124.594 39.5071 125.498 39.7007 125.95 39.0982C126.359 38.5495 126.822 37.9255 127.467 37.635C127.909 37.4306 128.565 37.3983 128.856 37.8502C129.049 38.1514 129.372 38.2698 129.717 38.1945C130.642 38.0223 131.557 37.8394 132.472 37.6565C133.387 37.4736 132.999 36.0749 132.084 36.2363C131.169 36.3977 130.233 36.5591 129.318 36.7312L130.179 37.0755C129.587 36.1287 128.447 35.7737 127.381 36.0427C126.165 36.3439 125.369 37.3768 124.658 38.3343L126.068 38.7109C125.961 37.4198 125.864 36.118 125.756 34.8269C125.713 34.2459 124.917 33.751 124.465 34.289C123.281 35.7091 122.097 37.1401 120.913 38.571L122.194 39.0982C122.075 37.6565 121.957 36.2041 121.849 34.7624C121.796 34.0845 121.064 33.7725 120.547 34.2244C119.471 35.1604 118.395 36.1072 117.318 37.054H118.405C117.727 36.3654 117.049 35.6769 116.382 34.9883C116.059 34.6548 115.403 34.6978 115.177 35.1389C113.885 37.7641 111.27 40.1956 108.278 40.6798C108.095 40.7121 108.063 40.7443 107.998 40.6152C107.945 40.4861 108.084 40.1096 108.106 39.9912C108.214 39.5716 108.364 39.1735 108.493 38.7647C108.752 38.0008 109.01 37.1939 108.967 36.3762C108.892 35.0959 108.16 33.7187 106.793 33.4928C106.384 33.4282 106.061 33.6004 105.91 33.9985C103.209 41.0564 100.551 48.125 98.3015 55.3443C98.0648 56.1082 99.2486 56.6354 99.6145 55.893C106.061 43.1436 112.658 30.4588 119.18 17.7524C121.01 14.1804 122.85 10.5977 124.691 7.02571C124.992 6.43397 124.109 5.91754 123.797 6.49852L123.808 6.5308Z" fill="black" style="fill:black;fill-opacity:1;"/>
</g>
<defs>
<clipPath id="clip0_118_4088">
<rect width="133" height="92" fill="white" style="fill:white;fill-opacity:1;"/>
</clipPath>
</defs>
</svg>
