<svg width="85" height="59" viewBox="0 0 85 59" fill="none" xmlns="http://www.w3.org/2000/svg">
<g clip-path="url(#clip0_113_2936)">
<path d="M0.316316 43.3441C3.73475 39.5492 7.44206 36.0234 11.3626 32.7529C15.2831 29.4824 19.41 26.4672 23.6676 23.659C27.9251 20.8508 32.334 18.2358 36.8048 15.7726C41.2756 13.3094 45.9321 10.9358 50.5748 8.6796C55.2176 6.42337 59.8397 4.25684 64.5031 2.10411C65.0946 1.83502 65.6792 1.56593 66.2708 1.29684L65.8925 0.800054C58.3196 7.19615 50.7262 13.5646 43.0295 19.8158C35.3604 26.0394 27.6156 32.1802 19.8021 38.2175C15.4001 41.6191 10.9705 45 6.52039 48.3464L7.10504 48.9329C9.81502 42.6127 13.5842 36.8376 17.5529 31.2557C21.5216 25.6738 25.7517 20.1815 29.4177 14.3374C31.4743 11.0531 33.3451 7.65843 34.8858 4.09815C35.0853 3.62896 34.5901 3.22188 34.1843 3.55307C27.1754 9.30058 20.6481 15.6415 14.7123 22.4999C13.0477 24.418 11.4314 26.3775 9.85629 28.3716C9.5055 28.82 9.93195 29.3651 10.4478 29.1443C15.2487 27.0951 20.1391 25.2943 25.1464 23.8177L24.5342 23.2036C24.1628 24.3766 23.7845 25.5496 23.4131 26.7225C23.2824 27.1227 23.7845 27.5367 24.1491 27.2883C26.7903 25.453 29.4315 23.6245 32.0727 21.7892L31.3161 21.3545C31.3023 22.1894 31.2886 23.0242 31.2748 23.866C31.2748 24.2455 31.7081 24.5077 32.0383 24.3007C33.7441 23.2312 35.4567 22.1687 37.1625 21.0992H36.6535C37.2381 21.4235 37.5958 21.9341 37.7265 22.5827C37.7815 22.8379 38.0979 23.0173 38.3455 22.9345C41.0761 22.0169 43.7999 21.0992 46.5305 20.1746L45.9252 19.7123C45.8221 20.6507 46.0834 21.596 46.6474 22.355C46.8056 22.5689 47.0395 22.6517 47.294 22.5275C48.0781 22.1411 48.8553 21.7547 49.6394 21.3683C50.1759 21.1061 49.7082 20.2988 49.1717 20.561C48.3876 20.9474 47.6035 21.3269 46.8194 21.7133L47.4659 21.8858C46.9913 21.2372 46.7988 20.5127 46.8882 19.7192C46.9226 19.4157 46.5511 19.1673 46.2829 19.257C43.5523 20.1608 40.8148 21.0647 38.0842 21.9755L38.7032 22.3274C38.5244 21.4373 37.9604 20.6714 37.1694 20.2298C37.0112 20.1401 36.8117 20.1332 36.6604 20.2298C34.9477 21.2924 33.2419 22.3619 31.5362 23.4313L32.2996 23.866C32.3134 23.0311 32.3203 22.1963 32.334 21.3545C32.334 20.9888 31.8938 20.699 31.5774 20.9198C28.9362 22.7551 26.295 24.5905 23.6607 26.4258L24.3967 26.9916C24.7681 25.8186 25.1395 24.6457 25.5178 23.4658C25.6347 23.107 25.2633 22.7482 24.9056 22.8517C19.8296 24.3559 14.8223 26.1567 9.97322 28.2957L10.5647 29.0684C16.1498 21.9203 22.347 15.2551 29.0669 9.16948C30.9515 7.46524 32.8705 5.80929 34.8308 4.19474L34.1292 3.64966C31.4124 9.96986 27.6294 15.7381 23.6607 21.32C19.692 26.9019 15.462 32.3941 11.8166 38.2451C9.76687 41.5294 7.9029 44.9379 6.38283 48.4982C6.23839 48.8363 6.5823 49.3814 6.96747 49.0847C14.9048 43.0888 22.7597 36.9894 30.5457 30.8003C38.3043 24.6319 45.9871 18.3738 53.5943 12.026C57.8657 8.45881 62.1301 4.87782 66.3464 1.23474C66.6353 0.986348 66.2708 0.599961 65.9681 0.737956C61.3047 2.93209 56.6276 5.09862 51.9986 7.34794C47.3284 9.61797 42.6994 11.957 38.1392 14.434C33.579 16.911 29.1907 19.4847 24.8781 22.2791C20.5655 25.0735 16.4868 27.999 12.5525 31.2005C8.61823 34.402 4.84213 37.914 1.37555 41.6536C0.935348 42.1297 0.502026 42.6058 0.0687033 43.0888C-0.0826157 43.2613 0.164997 43.5097 0.316316 43.3372V43.3441Z" fill="white" style="fill:white;fill-opacity:1;"/>
<path d="M49.3166 24.3563C51.6414 22.0794 53.9731 19.8024 56.2979 17.5324C57.4397 16.4146 58.5883 15.2969 59.7301 14.1791C60.7893 13.1442 61.9242 12.1437 62.8665 10.9983C63.8088 9.85296 64.476 8.5972 64.3178 7.12755C64.2903 6.83776 64.0289 6.66526 63.7538 6.80326C61.9174 7.73473 60.3698 9.10778 58.9941 10.6257C57.6185 12.1437 56.291 13.8617 55.0255 15.5453C52.4599 18.9469 50.0938 22.5003 47.941 26.1778C43.6078 33.5606 40.1205 41.447 37.5825 49.6302C36.6127 52.7558 35.4159 57.4545 31.5985 58.0686L32.1901 58.662C33.5657 54.0598 36.5783 50.2098 39.4878 46.4839C42.8374 42.1922 46.1939 37.9006 49.5436 33.6089C51.4488 31.1664 53.3541 28.7308 55.2662 26.2951C55.5688 25.9087 55.1768 25.1981 54.6816 25.5362C52.4943 27.0541 50.8092 29.1516 49.7981 31.6218C49.633 32.0288 50.1833 32.4014 50.5272 32.1875C52.9139 30.6627 55.108 28.848 57.0476 26.785L56.5662 26.9092C58.4989 27.5371 60.5624 26.0812 60.8031 24.1148L59.9021 24.3563C60.8031 25.8259 63.2723 25.5155 63.7676 23.8595L62.8528 23.7353C62.894 24.4115 62.9422 25.0877 62.9766 25.7638C62.9972 26.0674 63.2517 26.2675 63.5544 26.2054C64.2628 26.0536 64.985 26.0329 65.7003 26.1709C66.2437 26.2744 66.4776 25.4534 65.9273 25.3361C65.0538 25.1429 64.1871 25.1429 63.3067 25.3292L63.8845 25.7707C63.8501 25.0946 63.8157 24.4184 63.7813 23.7422C63.7538 23.2178 63.0247 23.1074 62.8665 23.618C62.5983 24.4667 61.1952 24.6392 60.7343 23.8802C60.4661 23.4386 59.8952 23.6732 59.8333 24.1217C59.6613 25.4879 58.0794 26.371 56.8207 25.9639C56.6556 25.9087 56.4561 25.9639 56.3392 26.0881C54.4546 28.096 52.3361 29.8554 50.0113 31.332L50.7404 31.8977C51.6483 29.6829 53.189 27.751 55.1424 26.3779L54.5578 25.619C51.1462 30.0072 47.714 34.3886 44.2887 38.7699C42.5967 40.9365 40.8978 43.103 39.2058 45.2764C37.7132 47.1877 36.1931 49.0989 34.8381 51.1136C33.3181 53.3768 32.0181 55.7917 31.2202 58.4067C31.1033 58.7931 31.4747 59.0553 31.8118 59.0001C35.2027 58.4688 36.8122 54.9499 37.7889 52.0382C38.4285 50.1408 38.965 48.2019 39.6184 46.3045C40.32 44.2621 41.0766 42.2474 41.8951 40.2534C45.1622 32.2841 49.3716 24.7013 54.3858 17.7118C55.7821 15.7592 57.2333 13.841 58.7809 12.0057C60.3285 10.1703 61.9724 8.5282 64.084 7.45184L63.5337 7.23104C63.7469 8.5282 62.9972 9.73566 62.1994 10.6878C61.2914 11.7711 60.2322 12.7371 59.228 13.7306C57.0408 15.9041 54.8535 18.0775 52.6663 20.2509C51.4076 21.4998 50.1557 22.7486 48.897 23.9975C48.6632 24.2321 49.0209 24.5909 49.2616 24.3632L49.3166 24.3563Z" fill="white" style="fill:white;fill-opacity:1;"/>
<path d="M79.1257 4.18823C74.9094 12.3162 70.6725 20.4303 66.4424 28.5513C65.2525 30.8352 64.0764 33.1259 62.8727 35.3959L63.7118 35.7478C65.2456 31.1526 66.7863 26.5573 68.5815 22.0587L68.0175 22.3829C69.2074 22.6037 68.5196 24.3011 68.2858 24.9704C68.1138 25.474 67.8731 26.1502 68.1757 26.6539C68.4784 27.1576 69.0768 27.1645 69.5857 27.0403C71.6904 26.5297 73.5269 24.998 74.4486 23.0453L73.6782 23.1419C74.1116 23.5835 74.538 24.032 74.9644 24.4736C75.157 24.6737 75.4597 24.6461 75.6591 24.4736C76.3469 23.8664 77.0348 23.2592 77.7157 22.652L76.8834 22.307C76.966 23.2316 77.0485 24.1631 77.1242 25.0877C77.1517 25.4602 77.6538 25.7776 77.9427 25.4257C78.6993 24.515 79.4627 23.6042 80.2193 22.6865L79.394 22.3415C79.4627 23.1695 79.5315 24.0044 79.5934 24.8324C79.6278 25.3361 80.2056 25.4602 80.4945 25.0739C80.7558 24.722 81.0516 24.3218 81.4643 24.1355C81.7463 24.0044 82.1658 23.9837 82.3516 24.2735C82.4754 24.4667 82.6817 24.5426 82.9018 24.4943C83.4933 24.3839 84.078 24.2666 84.6626 24.1493C85.2472 24.032 84.9996 23.135 84.415 23.2385C83.8304 23.342 83.232 23.4455 82.6473 23.5559L83.1976 23.7767C82.8193 23.1695 82.0902 22.9418 81.4093 23.1143C80.632 23.3075 80.123 23.9699 79.6691 24.584L80.5701 24.8255C80.5013 23.9975 80.4394 23.1626 80.3707 22.3346C80.3431 21.9621 79.8342 21.6447 79.5453 21.9897C78.7887 22.9004 78.0321 23.8181 77.2755 24.7358L78.094 25.0739C78.0183 24.1493 77.9427 23.2178 77.8739 22.2932C77.8395 21.8586 77.3718 21.6585 77.0416 21.9483C76.3538 22.5485 75.666 23.1557 74.9782 23.7629H75.6729C75.2396 23.3213 74.8062 22.8797 74.3798 22.4381C74.1735 22.2243 73.7539 22.2518 73.6094 22.5347C72.7841 24.2183 71.1127 25.7776 69.2006 26.0881C69.0836 26.1088 69.063 26.1295 69.0217 26.0467C68.9873 25.9639 69.0768 25.7224 69.0905 25.6465C69.1593 25.3774 69.2556 25.1222 69.3381 24.86C69.5032 24.3701 69.6683 23.8526 69.6408 23.3282C69.5926 22.5071 69.1249 21.624 68.2514 21.4791C67.99 21.4377 67.7837 21.5481 67.6874 21.8034C65.961 26.3296 64.2621 30.8628 62.8245 35.4925C62.6732 35.9824 63.4298 36.3205 63.6637 35.8444C67.7837 27.6682 72 19.5333 76.1681 11.3847C77.3374 9.09397 78.5136 6.79635 79.6897 4.50562C79.8823 4.12613 79.3183 3.79494 79.1188 4.16753L79.1257 4.18823Z" fill="white" style="fill:white;fill-opacity:1;"/>
</g>
<defs>
<clipPath id="clip0_113_2936">
<rect width="85" height="59" fill="white" style="fill:white;fill-opacity:1;"/>
</clipPath>
</defs>
</svg>
