<svg width="18" height="18" viewBox="0 0 18 18" fill="none" xmlns="http://www.w3.org/2000/svg">
<mask id="path-1-inside-1_37_317" fill="white">
<path d="M12.27 10.5C12.33 10.005 12.375 9.51 12.375 9C12.375 8.49 12.33 7.995 12.27 7.5H14.805C14.925 7.98 15 8.4825 15 9C15 9.5175 14.925 10.02 14.805 10.5M10.9425 14.67C11.3925 13.8375 11.7375 12.9375 11.9775 12H14.19C13.4634 13.2512 12.3106 14.199 10.9425 14.67ZM10.755 10.5H7.245C7.17 10.005 7.125 9.51 7.125 9C7.125 8.49 7.17 7.9875 7.245 7.5H10.755C10.8225 7.9875 10.875 8.49 10.875 9C10.875 9.51 10.8225 10.005 10.755 10.5ZM9 14.97C8.3775 14.07 7.875 13.0725 7.5675 12H10.4325C10.125 13.0725 9.6225 14.07 9 14.97ZM6 6H3.81C4.52898 4.74528 5.68099 3.79593 7.05 3.33C6.6 4.1625 6.2625 5.0625 6 6ZM3.81 12H6C6.2625 12.9375 6.6 13.8375 7.05 14.67C5.6837 14.1992 4.53322 13.2511 3.81 12ZM3.195 10.5C3.075 10.02 3 9.5175 3 9C3 8.4825 3.075 7.98 3.195 7.5H5.73C5.67 7.995 5.625 8.49 5.625 9C5.625 9.51 5.67 10.005 5.73 10.5M9 3.0225C9.6225 3.9225 10.125 4.9275 10.4325 6H7.5675C7.875 4.9275 8.3775 3.9225 9 3.0225ZM14.19 6H11.9775C11.7424 5.07121 11.3948 4.17458 10.9425 3.33C12.3225 3.8025 13.47 4.755 14.19 6ZM9 1.5C4.8525 1.5 1.5 4.875 1.5 9C1.5 10.9891 2.29018 12.8968 3.6967 14.3033C4.39314 14.9997 5.21993 15.5522 6.12987 15.9291C7.03982 16.306 8.01509 16.5 9 16.5C10.9891 16.5 12.8968 15.7098 14.3033 14.3033C15.7098 12.8968 16.5 10.9891 16.5 9C16.5 8.01509 16.306 7.03982 15.9291 6.12987C15.5522 5.21993 14.9997 4.39314 14.3033 3.6967C13.6069 3.00026 12.7801 2.44781 11.8701 2.0709C10.9602 1.69399 9.98491 1.5 9 1.5Z"/>
</mask>
<path d="M12.27 10.5C12.33 10.005 12.375 9.51 12.375 9C12.375 8.49 12.33 7.995 12.27 7.5H14.805C14.925 7.98 15 8.4825 15 9C15 9.5175 14.925 10.02 14.805 10.5M10.9425 14.67C11.3925 13.8375 11.7375 12.9375 11.9775 12H14.19C13.4634 13.2512 12.3106 14.199 10.9425 14.67ZM10.755 10.5H7.245C7.17 10.005 7.125 9.51 7.125 9C7.125 8.49 7.17 7.9875 7.245 7.5H10.755C10.8225 7.9875 10.875 8.49 10.875 9C10.875 9.51 10.8225 10.005 10.755 10.5ZM9 14.97C8.3775 14.07 7.875 13.0725 7.5675 12H10.4325C10.125 13.0725 9.6225 14.07 9 14.97ZM6 6H3.81C4.52898 4.74528 5.68099 3.79593 7.05 3.33C6.6 4.1625 6.2625 5.0625 6 6ZM3.81 12H6C6.2625 12.9375 6.6 13.8375 7.05 14.67C5.6837 14.1992 4.53322 13.2511 3.81 12ZM3.195 10.5C3.075 10.02 3 9.5175 3 9C3 8.4825 3.075 7.98 3.195 7.5H5.73C5.67 7.995 5.625 8.49 5.625 9C5.625 9.51 5.67 10.005 5.73 10.5M9 3.0225C9.6225 3.9225 10.125 4.9275 10.4325 6H7.5675C7.875 4.9275 8.3775 3.9225 9 3.0225ZM14.19 6H11.9775C11.7424 5.07121 11.3948 4.17458 10.9425 3.33C12.3225 3.8025 13.47 4.755 14.19 6ZM9 1.5C4.8525 1.5 1.5 4.875 1.5 9C1.5 10.9891 2.29018 12.8968 3.6967 14.3033C4.39314 14.9997 5.21993 15.5522 6.12987 15.9291C7.03982 16.306 8.01509 16.5 9 16.5C10.9891 16.5 12.8968 15.7098 14.3033 14.3033C15.7098 12.8968 16.5 10.9891 16.5 9C16.5 8.01509 16.306 7.03982 15.9291 6.12987C15.5522 5.21993 14.9997 4.39314 14.3033 3.6967C13.6069 3.00026 12.7801 2.44781 11.8701 2.0709C10.9602 1.69399 9.98491 1.5 9 1.5Z" fill="black"/>
<path d="M12.27 7.5V7.1H11.8186L11.8729 7.54813L12.27 7.5ZM14.805 7.5L15.1931 7.40299L15.1173 7.1H14.805V7.5ZM10.9425 14.67L10.5906 14.4798L10.1029 15.3821L11.0727 15.0482L10.9425 14.67ZM11.9775 12V11.6H11.667L11.59 11.9008L11.9775 12ZM14.19 12L14.5359 12.2009L14.8849 11.6H14.19V12ZM10.755 10.5V10.9H11.1042L11.1513 10.554L10.755 10.5ZM7.245 10.5L6.84951 10.5599L6.90104 10.9H7.245V10.5ZM7.245 7.5V7.1H6.90183L6.84965 7.43918L7.245 7.5ZM10.755 7.5L11.1512 7.44514L11.1034 7.1H10.755V7.5ZM9 14.97L8.67102 15.1975L9 15.6732L9.32898 15.1975L9 14.97ZM7.5675 12V11.6H7.0367L7.18299 12.1102L7.5675 12ZM10.4325 12L10.817 12.1102L10.9633 11.6H10.4325V12ZM6 6V6.4H6.30338L6.38519 6.10785L6 6ZM3.81 6L3.46294 5.80113L3.11978 6.4H3.81V6ZM7.05 3.33L7.40188 3.52021L7.88709 2.62257L6.92112 2.95133L7.05 3.33ZM3.81 12V11.6H3.11676L3.46369 12.2002L3.81 12ZM6 12L6.38519 11.8921L6.30338 11.6H6V12ZM7.05 14.67L6.91969 15.0482L7.8898 15.3824L7.40188 14.4798L7.05 14.67ZM3.195 7.5V7.1H2.88269L2.80694 7.40299L3.195 7.5ZM5.73 7.5L6.12709 7.54813L6.18141 7.1H5.73V7.5ZM9 3.0225L9.32898 2.79496L9 2.31933L8.67102 2.79496L9 3.0225ZM10.4325 6V6.4H10.9633L10.817 5.88976L10.4325 6ZM7.5675 6L7.18299 5.88976L7.0367 6.4H7.5675V6ZM14.19 6V6.4H14.8834L14.5363 5.79975L14.19 6ZM11.9775 6L11.5897 6.09815L11.6661 6.4H11.9775V6ZM10.9425 3.33L11.0721 2.95157L10.1096 2.62201L10.5899 3.51885L10.9425 3.33ZM9 1.5V1.1V1.5ZM9 16.5V16.9V16.5ZM12.6671 10.5481C12.728 10.0459 12.775 9.533 12.775 9H11.975C11.975 9.487 11.932 9.96407 11.8729 10.4519L12.6671 10.5481ZM12.775 9C12.775 8.467 12.728 7.95407 12.6671 7.45187L11.8729 7.54813C11.932 8.03593 11.975 8.513 11.975 9H12.775ZM12.27 7.9H14.805V7.1H12.27V7.9ZM14.4169 7.59701C14.5306 8.05158 14.6 8.52111 14.6 9H15.4C15.4 8.44389 15.3194 7.90842 15.1931 7.40299L14.4169 7.59701ZM14.6 9C14.6 9.47889 14.5306 9.94842 14.4169 10.403L15.1931 10.597C15.3194 10.0916 15.4 9.55611 15.4 9H14.6ZM11.2944 14.8602C11.761 13.997 12.1175 13.0661 12.365 12.0992L11.59 11.9008C11.3575 12.8089 11.024 13.678 10.5906 14.4798L11.2944 14.8602ZM11.9775 12.4H14.19V11.6H11.9775V12.4ZM13.8441 11.7991C13.1657 12.9672 12.0895 13.8521 10.8123 14.2918L11.0727 15.0482C12.5317 14.5459 13.761 13.5352 14.5359 12.2009L13.8441 11.7991ZM10.755 10.1H7.245V10.9H10.755V10.1ZM7.64049 10.4401C7.56787 9.96084 7.525 9.48621 7.525 9H6.725C6.725 9.53379 6.77212 10.0492 6.84951 10.5599L7.64049 10.4401ZM7.525 9C7.525 8.51339 7.56795 8.03143 7.64035 7.56082L6.84965 7.43918C6.77205 7.94357 6.725 8.46661 6.725 9H7.525ZM7.245 7.9H10.755V7.1H7.245V7.9ZM10.3588 7.55486C10.4252 8.03439 10.475 8.51637 10.475 9H11.275C11.275 8.46363 11.2198 7.94061 11.1512 7.44514L10.3588 7.55486ZM10.475 9C10.475 9.48339 10.4252 9.95774 10.3587 10.446L11.1513 10.554C11.2198 10.0523 11.275 9.53661 11.275 9H10.475ZM9.32898 14.7425C8.72755 13.8729 8.24584 12.9146 7.95201 11.8898L7.18299 12.1102C7.50416 13.2304 8.02744 14.2671 8.67102 15.1975L9.32898 14.7425ZM7.5675 12.4H10.4325V11.6H7.5675V12.4ZM10.048 11.8898C9.75416 12.9146 9.27245 13.8729 8.67102 14.7425L9.32898 15.1975C9.97256 14.2671 10.4958 13.2304 10.817 12.1102L10.048 11.8898ZM6 5.6H3.81V6.4H6V5.6ZM4.15706 6.19887C4.82762 5.02864 5.90206 4.14322 7.17888 3.70867L6.92112 2.95133C5.45993 3.44864 4.23034 4.46191 3.46294 5.80113L4.15706 6.19887ZM6.69812 3.13979C6.23074 4.00445 5.88324 4.9335 5.61481 5.89215L6.38519 6.10785C6.64176 5.1915 6.96926 4.32055 7.40188 3.52021L6.69812 3.13979ZM3.81 12.4H6V11.6H3.81V12.4ZM5.61481 12.1079C5.88324 13.0665 6.23074 13.9956 6.69812 14.8602L7.40188 14.4798C6.96926 13.6794 6.64176 12.8085 6.38519 11.8921L5.61481 12.1079ZM7.18031 14.2918C5.90509 13.8524 4.83131 12.9676 4.15631 11.7998L3.46369 12.2002C4.23513 13.5347 5.46231 14.546 6.91969 15.0482L7.18031 14.2918ZM3.58306 10.403C3.46942 9.94842 3.4 9.47889 3.4 9H2.6C2.6 9.55611 2.68058 10.0916 2.80694 10.597L3.58306 10.403ZM3.4 9C3.4 8.52111 3.46942 8.05158 3.58306 7.59701L2.80694 7.40299C2.68058 7.90842 2.6 8.44389 2.6 9H3.4ZM3.195 7.9H5.73V7.1H3.195V7.9ZM5.33291 7.45187C5.27203 7.95407 5.225 8.467 5.225 9H6.025C6.025 8.513 6.06797 8.03593 6.12709 7.54813L5.33291 7.45187ZM5.225 9C5.225 9.533 5.27203 10.0459 5.33291 10.5481L6.12709 10.4519C6.06797 9.96407 6.025 9.487 6.025 9H5.225ZM8.67102 3.25004C9.27196 4.11886 9.75395 5.0847 10.048 6.11024L10.817 5.88976C10.496 4.7703 9.97304 3.72614 9.32898 2.79496L8.67102 3.25004ZM10.4325 5.6H7.5675V6.4H10.4325V5.6ZM7.95201 6.11024C8.24605 5.0847 8.72804 4.11886 9.32898 3.25004L8.67102 2.79496C8.02696 3.72614 7.50396 4.7703 7.18299 5.88976L7.95201 6.11024ZM14.19 5.6H11.9775V6.4H14.19V5.6ZM12.3653 5.90185C12.1222 4.94151 11.7628 4.01442 11.2951 3.14115L10.5899 3.51885C11.0269 4.33474 11.3626 5.20091 11.5897 6.09815L12.3653 5.90185ZM10.8129 3.70843C12.1009 4.14943 13.1718 5.03828 13.8437 6.20025L14.5363 5.79975C13.7682 4.47172 12.5441 3.45557 11.0721 2.95157L10.8129 3.70843ZM9 1.1C4.63081 1.1 1.1 4.65487 1.1 9H1.9C1.9 5.09513 5.07419 1.9 9 1.9V1.1ZM1.1 9C1.1 11.0952 1.93232 13.1046 3.41386 14.5861L3.97954 14.0205C2.64803 12.6889 1.9 10.883 1.9 9H1.1ZM3.41386 14.5861C4.14744 15.3197 5.01833 15.9016 5.9768 16.2986L6.28295 15.5595C5.42154 15.2027 4.63884 14.6798 3.97954 14.0205L3.41386 14.5861ZM5.9768 16.2986C6.93527 16.6957 7.96256 16.9 9 16.9V16.1C8.06761 16.1 7.14436 15.9164 6.28295 15.5595L5.9768 16.2986ZM9 16.9C11.0952 16.9 13.1046 16.0677 14.5861 14.5861L14.0205 14.0205C12.6889 15.352 10.883 16.1 9 16.1V16.9ZM14.5861 14.5861C16.0677 13.1046 16.9 11.0952 16.9 9H16.1C16.1 10.883 15.352 12.6889 14.0205 14.0205L14.5861 14.5861ZM16.9 9C16.9 7.96256 16.6957 6.93527 16.2986 5.9768L15.5595 6.28295C15.9164 7.14436 16.1 8.06761 16.1 9H16.9ZM16.2986 5.9768C15.9016 5.01833 15.3197 4.14744 14.5861 3.41386L14.0205 3.97954C14.6798 4.63884 15.2027 5.42154 15.5595 6.28295L16.2986 5.9768ZM14.5861 3.41386C13.8526 2.68027 12.9817 2.09836 12.0232 1.70135L11.7171 2.44046C12.5785 2.79726 13.3612 3.32025 14.0205 3.97954L14.5861 3.41386ZM12.0232 1.70135C11.0647 1.30434 10.0374 1.1 9 1.1V1.9C9.93239 1.9 10.8556 2.08365 11.7171 2.44046L12.0232 1.70135Z" fill="white" mask="url(#path-1-inside-1_37_317)"/>
</svg>
