<svg width="24" height="24" viewBox="0 0 24 24" fill="none" xmlns="http://www.w3.org/2000/svg">
<path d="M6.683 5.00002C5.318 5.06202 4.475 5.25402 3.879 5.85102C3 6.73102 3 8.14802 3 10.981V15.99C3 18.823 3 20.24 3.879 21.12C4.757 22 6.172 22 9 22H15C17.828 22 19.243 22 20.121 21.12C20.999 20.24 21 18.823 21 15.99V10.98C21 8.14702 21 6.73002 20.121 5.85002C19.525 5.25302 18.681 5.06002 17.317 4.99902" stroke="#E81010" stroke-width="1.5" stroke-linecap="round" stroke-linejoin="round"/>
<path d="M9.99971 18H13.9997M11.4997 10L12.4997 7M7.02471 6.54C6.54471 4.66 6.30471 3.72 6.69471 3.03C6.79921 2.84621 6.9322 2.68014 7.08871 2.538C7.67771 2 8.66871 2 10.6497 2H13.3497C15.3307 2 16.3217 2 16.9107 2.538C17.0677 2.681 17.2007 2.848 17.3047 3.031C17.6947 3.721 17.4547 4.661 16.9747 6.541C16.5907 8.039 16.3997 8.788 15.8877 9.281C15.7477 9.41633 15.594 9.534 15.4267 9.634C14.8127 10 14.0227 10 12.4437 10H11.5557C9.97571 10 9.18571 10 8.57271 9.634C8.40675 9.53417 8.25246 9.4161 8.11271 9.282C7.59971 8.788 7.40771 8.039 7.02471 6.54Z" stroke="#E81010" stroke-width="1.5" stroke-linecap="round" stroke-linejoin="round"/>
</svg>
